G04 #@! TF.GenerationSoftware,KiCad,Pcbnew,5.0.2-bee76a0~70~ubuntu18.04.1*
G04 #@! TF.CreationDate,2020-08-06T15:01:45+02:00*
G04 #@! TF.ProjectId,panel_led_mod,70616e65-6c5f-46c6-9564-5f6d6f642e6b,rev?*
G04 #@! TF.SameCoordinates,Original*
G04 #@! TF.FileFunction,Legend,Bot*
G04 #@! TF.FilePolarity,Positive*
%FSLAX46Y46*%
G04 Gerber Fmt 4.6, Leading zero omitted, Abs format (unit mm)*
G04 Created by KiCad (PCBNEW 5.0.2-bee76a0~70~ubuntu18.04.1) date jue 06 ago 2020 15:01:45 CEST*
%MOMM*%
%LPD*%
G01*
G04 APERTURE LIST*
%ADD10C,0.300000*%
%ADD11C,0.200000*%
%ADD12C,0.120000*%
%ADD13C,0.150000*%
G04 APERTURE END LIST*
D10*
X119857602Y-93918577D02*
X119643317Y-93990005D01*
X119571888Y-94061434D01*
X119500460Y-94204291D01*
X119500460Y-94418577D01*
X119571888Y-94561434D01*
X119643317Y-94632862D01*
X119786174Y-94704291D01*
X120357602Y-94704291D01*
X120357602Y-93204291D01*
X119857602Y-93204291D01*
X119714745Y-93275720D01*
X119643317Y-93347148D01*
X119571888Y-93490005D01*
X119571888Y-93632862D01*
X119643317Y-93775720D01*
X119714745Y-93847148D01*
X119857602Y-93918577D01*
X120357602Y-93918577D01*
X118929031Y-93347148D02*
X118857602Y-93275720D01*
X118714745Y-93204291D01*
X118357602Y-93204291D01*
X118214745Y-93275720D01*
X118143317Y-93347148D01*
X118071888Y-93490005D01*
X118071888Y-93632862D01*
X118143317Y-93847148D01*
X119000460Y-94704291D01*
X118071888Y-94704291D01*
X120163862Y-96571880D02*
X119449577Y-96571880D01*
X120306720Y-97000451D02*
X119806720Y-95500451D01*
X119306720Y-97000451D01*
X120335574Y-99382354D02*
X120407002Y-99453782D01*
X120621288Y-99525211D01*
X120764145Y-99525211D01*
X120978431Y-99453782D01*
X121121288Y-99310925D01*
X121192717Y-99168068D01*
X121264145Y-98882354D01*
X121264145Y-98668068D01*
X121192717Y-98382354D01*
X121121288Y-98239497D01*
X120978431Y-98096640D01*
X120764145Y-98025211D01*
X120621288Y-98025211D01*
X120407002Y-98096640D01*
X120335574Y-98168068D01*
X120224597Y-101820754D02*
X120296025Y-101892182D01*
X120510311Y-101963611D01*
X120653168Y-101963611D01*
X120867454Y-101892182D01*
X121010311Y-101749325D01*
X121081740Y-101606468D01*
X121153168Y-101320754D01*
X121153168Y-101106468D01*
X121081740Y-100820754D01*
X121010311Y-100677897D01*
X120867454Y-100535040D01*
X120653168Y-100463611D01*
X120510311Y-100463611D01*
X120296025Y-100535040D01*
X120224597Y-100606468D01*
X118867454Y-101963611D02*
X119581740Y-101963611D01*
X119581740Y-100463611D01*
X118367454Y-101963611D02*
X118367454Y-100463611D01*
X117510311Y-101963611D02*
X118153168Y-101106468D01*
X117510311Y-100463611D02*
X118367454Y-101320754D01*
X129767448Y-85335680D02*
X129910305Y-85264251D01*
X130124591Y-85264251D01*
X130338877Y-85335680D01*
X130481734Y-85478537D01*
X130553162Y-85621394D01*
X130624591Y-85907108D01*
X130624591Y-86121394D01*
X130553162Y-86407108D01*
X130481734Y-86549965D01*
X130338877Y-86692822D01*
X130124591Y-86764251D01*
X129981734Y-86764251D01*
X129767448Y-86692822D01*
X129696020Y-86621394D01*
X129696020Y-86121394D01*
X129981734Y-86121394D01*
X128267448Y-86764251D02*
X129124591Y-86764251D01*
X128696020Y-86764251D02*
X128696020Y-85264251D01*
X128838877Y-85478537D01*
X128981734Y-85621394D01*
X129124591Y-85692822D01*
X131312777Y-87918860D02*
X131455634Y-87847431D01*
X131669920Y-87847431D01*
X131884205Y-87918860D01*
X132027062Y-88061717D01*
X132098491Y-88204574D01*
X132169920Y-88490288D01*
X132169920Y-88704574D01*
X132098491Y-88990288D01*
X132027062Y-89133145D01*
X131884205Y-89276002D01*
X131669920Y-89347431D01*
X131527062Y-89347431D01*
X131312777Y-89276002D01*
X131241348Y-89204574D01*
X131241348Y-88704574D01*
X131527062Y-88704574D01*
X130598491Y-89347431D02*
X130598491Y-87847431D01*
X129741348Y-89347431D01*
X129741348Y-87847431D01*
X129027062Y-89347431D02*
X129027062Y-87847431D01*
X128669920Y-87847431D01*
X128455634Y-87918860D01*
X128312777Y-88061717D01*
X128241348Y-88204574D01*
X128169920Y-88490288D01*
X128169920Y-88704574D01*
X128241348Y-88990288D01*
X128312777Y-89133145D01*
X128455634Y-89276002D01*
X128669920Y-89347431D01*
X129027062Y-89347431D01*
X129726808Y-90380120D02*
X129869665Y-90308691D01*
X130083951Y-90308691D01*
X130298237Y-90380120D01*
X130441094Y-90522977D01*
X130512522Y-90665834D01*
X130583951Y-90951548D01*
X130583951Y-91165834D01*
X130512522Y-91451548D01*
X130441094Y-91594405D01*
X130298237Y-91737262D01*
X130083951Y-91808691D01*
X129941094Y-91808691D01*
X129726808Y-91737262D01*
X129655380Y-91665834D01*
X129655380Y-91165834D01*
X129941094Y-91165834D01*
X129083951Y-90451548D02*
X129012522Y-90380120D01*
X128869665Y-90308691D01*
X128512522Y-90308691D01*
X128369665Y-90380120D01*
X128298237Y-90451548D01*
X128226808Y-90594405D01*
X128226808Y-90737262D01*
X128298237Y-90951548D01*
X129155380Y-91808691D01*
X128226808Y-91808691D01*
X120265000Y-92202391D02*
X120765000Y-91488105D01*
X121122142Y-92202391D02*
X121122142Y-90702391D01*
X120550714Y-90702391D01*
X120407857Y-90773820D01*
X120336428Y-90845248D01*
X120265000Y-90988105D01*
X120265000Y-91202391D01*
X120336428Y-91345248D01*
X120407857Y-91416677D01*
X120550714Y-91488105D01*
X121122142Y-91488105D01*
X119693571Y-90845248D02*
X119622142Y-90773820D01*
X119479285Y-90702391D01*
X119122142Y-90702391D01*
X118979285Y-90773820D01*
X118907857Y-90845248D01*
X118836428Y-90988105D01*
X118836428Y-91130962D01*
X118907857Y-91345248D01*
X119765000Y-92202391D01*
X118836428Y-92202391D01*
X120291942Y-88790317D02*
X120077657Y-88861745D01*
X120006228Y-88933174D01*
X119934800Y-89076031D01*
X119934800Y-89290317D01*
X120006228Y-89433174D01*
X120077657Y-89504602D01*
X120220514Y-89576031D01*
X120791942Y-89576031D01*
X120791942Y-88076031D01*
X120291942Y-88076031D01*
X120149085Y-88147460D01*
X120077657Y-88218888D01*
X120006228Y-88361745D01*
X120006228Y-88504602D01*
X120077657Y-88647460D01*
X120149085Y-88718888D01*
X120291942Y-88790317D01*
X120791942Y-88790317D01*
X118506228Y-89576031D02*
X119363371Y-89576031D01*
X118934800Y-89576031D02*
X118934800Y-88076031D01*
X119077657Y-88290317D01*
X119220514Y-88433174D01*
X119363371Y-88504602D01*
X119995760Y-87175731D02*
X120495760Y-86461445D01*
X120852902Y-87175731D02*
X120852902Y-85675731D01*
X120281474Y-85675731D01*
X120138617Y-85747160D01*
X120067188Y-85818588D01*
X119995760Y-85961445D01*
X119995760Y-86175731D01*
X120067188Y-86318588D01*
X120138617Y-86390017D01*
X120281474Y-86461445D01*
X120852902Y-86461445D01*
X118567188Y-87175731D02*
X119424331Y-87175731D01*
X118995760Y-87175731D02*
X118995760Y-85675731D01*
X119138617Y-85890017D01*
X119281474Y-86032874D01*
X119424331Y-86104302D01*
X121167708Y-104757611D02*
X121167708Y-103257611D01*
X120810565Y-103257611D01*
X120596280Y-103329040D01*
X120453422Y-103471897D01*
X120381994Y-103614754D01*
X120310565Y-103900468D01*
X120310565Y-104114754D01*
X120381994Y-104400468D01*
X120453422Y-104543325D01*
X120596280Y-104686182D01*
X120810565Y-104757611D01*
X121167708Y-104757611D01*
X119667708Y-103971897D02*
X119167708Y-103971897D01*
X118953422Y-104757611D02*
X119667708Y-104757611D01*
X119667708Y-103257611D01*
X118953422Y-103257611D01*
X128966577Y-93544888D02*
X129109434Y-93473460D01*
X129180862Y-93402031D01*
X129252291Y-93259174D01*
X129252291Y-93187745D01*
X129180862Y-93044888D01*
X129109434Y-92973460D01*
X128966577Y-92902031D01*
X128680862Y-92902031D01*
X128538005Y-92973460D01*
X128466577Y-93044888D01*
X128395148Y-93187745D01*
X128395148Y-93259174D01*
X128466577Y-93402031D01*
X128538005Y-93473460D01*
X128680862Y-93544888D01*
X128966577Y-93544888D01*
X129109434Y-93616317D01*
X129180862Y-93687745D01*
X129252291Y-93830602D01*
X129252291Y-94116317D01*
X129180862Y-94259174D01*
X129109434Y-94330602D01*
X128966577Y-94402031D01*
X128680862Y-94402031D01*
X128538005Y-94330602D01*
X128466577Y-94259174D01*
X128395148Y-94116317D01*
X128395148Y-93830602D01*
X128466577Y-93687745D01*
X128538005Y-93616317D01*
X128680862Y-93544888D01*
X129691094Y-96949651D02*
X130548237Y-96949651D01*
X130119665Y-96949651D02*
X130119665Y-95449651D01*
X130262522Y-95663937D01*
X130405380Y-95806794D01*
X130548237Y-95878222D01*
X128762522Y-95449651D02*
X128619665Y-95449651D01*
X128476808Y-95521080D01*
X128405380Y-95592508D01*
X128333951Y-95735365D01*
X128262522Y-96021080D01*
X128262522Y-96378222D01*
X128333951Y-96663937D01*
X128405380Y-96806794D01*
X128476808Y-96878222D01*
X128619665Y-96949651D01*
X128762522Y-96949651D01*
X128905380Y-96878222D01*
X128976808Y-96806794D01*
X129048237Y-96663937D01*
X129119665Y-96378222D01*
X129119665Y-96021080D01*
X129048237Y-95735365D01*
X128976808Y-95592508D01*
X128905380Y-95521080D01*
X128762522Y-95449651D01*
X129716494Y-99352491D02*
X130573637Y-99352491D01*
X130145065Y-99352491D02*
X130145065Y-97852491D01*
X130287922Y-98066777D01*
X130430780Y-98209634D01*
X130573637Y-98281062D01*
X129145065Y-97995348D02*
X129073637Y-97923920D01*
X128930780Y-97852491D01*
X128573637Y-97852491D01*
X128430780Y-97923920D01*
X128359351Y-97995348D01*
X128287922Y-98138205D01*
X128287922Y-98281062D01*
X128359351Y-98495348D01*
X129216494Y-99352491D01*
X128287922Y-99352491D01*
X129716494Y-102121091D02*
X130573637Y-102121091D01*
X130145065Y-102121091D02*
X130145065Y-100621091D01*
X130287922Y-100835377D01*
X130430780Y-100978234D01*
X130573637Y-101049662D01*
X128430780Y-101121091D02*
X128430780Y-102121091D01*
X128787922Y-100549662D02*
X129145065Y-101621091D01*
X128216494Y-101621091D01*
X129520914Y-104742371D02*
X130378057Y-104742371D01*
X129949485Y-104742371D02*
X129949485Y-103242371D01*
X130092342Y-103456657D01*
X130235200Y-103599514D01*
X130378057Y-103670942D01*
X128235200Y-103242371D02*
X128520914Y-103242371D01*
X128663771Y-103313800D01*
X128735200Y-103385228D01*
X128878057Y-103599514D01*
X128949485Y-103885228D01*
X128949485Y-104456657D01*
X128878057Y-104599514D01*
X128806628Y-104670942D01*
X128663771Y-104742371D01*
X128378057Y-104742371D01*
X128235200Y-104670942D01*
X128163771Y-104599514D01*
X128092342Y-104456657D01*
X128092342Y-104099514D01*
X128163771Y-103956657D01*
X128235200Y-103885228D01*
X128378057Y-103813800D01*
X128663771Y-103813800D01*
X128806628Y-103885228D01*
X128878057Y-103956657D01*
X128949485Y-104099514D01*
D11*
X121564400Y-92659200D02*
X121564400Y-84124800D01*
X120599200Y-92659200D02*
X121564400Y-92659200D01*
X120599200Y-97180400D02*
X120599200Y-92659200D01*
X121564400Y-97180400D02*
X120599200Y-97180400D01*
X121564400Y-97688400D02*
X121564400Y-97180400D01*
X121564400Y-105867200D02*
X121564400Y-97688400D01*
X121615200Y-105867200D02*
X121564400Y-105867200D01*
X127965200Y-105867200D02*
X121615200Y-105867200D01*
X128016000Y-84074000D02*
X127965200Y-105867200D01*
X121564400Y-84074000D02*
X128016000Y-84074000D01*
D10*
X166922497Y-122181394D02*
X166993925Y-122252822D01*
X167208211Y-122324251D01*
X167351068Y-122324251D01*
X167565354Y-122252822D01*
X167708211Y-122109965D01*
X167779640Y-121967108D01*
X167851068Y-121681394D01*
X167851068Y-121467108D01*
X167779640Y-121181394D01*
X167708211Y-121038537D01*
X167565354Y-120895680D01*
X167351068Y-120824251D01*
X167208211Y-120824251D01*
X166993925Y-120895680D01*
X166922497Y-120967108D01*
X165565354Y-122324251D02*
X166279640Y-122324251D01*
X166279640Y-120824251D01*
X165065354Y-122324251D02*
X165065354Y-120824251D01*
X164208211Y-122324251D02*
X164851068Y-121467108D01*
X164208211Y-120824251D02*
X165065354Y-121681394D01*
X134882877Y-76048062D02*
X133740020Y-76048062D01*
X134311448Y-76619491D02*
X134311448Y-75476634D01*
X133168591Y-75119491D02*
X132240020Y-75119491D01*
X132740020Y-75690920D01*
X132525734Y-75690920D01*
X132382877Y-75762348D01*
X132311448Y-75833777D01*
X132240020Y-75976634D01*
X132240020Y-76333777D01*
X132311448Y-76476634D01*
X132382877Y-76548062D01*
X132525734Y-76619491D01*
X132954305Y-76619491D01*
X133097162Y-76548062D01*
X133168591Y-76476634D01*
X131811448Y-75119491D02*
X131311448Y-76619491D01*
X130811448Y-75119491D01*
X130454305Y-75119491D02*
X129525734Y-75119491D01*
X130025734Y-75690920D01*
X129811448Y-75690920D01*
X129668591Y-75762348D01*
X129597162Y-75833777D01*
X129525734Y-75976634D01*
X129525734Y-76333777D01*
X129597162Y-76476634D01*
X129668591Y-76548062D01*
X129811448Y-76619491D01*
X130240020Y-76619491D01*
X130382877Y-76548062D01*
X130454305Y-76476634D01*
X135024571Y-121773142D02*
X133881714Y-121773142D01*
X134453142Y-122344571D02*
X134453142Y-121201714D01*
X132453142Y-120844571D02*
X133167428Y-120844571D01*
X133238857Y-121558857D01*
X133167428Y-121487428D01*
X133024571Y-121416000D01*
X132667428Y-121416000D01*
X132524571Y-121487428D01*
X132453142Y-121558857D01*
X132381714Y-121701714D01*
X132381714Y-122058857D01*
X132453142Y-122201714D01*
X132524571Y-122273142D01*
X132667428Y-122344571D01*
X133024571Y-122344571D01*
X133167428Y-122273142D01*
X133238857Y-122201714D01*
X131953142Y-120844571D02*
X131453142Y-122344571D01*
X130953142Y-120844571D01*
X167022637Y-75234100D02*
X167165494Y-75162671D01*
X167379780Y-75162671D01*
X167594065Y-75234100D01*
X167736922Y-75376957D01*
X167808351Y-75519814D01*
X167879780Y-75805528D01*
X167879780Y-76019814D01*
X167808351Y-76305528D01*
X167736922Y-76448385D01*
X167594065Y-76591242D01*
X167379780Y-76662671D01*
X167236922Y-76662671D01*
X167022637Y-76591242D01*
X166951208Y-76519814D01*
X166951208Y-76019814D01*
X167236922Y-76019814D01*
X166308351Y-76662671D02*
X166308351Y-75162671D01*
X165451208Y-76662671D01*
X165451208Y-75162671D01*
X164736922Y-76662671D02*
X164736922Y-75162671D01*
X164379780Y-75162671D01*
X164165494Y-75234100D01*
X164022637Y-75376957D01*
X163951208Y-75519814D01*
X163879780Y-75805528D01*
X163879780Y-76019814D01*
X163951208Y-76305528D01*
X164022637Y-76448385D01*
X164165494Y-76591242D01*
X164379780Y-76662671D01*
X164736922Y-76662671D01*
D12*
G04 #@! TO.C,10*
X138528840Y-93794860D02*
G75*
G03X139228840Y-94494860I700000J0D01*
G01*
X139228840Y-92494860D02*
G75*
G03X138528840Y-93194860I0J-700000D01*
G01*
X142628840Y-93194860D02*
G75*
G03X141928840Y-92494860I-700000J0D01*
G01*
X141928840Y-94494860D02*
G75*
G03X142628840Y-93794860I0J700000D01*
G01*
X139178840Y-94494860D02*
X141978840Y-94494860D01*
X142628840Y-93794860D02*
X142628840Y-93194860D01*
X141978840Y-92494860D02*
X139178840Y-92494860D01*
X138528840Y-93194860D02*
X138528840Y-93794860D01*
G04 #@! TO.C,8*
X138491220Y-88180900D02*
X138491220Y-88780900D01*
X141941220Y-87480900D02*
X139141220Y-87480900D01*
X142591220Y-88780900D02*
X142591220Y-88180900D01*
X139141220Y-89480900D02*
X141941220Y-89480900D01*
X141891220Y-89480900D02*
G75*
G03X142591220Y-88780900I0J700000D01*
G01*
X142591220Y-88180900D02*
G75*
G03X141891220Y-87480900I-700000J0D01*
G01*
X139191220Y-87480900D02*
G75*
G03X138491220Y-88180900I0J-700000D01*
G01*
X138491220Y-88780900D02*
G75*
G03X139191220Y-89480900I700000J0D01*
G01*
G04 #@! TO.C,14*
X138549640Y-102387120D02*
X138549640Y-102987120D01*
X141999640Y-101687120D02*
X139199640Y-101687120D01*
X142649640Y-102987120D02*
X142649640Y-102387120D01*
X139199640Y-103687120D02*
X141999640Y-103687120D01*
X141949640Y-103687120D02*
G75*
G03X142649640Y-102987120I0J700000D01*
G01*
X142649640Y-102387120D02*
G75*
G03X141949640Y-101687120I-700000J0D01*
G01*
X139249640Y-101687120D02*
G75*
G03X138549640Y-102387120I0J-700000D01*
G01*
X138549640Y-102987120D02*
G75*
G03X139249640Y-103687120I700000J0D01*
G01*
G04 #@! TO.C,16*
X138569480Y-106662500D02*
G75*
G03X139269480Y-107362500I700000J0D01*
G01*
X139269480Y-105362500D02*
G75*
G03X138569480Y-106062500I0J-700000D01*
G01*
X142669480Y-106062500D02*
G75*
G03X141969480Y-105362500I-700000J0D01*
G01*
X141969480Y-107362500D02*
G75*
G03X142669480Y-106662500I0J700000D01*
G01*
X139219480Y-107362500D02*
X142019480Y-107362500D01*
X142669480Y-106662500D02*
X142669480Y-106062500D01*
X142019480Y-105362500D02*
X139219480Y-105362500D01*
X138569480Y-106062500D02*
X138569480Y-106662500D01*
G04 #@! TO.C,12*
X138564880Y-97952280D02*
X138564880Y-98552280D01*
X142014880Y-97252280D02*
X139214880Y-97252280D01*
X142664880Y-98552280D02*
X142664880Y-97952280D01*
X139214880Y-99252280D02*
X142014880Y-99252280D01*
X141964880Y-99252280D02*
G75*
G03X142664880Y-98552280I0J700000D01*
G01*
X142664880Y-97952280D02*
G75*
G03X141964880Y-97252280I-700000J0D01*
G01*
X139264880Y-97252280D02*
G75*
G03X138564880Y-97952280I0J-700000D01*
G01*
X138564880Y-98552280D02*
G75*
G03X139264880Y-99252280I700000J0D01*
G01*
G04 #@! TO.C,J1*
X127314000Y-84776000D02*
X124714000Y-84776000D01*
X127314000Y-84776000D02*
X127314000Y-105216000D01*
X127314000Y-105216000D02*
X122114000Y-105216000D01*
X122114000Y-87376000D02*
X122114000Y-105216000D01*
X124714000Y-87376000D02*
X122114000Y-87376000D01*
X124714000Y-84776000D02*
X124714000Y-87376000D01*
X122114000Y-84776000D02*
X122114000Y-86106000D01*
X123444000Y-84776000D02*
X122114000Y-84776000D01*
G04 #@! TO.C,10*
D13*
X140812496Y-92052400D02*
X141383924Y-92052400D01*
X141098210Y-92052400D02*
X141098210Y-91052400D01*
X141193448Y-91195258D01*
X141288686Y-91290496D01*
X141383924Y-91338115D01*
X140193448Y-91052400D02*
X140098210Y-91052400D01*
X140002972Y-91100020D01*
X139955353Y-91147639D01*
X139907734Y-91242877D01*
X139860115Y-91433353D01*
X139860115Y-91671448D01*
X139907734Y-91861924D01*
X139955353Y-91957162D01*
X140002972Y-92004781D01*
X140098210Y-92052400D01*
X140193448Y-92052400D01*
X140288686Y-92004781D01*
X140336305Y-91957162D01*
X140383924Y-91861924D01*
X140431543Y-91671448D01*
X140431543Y-91433353D01*
X140383924Y-91242877D01*
X140336305Y-91147639D01*
X140288686Y-91100020D01*
X140193448Y-91052400D01*
X137907411Y-93423431D02*
X137764554Y-93471050D01*
X137716935Y-93518669D01*
X137669316Y-93613907D01*
X137669316Y-93756764D01*
X137716935Y-93852002D01*
X137764554Y-93899621D01*
X137859792Y-93947240D01*
X138240744Y-93947240D01*
X138240744Y-92947240D01*
X137907411Y-92947240D01*
X137812173Y-92994860D01*
X137764554Y-93042479D01*
X137716935Y-93137717D01*
X137716935Y-93232955D01*
X137764554Y-93328193D01*
X137812173Y-93375812D01*
X137907411Y-93423431D01*
X138240744Y-93423431D01*
X143440744Y-93947240D02*
X143440744Y-92947240D01*
X143202649Y-92947240D01*
X143059792Y-92994860D01*
X142964554Y-93090098D01*
X142916935Y-93185336D01*
X142869316Y-93375812D01*
X142869316Y-93518669D01*
X142916935Y-93709145D01*
X142964554Y-93804383D01*
X143059792Y-93899621D01*
X143202649Y-93947240D01*
X143440744Y-93947240D01*
G04 #@! TO.C,8*
X140669478Y-86426372D02*
X140764716Y-86378753D01*
X140812335Y-86331134D01*
X140859954Y-86235896D01*
X140859954Y-86188277D01*
X140812335Y-86093039D01*
X140764716Y-86045420D01*
X140669478Y-85997800D01*
X140479001Y-85997800D01*
X140383763Y-86045420D01*
X140336144Y-86093039D01*
X140288525Y-86188277D01*
X140288525Y-86235896D01*
X140336144Y-86331134D01*
X140383763Y-86378753D01*
X140479001Y-86426372D01*
X140669478Y-86426372D01*
X140764716Y-86473991D01*
X140812335Y-86521610D01*
X140859954Y-86616848D01*
X140859954Y-86807324D01*
X140812335Y-86902562D01*
X140764716Y-86950181D01*
X140669478Y-86997800D01*
X140479001Y-86997800D01*
X140383763Y-86950181D01*
X140336144Y-86902562D01*
X140288525Y-86807324D01*
X140288525Y-86616848D01*
X140336144Y-86521610D01*
X140383763Y-86473991D01*
X140479001Y-86426372D01*
X143069791Y-88409471D02*
X142926934Y-88457090D01*
X142879315Y-88504709D01*
X142831696Y-88599947D01*
X142831696Y-88742804D01*
X142879315Y-88838042D01*
X142926934Y-88885661D01*
X143022172Y-88933280D01*
X143403124Y-88933280D01*
X143403124Y-87933280D01*
X143069791Y-87933280D01*
X142974553Y-87980900D01*
X142926934Y-88028519D01*
X142879315Y-88123757D01*
X142879315Y-88218995D01*
X142926934Y-88314233D01*
X142974553Y-88361852D01*
X143069791Y-88409471D01*
X143403124Y-88409471D01*
X137503280Y-87716455D02*
X137455660Y-87621217D01*
X137455660Y-87478360D01*
X137503280Y-87335502D01*
X137598518Y-87240264D01*
X137693756Y-87192645D01*
X137884232Y-87145026D01*
X138027089Y-87145026D01*
X138217565Y-87192645D01*
X138312803Y-87240264D01*
X138408041Y-87335502D01*
X138455660Y-87478360D01*
X138455660Y-87573598D01*
X138408041Y-87716455D01*
X138360422Y-87764074D01*
X138027089Y-87764074D01*
X138027089Y-87573598D01*
X138455660Y-88192645D02*
X137455660Y-88192645D01*
X138455660Y-88764074D01*
X137455660Y-88764074D01*
X138455660Y-89240264D02*
X137455660Y-89240264D01*
X137455660Y-89478360D01*
X137503280Y-89621217D01*
X137598518Y-89716455D01*
X137693756Y-89764074D01*
X137884232Y-89811693D01*
X138027089Y-89811693D01*
X138217565Y-89764074D01*
X138312803Y-89716455D01*
X138408041Y-89621217D01*
X138455660Y-89478360D01*
X138455660Y-89240264D01*
G04 #@! TO.C,14*
X140823136Y-101318320D02*
X141394564Y-101318320D01*
X141108850Y-101318320D02*
X141108850Y-100318320D01*
X141204088Y-100461178D01*
X141299326Y-100556416D01*
X141394564Y-100604035D01*
X139965993Y-100651654D02*
X139965993Y-101318320D01*
X140204088Y-100270701D02*
X140442183Y-100984987D01*
X139823136Y-100984987D01*
X144973424Y-102220140D02*
X145068662Y-102172520D01*
X145211520Y-102172520D01*
X145354377Y-102220140D01*
X145449615Y-102315378D01*
X145497234Y-102410616D01*
X145544853Y-102601092D01*
X145544853Y-102743949D01*
X145497234Y-102934425D01*
X145449615Y-103029663D01*
X145354377Y-103124901D01*
X145211520Y-103172520D01*
X145116281Y-103172520D01*
X144973424Y-103124901D01*
X144925805Y-103077282D01*
X144925805Y-102743949D01*
X145116281Y-102743949D01*
X144497234Y-103172520D02*
X144497234Y-102172520D01*
X143925805Y-103172520D01*
X143925805Y-102172520D01*
X143449615Y-103172520D02*
X143449615Y-102172520D01*
X143211520Y-102172520D01*
X143068662Y-102220140D01*
X142973424Y-102315378D01*
X142925805Y-102410616D01*
X142878186Y-102601092D01*
X142878186Y-102743949D01*
X142925805Y-102934425D01*
X142973424Y-103029663D01*
X143068662Y-103124901D01*
X143211520Y-103172520D01*
X143449615Y-103172520D01*
X138466300Y-102187120D02*
X138466300Y-101710929D01*
X137466300Y-101710929D01*
X138180586Y-102472834D02*
X138180586Y-102949024D01*
X138466300Y-102377596D02*
X137466300Y-102710929D01*
X138466300Y-103044262D01*
X137466300Y-103234739D02*
X137466300Y-103806167D01*
X138466300Y-103520453D02*
X137466300Y-103520453D01*
G04 #@! TO.C,16*
X140870916Y-104955600D02*
X141442344Y-104955600D01*
X141156630Y-104955600D02*
X141156630Y-103955600D01*
X141251868Y-104098458D01*
X141347106Y-104193696D01*
X141442344Y-104241315D01*
X140013773Y-103955600D02*
X140204249Y-103955600D01*
X140299487Y-104003220D01*
X140347106Y-104050839D01*
X140442344Y-104193696D01*
X140489963Y-104384172D01*
X140489963Y-104765124D01*
X140442344Y-104860362D01*
X140394725Y-104907981D01*
X140299487Y-104955600D01*
X140109011Y-104955600D01*
X140013773Y-104907981D01*
X139966154Y-104860362D01*
X139918535Y-104765124D01*
X139918535Y-104527029D01*
X139966154Y-104431791D01*
X140013773Y-104384172D01*
X140109011Y-104336553D01*
X140299487Y-104336553D01*
X140394725Y-104384172D01*
X140442344Y-104431791D01*
X140489963Y-104527029D01*
X137519480Y-105600595D02*
X137471860Y-105505357D01*
X137471860Y-105362500D01*
X137519480Y-105219642D01*
X137614718Y-105124404D01*
X137709956Y-105076785D01*
X137900432Y-105029166D01*
X138043289Y-105029166D01*
X138233765Y-105076785D01*
X138329003Y-105124404D01*
X138424241Y-105219642D01*
X138471860Y-105362500D01*
X138471860Y-105457738D01*
X138424241Y-105600595D01*
X138376622Y-105648214D01*
X138043289Y-105648214D01*
X138043289Y-105457738D01*
X138471860Y-106076785D02*
X137471860Y-106076785D01*
X138471860Y-106648214D01*
X137471860Y-106648214D01*
X138471860Y-107124404D02*
X137471860Y-107124404D01*
X137471860Y-107362500D01*
X137519480Y-107505357D01*
X137614718Y-107600595D01*
X137709956Y-107648214D01*
X137900432Y-107695833D01*
X138043289Y-107695833D01*
X138233765Y-107648214D01*
X138329003Y-107600595D01*
X138424241Y-107505357D01*
X138471860Y-107362500D01*
X138471860Y-107124404D01*
X143808105Y-105946320D02*
X143903343Y-105898700D01*
X144046200Y-105898700D01*
X144189058Y-105946320D01*
X144284296Y-106041558D01*
X144331915Y-106136796D01*
X144379534Y-106327272D01*
X144379534Y-106470129D01*
X144331915Y-106660605D01*
X144284296Y-106755843D01*
X144189058Y-106851081D01*
X144046200Y-106898700D01*
X143950962Y-106898700D01*
X143808105Y-106851081D01*
X143760486Y-106803462D01*
X143760486Y-106470129D01*
X143950962Y-106470129D01*
X142808105Y-106898700D02*
X143379534Y-106898700D01*
X143093820Y-106898700D02*
X143093820Y-105898700D01*
X143189058Y-106041558D01*
X143284296Y-106136796D01*
X143379534Y-106184415D01*
G04 #@! TO.C,12*
X140748996Y-96832680D02*
X141320424Y-96832680D01*
X141034710Y-96832680D02*
X141034710Y-95832680D01*
X141129948Y-95975538D01*
X141225186Y-96070776D01*
X141320424Y-96118395D01*
X140368043Y-95927919D02*
X140320424Y-95880300D01*
X140225186Y-95832680D01*
X139987091Y-95832680D01*
X139891853Y-95880300D01*
X139844234Y-95927919D01*
X139796615Y-96023157D01*
X139796615Y-96118395D01*
X139844234Y-96261252D01*
X140415662Y-96832680D01*
X139796615Y-96832680D01*
X144487520Y-98658940D02*
X144963710Y-98658940D01*
X144963710Y-97658940D01*
X144201805Y-98373226D02*
X143725615Y-98373226D01*
X144297043Y-98658940D02*
X143963710Y-97658940D01*
X143630377Y-98658940D01*
X143439900Y-97658940D02*
X142868472Y-97658940D01*
X143154186Y-98658940D02*
X143154186Y-97658940D01*
X138276784Y-98704660D02*
X138276784Y-97704660D01*
X138038689Y-97704660D01*
X137895832Y-97752280D01*
X137800594Y-97847518D01*
X137752975Y-97942756D01*
X137705356Y-98133232D01*
X137705356Y-98276089D01*
X137752975Y-98466565D01*
X137800594Y-98561803D01*
X137895832Y-98657041D01*
X138038689Y-98704660D01*
X138276784Y-98704660D01*
G04 #@! TO.C,J1*
X125047333Y-106640380D02*
X125047333Y-107354666D01*
X125094952Y-107497523D01*
X125190190Y-107592761D01*
X125333047Y-107640380D01*
X125428285Y-107640380D01*
X124047333Y-107640380D02*
X124618761Y-107640380D01*
X124333047Y-107640380D02*
X124333047Y-106640380D01*
X124428285Y-106783238D01*
X124523523Y-106878476D01*
X124618761Y-106926095D01*
G04 #@! TD*
M02*
