G04 #@! TF.GenerationSoftware,KiCad,Pcbnew,5.0.2-bee76a0~70~ubuntu18.04.1*
G04 #@! TF.CreationDate,2020-08-06T15:01:45+02:00*
G04 #@! TF.ProjectId,panel_led_mod,70616e65-6c5f-46c6-9564-5f6d6f642e6b,rev?*
G04 #@! TF.SameCoordinates,Original*
G04 #@! TF.FileFunction,Copper,L2,Bot*
G04 #@! TF.FilePolarity,Positive*
%FSLAX46Y46*%
G04 Gerber Fmt 4.6, Leading zero omitted, Abs format (unit mm)*
G04 Created by KiCad (PCBNEW 5.0.2-bee76a0~70~ubuntu18.04.1) date jue 06 ago 2020 15:01:45 CEST*
%MOMM*%
%LPD*%
G01*
G04 APERTURE LIST*
G04 #@! TA.AperFunction,SMDPad,CuDef*
%ADD10R,1.000000X1.500000*%
G04 #@! TD*
G04 #@! TA.AperFunction,SMDPad,CuDef*
%ADD11C,0.500000*%
G04 #@! TD*
G04 #@! TA.AperFunction,Conductor*
%ADD12C,0.100000*%
G04 #@! TD*
G04 #@! TA.AperFunction,ComponentPad*
%ADD13R,1.560000X1.560000*%
G04 #@! TD*
G04 #@! TA.AperFunction,ComponentPad*
%ADD14C,1.560000*%
G04 #@! TD*
G04 #@! TA.AperFunction,ComponentPad*
%ADD15R,1.700000X1.700000*%
G04 #@! TD*
G04 #@! TA.AperFunction,ComponentPad*
%ADD16O,1.700000X1.700000*%
G04 #@! TD*
G04 #@! TA.AperFunction,ComponentPad*
%ADD17C,1.800000*%
G04 #@! TD*
G04 #@! TA.AperFunction,ComponentPad*
%ADD18O,3.600000X1.800000*%
G04 #@! TD*
G04 #@! TA.AperFunction,ViaPad*
%ADD19C,0.800000*%
G04 #@! TD*
G04 #@! TA.AperFunction,Conductor*
%ADD20C,0.250000*%
G04 #@! TD*
G04 #@! TA.AperFunction,Conductor*
%ADD21C,0.500000*%
G04 #@! TD*
G04 #@! TA.AperFunction,Conductor*
%ADD22C,0.254000*%
G04 #@! TD*
G04 APERTURE END LIST*
D10*
G04 #@! TO.P,10,2*
G04 #@! TO.N,N/C*
X140578840Y-93494860D03*
D11*
G04 #@! TO.P,10,3*
G04 #@! TO.N,D*
X141878840Y-93494860D03*
D12*
G04 #@! TD*
G04 #@! TO.N,D*
G04 #@! TO.C,10*
G36*
X141878840Y-92745462D02*
X141903374Y-92745462D01*
X141952205Y-92750272D01*
X142000330Y-92759844D01*
X142047285Y-92774088D01*
X142092618Y-92792865D01*
X142135891Y-92815996D01*
X142176690Y-92843256D01*
X142214619Y-92874384D01*
X142249316Y-92909081D01*
X142280444Y-92947010D01*
X142307704Y-92987809D01*
X142330835Y-93031082D01*
X142349612Y-93076415D01*
X142363856Y-93123370D01*
X142373428Y-93171495D01*
X142378238Y-93220326D01*
X142378238Y-93244860D01*
X142378840Y-93244860D01*
X142378840Y-93744860D01*
X142378238Y-93744860D01*
X142378238Y-93769394D01*
X142373428Y-93818225D01*
X142363856Y-93866350D01*
X142349612Y-93913305D01*
X142330835Y-93958638D01*
X142307704Y-94001911D01*
X142280444Y-94042710D01*
X142249316Y-94080639D01*
X142214619Y-94115336D01*
X142176690Y-94146464D01*
X142135891Y-94173724D01*
X142092618Y-94196855D01*
X142047285Y-94215632D01*
X142000330Y-94229876D01*
X141952205Y-94239448D01*
X141903374Y-94244258D01*
X141878840Y-94244258D01*
X141878840Y-94244860D01*
X141328840Y-94244860D01*
X141328840Y-92744860D01*
X141878840Y-92744860D01*
X141878840Y-92745462D01*
X141878840Y-92745462D01*
G37*
D11*
G04 #@! TO.P,10,1*
G04 #@! TO.N,B*
X139278840Y-93494860D03*
D12*
G04 #@! TD*
G04 #@! TO.N,B*
G04 #@! TO.C,10*
G36*
X139828840Y-94244860D02*
X139278840Y-94244860D01*
X139278840Y-94244258D01*
X139254306Y-94244258D01*
X139205475Y-94239448D01*
X139157350Y-94229876D01*
X139110395Y-94215632D01*
X139065062Y-94196855D01*
X139021789Y-94173724D01*
X138980990Y-94146464D01*
X138943061Y-94115336D01*
X138908364Y-94080639D01*
X138877236Y-94042710D01*
X138849976Y-94001911D01*
X138826845Y-93958638D01*
X138808068Y-93913305D01*
X138793824Y-93866350D01*
X138784252Y-93818225D01*
X138779442Y-93769394D01*
X138779442Y-93744860D01*
X138778840Y-93744860D01*
X138778840Y-93244860D01*
X138779442Y-93244860D01*
X138779442Y-93220326D01*
X138784252Y-93171495D01*
X138793824Y-93123370D01*
X138808068Y-93076415D01*
X138826845Y-93031082D01*
X138849976Y-92987809D01*
X138877236Y-92947010D01*
X138908364Y-92909081D01*
X138943061Y-92874384D01*
X138980990Y-92843256D01*
X139021789Y-92815996D01*
X139065062Y-92792865D01*
X139110395Y-92774088D01*
X139157350Y-92759844D01*
X139205475Y-92750272D01*
X139254306Y-92745462D01*
X139278840Y-92745462D01*
X139278840Y-92744860D01*
X139828840Y-92744860D01*
X139828840Y-94244860D01*
X139828840Y-94244860D01*
G37*
D11*
G04 #@! TO.P,8,1*
G04 #@! TO.N,GND*
X139241220Y-88480900D03*
D12*
G04 #@! TD*
G04 #@! TO.N,GND*
G04 #@! TO.C,8*
G36*
X139791220Y-89230900D02*
X139241220Y-89230900D01*
X139241220Y-89230298D01*
X139216686Y-89230298D01*
X139167855Y-89225488D01*
X139119730Y-89215916D01*
X139072775Y-89201672D01*
X139027442Y-89182895D01*
X138984169Y-89159764D01*
X138943370Y-89132504D01*
X138905441Y-89101376D01*
X138870744Y-89066679D01*
X138839616Y-89028750D01*
X138812356Y-88987951D01*
X138789225Y-88944678D01*
X138770448Y-88899345D01*
X138756204Y-88852390D01*
X138746632Y-88804265D01*
X138741822Y-88755434D01*
X138741822Y-88730900D01*
X138741220Y-88730900D01*
X138741220Y-88230900D01*
X138741822Y-88230900D01*
X138741822Y-88206366D01*
X138746632Y-88157535D01*
X138756204Y-88109410D01*
X138770448Y-88062455D01*
X138789225Y-88017122D01*
X138812356Y-87973849D01*
X138839616Y-87933050D01*
X138870744Y-87895121D01*
X138905441Y-87860424D01*
X138943370Y-87829296D01*
X138984169Y-87802036D01*
X139027442Y-87778905D01*
X139072775Y-87760128D01*
X139119730Y-87745884D01*
X139167855Y-87736312D01*
X139216686Y-87731502D01*
X139241220Y-87731502D01*
X139241220Y-87730900D01*
X139791220Y-87730900D01*
X139791220Y-89230900D01*
X139791220Y-89230900D01*
G37*
D11*
G04 #@! TO.P,8,3*
G04 #@! TO.N,B*
X141841220Y-88480900D03*
D12*
G04 #@! TD*
G04 #@! TO.N,B*
G04 #@! TO.C,8*
G36*
X141841220Y-87731502D02*
X141865754Y-87731502D01*
X141914585Y-87736312D01*
X141962710Y-87745884D01*
X142009665Y-87760128D01*
X142054998Y-87778905D01*
X142098271Y-87802036D01*
X142139070Y-87829296D01*
X142176999Y-87860424D01*
X142211696Y-87895121D01*
X142242824Y-87933050D01*
X142270084Y-87973849D01*
X142293215Y-88017122D01*
X142311992Y-88062455D01*
X142326236Y-88109410D01*
X142335808Y-88157535D01*
X142340618Y-88206366D01*
X142340618Y-88230900D01*
X142341220Y-88230900D01*
X142341220Y-88730900D01*
X142340618Y-88730900D01*
X142340618Y-88755434D01*
X142335808Y-88804265D01*
X142326236Y-88852390D01*
X142311992Y-88899345D01*
X142293215Y-88944678D01*
X142270084Y-88987951D01*
X142242824Y-89028750D01*
X142211696Y-89066679D01*
X142176999Y-89101376D01*
X142139070Y-89132504D01*
X142098271Y-89159764D01*
X142054998Y-89182895D01*
X142009665Y-89201672D01*
X141962710Y-89215916D01*
X141914585Y-89225488D01*
X141865754Y-89230298D01*
X141841220Y-89230298D01*
X141841220Y-89230900D01*
X141291220Y-89230900D01*
X141291220Y-87730900D01*
X141841220Y-87730900D01*
X141841220Y-87731502D01*
X141841220Y-87731502D01*
G37*
D10*
G04 #@! TO.P,8,2*
G04 #@! TO.N,N/C*
X140541220Y-88480900D03*
G04 #@! TD*
D11*
G04 #@! TO.P,14,1*
G04 #@! TO.N,LAT*
X139299640Y-102687120D03*
D12*
G04 #@! TD*
G04 #@! TO.N,LAT*
G04 #@! TO.C,14*
G36*
X139849640Y-103437120D02*
X139299640Y-103437120D01*
X139299640Y-103436518D01*
X139275106Y-103436518D01*
X139226275Y-103431708D01*
X139178150Y-103422136D01*
X139131195Y-103407892D01*
X139085862Y-103389115D01*
X139042589Y-103365984D01*
X139001790Y-103338724D01*
X138963861Y-103307596D01*
X138929164Y-103272899D01*
X138898036Y-103234970D01*
X138870776Y-103194171D01*
X138847645Y-103150898D01*
X138828868Y-103105565D01*
X138814624Y-103058610D01*
X138805052Y-103010485D01*
X138800242Y-102961654D01*
X138800242Y-102937120D01*
X138799640Y-102937120D01*
X138799640Y-102437120D01*
X138800242Y-102437120D01*
X138800242Y-102412586D01*
X138805052Y-102363755D01*
X138814624Y-102315630D01*
X138828868Y-102268675D01*
X138847645Y-102223342D01*
X138870776Y-102180069D01*
X138898036Y-102139270D01*
X138929164Y-102101341D01*
X138963861Y-102066644D01*
X139001790Y-102035516D01*
X139042589Y-102008256D01*
X139085862Y-101985125D01*
X139131195Y-101966348D01*
X139178150Y-101952104D01*
X139226275Y-101942532D01*
X139275106Y-101937722D01*
X139299640Y-101937722D01*
X139299640Y-101937120D01*
X139849640Y-101937120D01*
X139849640Y-103437120D01*
X139849640Y-103437120D01*
G37*
D11*
G04 #@! TO.P,14,3*
G04 #@! TO.N,GND*
X141899640Y-102687120D03*
D12*
G04 #@! TD*
G04 #@! TO.N,GND*
G04 #@! TO.C,14*
G36*
X141899640Y-101937722D02*
X141924174Y-101937722D01*
X141973005Y-101942532D01*
X142021130Y-101952104D01*
X142068085Y-101966348D01*
X142113418Y-101985125D01*
X142156691Y-102008256D01*
X142197490Y-102035516D01*
X142235419Y-102066644D01*
X142270116Y-102101341D01*
X142301244Y-102139270D01*
X142328504Y-102180069D01*
X142351635Y-102223342D01*
X142370412Y-102268675D01*
X142384656Y-102315630D01*
X142394228Y-102363755D01*
X142399038Y-102412586D01*
X142399038Y-102437120D01*
X142399640Y-102437120D01*
X142399640Y-102937120D01*
X142399038Y-102937120D01*
X142399038Y-102961654D01*
X142394228Y-103010485D01*
X142384656Y-103058610D01*
X142370412Y-103105565D01*
X142351635Y-103150898D01*
X142328504Y-103194171D01*
X142301244Y-103234970D01*
X142270116Y-103272899D01*
X142235419Y-103307596D01*
X142197490Y-103338724D01*
X142156691Y-103365984D01*
X142113418Y-103389115D01*
X142068085Y-103407892D01*
X142021130Y-103422136D01*
X141973005Y-103431708D01*
X141924174Y-103436518D01*
X141899640Y-103436518D01*
X141899640Y-103437120D01*
X141349640Y-103437120D01*
X141349640Y-101937120D01*
X141899640Y-101937120D01*
X141899640Y-101937722D01*
X141899640Y-101937722D01*
G37*
D10*
G04 #@! TO.P,14,2*
G04 #@! TO.N,N/C*
X140599640Y-102687120D03*
G04 #@! TD*
G04 #@! TO.P,16,2*
G04 #@! TO.N,N/C*
X140619480Y-106362500D03*
D11*
G04 #@! TO.P,16,3*
G04 #@! TO.N,G1*
X141919480Y-106362500D03*
D12*
G04 #@! TD*
G04 #@! TO.N,G1*
G04 #@! TO.C,16*
G36*
X141919480Y-105613102D02*
X141944014Y-105613102D01*
X141992845Y-105617912D01*
X142040970Y-105627484D01*
X142087925Y-105641728D01*
X142133258Y-105660505D01*
X142176531Y-105683636D01*
X142217330Y-105710896D01*
X142255259Y-105742024D01*
X142289956Y-105776721D01*
X142321084Y-105814650D01*
X142348344Y-105855449D01*
X142371475Y-105898722D01*
X142390252Y-105944055D01*
X142404496Y-105991010D01*
X142414068Y-106039135D01*
X142418878Y-106087966D01*
X142418878Y-106112500D01*
X142419480Y-106112500D01*
X142419480Y-106612500D01*
X142418878Y-106612500D01*
X142418878Y-106637034D01*
X142414068Y-106685865D01*
X142404496Y-106733990D01*
X142390252Y-106780945D01*
X142371475Y-106826278D01*
X142348344Y-106869551D01*
X142321084Y-106910350D01*
X142289956Y-106948279D01*
X142255259Y-106982976D01*
X142217330Y-107014104D01*
X142176531Y-107041364D01*
X142133258Y-107064495D01*
X142087925Y-107083272D01*
X142040970Y-107097516D01*
X141992845Y-107107088D01*
X141944014Y-107111898D01*
X141919480Y-107111898D01*
X141919480Y-107112500D01*
X141369480Y-107112500D01*
X141369480Y-105612500D01*
X141919480Y-105612500D01*
X141919480Y-105613102D01*
X141919480Y-105613102D01*
G37*
D11*
G04 #@! TO.P,16,1*
G04 #@! TO.N,GND*
X139319480Y-106362500D03*
D12*
G04 #@! TD*
G04 #@! TO.N,GND*
G04 #@! TO.C,16*
G36*
X139869480Y-107112500D02*
X139319480Y-107112500D01*
X139319480Y-107111898D01*
X139294946Y-107111898D01*
X139246115Y-107107088D01*
X139197990Y-107097516D01*
X139151035Y-107083272D01*
X139105702Y-107064495D01*
X139062429Y-107041364D01*
X139021630Y-107014104D01*
X138983701Y-106982976D01*
X138949004Y-106948279D01*
X138917876Y-106910350D01*
X138890616Y-106869551D01*
X138867485Y-106826278D01*
X138848708Y-106780945D01*
X138834464Y-106733990D01*
X138824892Y-106685865D01*
X138820082Y-106637034D01*
X138820082Y-106612500D01*
X138819480Y-106612500D01*
X138819480Y-106112500D01*
X138820082Y-106112500D01*
X138820082Y-106087966D01*
X138824892Y-106039135D01*
X138834464Y-105991010D01*
X138848708Y-105944055D01*
X138867485Y-105898722D01*
X138890616Y-105855449D01*
X138917876Y-105814650D01*
X138949004Y-105776721D01*
X138983701Y-105742024D01*
X139021630Y-105710896D01*
X139062429Y-105683636D01*
X139105702Y-105660505D01*
X139151035Y-105641728D01*
X139197990Y-105627484D01*
X139246115Y-105617912D01*
X139294946Y-105613102D01*
X139319480Y-105613102D01*
X139319480Y-105612500D01*
X139869480Y-105612500D01*
X139869480Y-107112500D01*
X139869480Y-107112500D01*
G37*
D11*
G04 #@! TO.P,12,1*
G04 #@! TO.N,D*
X139314880Y-98252280D03*
D12*
G04 #@! TD*
G04 #@! TO.N,D*
G04 #@! TO.C,12*
G36*
X139864880Y-99002280D02*
X139314880Y-99002280D01*
X139314880Y-99001678D01*
X139290346Y-99001678D01*
X139241515Y-98996868D01*
X139193390Y-98987296D01*
X139146435Y-98973052D01*
X139101102Y-98954275D01*
X139057829Y-98931144D01*
X139017030Y-98903884D01*
X138979101Y-98872756D01*
X138944404Y-98838059D01*
X138913276Y-98800130D01*
X138886016Y-98759331D01*
X138862885Y-98716058D01*
X138844108Y-98670725D01*
X138829864Y-98623770D01*
X138820292Y-98575645D01*
X138815482Y-98526814D01*
X138815482Y-98502280D01*
X138814880Y-98502280D01*
X138814880Y-98002280D01*
X138815482Y-98002280D01*
X138815482Y-97977746D01*
X138820292Y-97928915D01*
X138829864Y-97880790D01*
X138844108Y-97833835D01*
X138862885Y-97788502D01*
X138886016Y-97745229D01*
X138913276Y-97704430D01*
X138944404Y-97666501D01*
X138979101Y-97631804D01*
X139017030Y-97600676D01*
X139057829Y-97573416D01*
X139101102Y-97550285D01*
X139146435Y-97531508D01*
X139193390Y-97517264D01*
X139241515Y-97507692D01*
X139290346Y-97502882D01*
X139314880Y-97502882D01*
X139314880Y-97502280D01*
X139864880Y-97502280D01*
X139864880Y-99002280D01*
X139864880Y-99002280D01*
G37*
D11*
G04 #@! TO.P,12,3*
G04 #@! TO.N,LAT*
X141914880Y-98252280D03*
D12*
G04 #@! TD*
G04 #@! TO.N,LAT*
G04 #@! TO.C,12*
G36*
X141914880Y-97502882D02*
X141939414Y-97502882D01*
X141988245Y-97507692D01*
X142036370Y-97517264D01*
X142083325Y-97531508D01*
X142128658Y-97550285D01*
X142171931Y-97573416D01*
X142212730Y-97600676D01*
X142250659Y-97631804D01*
X142285356Y-97666501D01*
X142316484Y-97704430D01*
X142343744Y-97745229D01*
X142366875Y-97788502D01*
X142385652Y-97833835D01*
X142399896Y-97880790D01*
X142409468Y-97928915D01*
X142414278Y-97977746D01*
X142414278Y-98002280D01*
X142414880Y-98002280D01*
X142414880Y-98502280D01*
X142414278Y-98502280D01*
X142414278Y-98526814D01*
X142409468Y-98575645D01*
X142399896Y-98623770D01*
X142385652Y-98670725D01*
X142366875Y-98716058D01*
X142343744Y-98759331D01*
X142316484Y-98800130D01*
X142285356Y-98838059D01*
X142250659Y-98872756D01*
X142212730Y-98903884D01*
X142171931Y-98931144D01*
X142128658Y-98954275D01*
X142083325Y-98973052D01*
X142036370Y-98987296D01*
X141988245Y-98996868D01*
X141939414Y-99001678D01*
X141914880Y-99001678D01*
X141914880Y-99002280D01*
X141364880Y-99002280D01*
X141364880Y-97502280D01*
X141914880Y-97502280D01*
X141914880Y-97502882D01*
X141914880Y-97502882D01*
G37*
D10*
G04 #@! TO.P,12,2*
G04 #@! TO.N,N/C*
X140614880Y-98252280D03*
G04 #@! TD*
D13*
G04 #@! TO.P,U1,1*
G04 #@! TO.N,+3V3*
X136550400Y-75947200D03*
D14*
G04 #@! TO.P,U1,2*
G04 #@! TO.N,N/C*
X136550400Y-78487200D03*
G04 #@! TO.P,U1,19*
G04 #@! TO.N,Net-(D1-Pad1)*
X136550400Y-121667200D03*
G04 #@! TO.P,U1,3*
G04 #@! TO.N,N/C*
X136550400Y-81027200D03*
G04 #@! TO.P,U1,4*
X136550400Y-83567200D03*
G04 #@! TO.P,U1,5*
G04 #@! TO.N,GPIO34*
X136550400Y-86107200D03*
G04 #@! TO.P,U1,6*
G04 #@! TO.N,GPIO25*
X136550400Y-88647200D03*
G04 #@! TO.P,U1,7*
G04 #@! TO.N,GPIO32*
X136550400Y-91187200D03*
G04 #@! TO.P,U1,8*
G04 #@! TO.N,GPIO33*
X136550400Y-93727200D03*
G04 #@! TO.P,U1,9*
G04 #@! TO.N,DE*
X136550400Y-96267200D03*
G04 #@! TO.P,U1,10*
G04 #@! TO.N,LAT*
X136550400Y-98807200D03*
G04 #@! TO.P,U1,11*
G04 #@! TO.N,G2*
X136550400Y-101347200D03*
G04 #@! TO.P,U1,12*
G04 #@! TO.N,GPIO14*
X136550400Y-103887200D03*
G04 #@! TO.P,U1,13*
G04 #@! TO.N,GPIO12*
X136550400Y-106427200D03*
G04 #@! TO.P,U1,14*
G04 #@! TO.N,GND*
X136550400Y-108967200D03*
G04 #@! TO.P,U1,15*
G04 #@! TO.N,GPIO13*
X136550400Y-111507200D03*
G04 #@! TO.P,U1,16*
G04 #@! TO.N,N/C*
X136550400Y-114047200D03*
G04 #@! TO.P,U1,17*
X136550400Y-116587200D03*
G04 #@! TO.P,U1,18*
X136550400Y-119127200D03*
G04 #@! TO.P,U1,20*
G04 #@! TO.N,GND*
X161950400Y-75947200D03*
G04 #@! TO.P,U1,21*
G04 #@! TO.N,GPIO23*
X161950400Y-78487200D03*
G04 #@! TO.P,U1,22*
G04 #@! TO.N,CLK*
X161950400Y-81027200D03*
G04 #@! TO.P,U1,23*
G04 #@! TO.N,TXD*
X161950400Y-83567200D03*
G04 #@! TO.P,U1,24*
G04 #@! TO.N,RXD*
X161950400Y-86107200D03*
G04 #@! TO.P,U1,25*
G04 #@! TO.N,D*
X161950400Y-88647200D03*
G04 #@! TO.P,U1,26*
G04 #@! TO.N,GND*
X161950400Y-91187200D03*
G04 #@! TO.P,U1,27*
G04 #@! TO.N,C*
X161950400Y-93727200D03*
G04 #@! TO.P,U1,28*
G04 #@! TO.N,B*
X161950400Y-96267200D03*
G04 #@! TO.P,U1,29*
G04 #@! TO.N,A*
X161950400Y-98807200D03*
G04 #@! TO.P,U1,30*
G04 #@! TO.N,B2*
X161950400Y-101347200D03*
G04 #@! TO.P,U1,31*
G04 #@! TO.N,R2*
X161950400Y-103887200D03*
G04 #@! TO.P,U1,32*
G04 #@! TO.N,B1*
X161950400Y-106427200D03*
G04 #@! TO.P,U1,33*
G04 #@! TO.N,GPIO0*
X161950400Y-108967200D03*
G04 #@! TO.P,U1,34*
G04 #@! TO.N,R1*
X161950400Y-111507200D03*
G04 #@! TO.P,U1,35*
G04 #@! TO.N,G1*
X161950400Y-114047200D03*
G04 #@! TO.P,U1,36*
G04 #@! TO.N,N/C*
X161950400Y-116587200D03*
G04 #@! TO.P,U1,37*
X161950400Y-119127200D03*
G04 #@! TO.P,U1,38*
X161950400Y-121667200D03*
G04 #@! TD*
D15*
G04 #@! TO.P,J1,1*
G04 #@! TO.N,R1*
X123444000Y-86106000D03*
D16*
G04 #@! TO.P,J1,2*
G04 #@! TO.N,G1*
X125984000Y-86106000D03*
G04 #@! TO.P,J1,3*
G04 #@! TO.N,B1*
X123444000Y-88646000D03*
G04 #@! TO.P,J1,4*
G04 #@! TO.N,GND*
X125984000Y-88646000D03*
G04 #@! TO.P,J1,5*
G04 #@! TO.N,R2*
X123444000Y-91186000D03*
G04 #@! TO.P,J1,6*
G04 #@! TO.N,G2*
X125984000Y-91186000D03*
G04 #@! TO.P,J1,7*
G04 #@! TO.N,B2*
X123444000Y-93726000D03*
G04 #@! TO.P,J1,8*
G04 #@! TO.N,N/C*
X125984000Y-93726000D03*
G04 #@! TO.P,J1,9*
G04 #@! TO.N,A*
X123444000Y-96266000D03*
G04 #@! TO.P,J1,10*
G04 #@! TO.N,N/C*
X125984000Y-96266000D03*
G04 #@! TO.P,J1,11*
G04 #@! TO.N,C*
X123444000Y-98806000D03*
G04 #@! TO.P,J1,12*
G04 #@! TO.N,N/C*
X125984000Y-98806000D03*
G04 #@! TO.P,J1,13*
G04 #@! TO.N,CLK*
X123444000Y-101346000D03*
G04 #@! TO.P,J1,14*
G04 #@! TO.N,N/C*
X125984000Y-101346000D03*
G04 #@! TO.P,J1,15*
G04 #@! TO.N,DE*
X123444000Y-103886000D03*
G04 #@! TO.P,J1,16*
G04 #@! TO.N,N/C*
X125984000Y-103886000D03*
G04 #@! TD*
G04 #@! TO.P,J2,14*
G04 #@! TO.N,+3V3*
X173228000Y-87477600D03*
G04 #@! TO.P,J2,13*
G04 #@! TO.N,GPIO34*
X175768000Y-87477600D03*
G04 #@! TO.P,J2,12*
G04 #@! TO.N,GPIO33*
X173228000Y-90017600D03*
G04 #@! TO.P,J2,11*
G04 #@! TO.N,GPIO32*
X175768000Y-90017600D03*
G04 #@! TO.P,J2,10*
G04 #@! TO.N,GPIO25*
X173228000Y-92557600D03*
G04 #@! TO.P,J2,9*
G04 #@! TO.N,GPIO23*
X175768000Y-92557600D03*
G04 #@! TO.P,J2,8*
G04 #@! TO.N,GPIO14*
X173228000Y-95097600D03*
G04 #@! TO.P,J2,7*
G04 #@! TO.N,GPIO13*
X175768000Y-95097600D03*
G04 #@! TO.P,J2,6*
G04 #@! TO.N,GPIO12*
X173228000Y-97637600D03*
G04 #@! TO.P,J2,5*
G04 #@! TO.N,GPIO0*
X175768000Y-97637600D03*
G04 #@! TO.P,J2,4*
G04 #@! TO.N,RXD*
X173228000Y-100177600D03*
G04 #@! TO.P,J2,3*
G04 #@! TO.N,TXD*
X175768000Y-100177600D03*
G04 #@! TO.P,J2,2*
G04 #@! TO.N,+5V*
X173228000Y-102717600D03*
D15*
G04 #@! TO.P,J2,1*
G04 #@! TO.N,GND*
X175768000Y-102717600D03*
G04 #@! TD*
D12*
G04 #@! TO.N,+5V*
G04 #@! TO.C,J3*
G36*
X176712584Y-108069744D02*
X176736853Y-108073344D01*
X176760651Y-108079305D01*
X176783751Y-108087570D01*
X176805929Y-108098060D01*
X176826973Y-108110673D01*
X176846678Y-108125287D01*
X176864857Y-108141763D01*
X176881333Y-108159942D01*
X176895947Y-108179647D01*
X176908560Y-108200691D01*
X176919050Y-108222869D01*
X176927315Y-108245969D01*
X176933276Y-108269767D01*
X176936876Y-108294036D01*
X176938080Y-108318540D01*
X176938080Y-109618540D01*
X176936876Y-109643044D01*
X176933276Y-109667313D01*
X176927315Y-109691111D01*
X176919050Y-109714211D01*
X176908560Y-109736389D01*
X176895947Y-109757433D01*
X176881333Y-109777138D01*
X176864857Y-109795317D01*
X176846678Y-109811793D01*
X176826973Y-109826407D01*
X176805929Y-109839020D01*
X176783751Y-109849510D01*
X176760651Y-109857775D01*
X176736853Y-109863736D01*
X176712584Y-109867336D01*
X176688080Y-109868540D01*
X173588080Y-109868540D01*
X173563576Y-109867336D01*
X173539307Y-109863736D01*
X173515509Y-109857775D01*
X173492409Y-109849510D01*
X173470231Y-109839020D01*
X173449187Y-109826407D01*
X173429482Y-109811793D01*
X173411303Y-109795317D01*
X173394827Y-109777138D01*
X173380213Y-109757433D01*
X173367600Y-109736389D01*
X173357110Y-109714211D01*
X173348845Y-109691111D01*
X173342884Y-109667313D01*
X173339284Y-109643044D01*
X173338080Y-109618540D01*
X173338080Y-108318540D01*
X173339284Y-108294036D01*
X173342884Y-108269767D01*
X173348845Y-108245969D01*
X173357110Y-108222869D01*
X173367600Y-108200691D01*
X173380213Y-108179647D01*
X173394827Y-108159942D01*
X173411303Y-108141763D01*
X173429482Y-108125287D01*
X173449187Y-108110673D01*
X173470231Y-108098060D01*
X173492409Y-108087570D01*
X173515509Y-108079305D01*
X173539307Y-108073344D01*
X173563576Y-108069744D01*
X173588080Y-108068540D01*
X176688080Y-108068540D01*
X176712584Y-108069744D01*
X176712584Y-108069744D01*
G37*
D17*
G04 #@! TD*
G04 #@! TO.P,J3,1*
G04 #@! TO.N,+5V*
X175138080Y-108968540D03*
D18*
G04 #@! TO.P,J3,2*
G04 #@! TO.N,GND*
X175138080Y-112468540D03*
G04 #@! TD*
D19*
G04 #@! TO.N,GND*
X138196320Y-105519220D03*
X141714220Y-101127560D03*
X139374880Y-86883240D03*
X133197600Y-98877120D03*
X130469640Y-98841560D03*
G04 #@! TO.N,+5V*
X156565600Y-121666000D03*
G04 #@! TO.N,RXD*
X164490400Y-94945200D03*
G04 #@! TO.N,GPIO12*
X164642800Y-107696000D03*
X156718000Y-108204000D03*
G04 #@! TO.N,GPIO13*
X159816800Y-110286800D03*
G04 #@! TO.N,GPIO14*
X165465760Y-102616000D03*
G04 #@! TO.N,GPIO25*
X157581600Y-92456000D03*
G04 #@! TO.N,GPIO32*
X156964380Y-89916000D03*
G04 #@! TO.N,GPIO33*
X170637200Y-87325200D03*
X155039060Y-90835480D03*
G04 #@! TO.N,GPIO34*
X155067000Y-84846160D03*
G04 #@! TO.N,+3V3*
X170688000Y-85953600D03*
X170688000Y-82397600D03*
G04 #@! TO.N,GPIO0*
X168554400Y-107696000D03*
G04 #@! TO.N,R1*
X140665200Y-110236000D03*
X156718000Y-111506000D03*
G04 #@! TO.N,G1*
X158750000Y-106375200D03*
X143522700Y-105156000D03*
X134180580Y-105128060D03*
G04 #@! TO.N,B1*
X145402300Y-107685840D03*
G04 #@! TO.N,R2*
X156718000Y-106273600D03*
X134167880Y-106603800D03*
G04 #@! TO.N,B*
X138242040Y-94256860D03*
X141772640Y-91597480D03*
X155486100Y-96291400D03*
G04 #@! TO.N,A*
X133469380Y-94137480D03*
X155463240Y-98173540D03*
G04 #@! TO.N,D*
X144612360Y-93538040D03*
X139410440Y-96636840D03*
G04 #@! TO.N,LAT*
X143291560Y-98978720D03*
X139252960Y-101158040D03*
G04 #@! TO.N,CLK*
X157553660Y-94696280D03*
G04 #@! TO.N,DE*
X134061200Y-100838000D03*
X129796540Y-101340920D03*
G04 #@! TD*
D20*
G04 #@! TO.N,*
X126118620Y-103751380D02*
X125984000Y-103886000D01*
X126033600Y-98807200D02*
X125984000Y-98856800D01*
X127259080Y-102621080D02*
X127182880Y-102544880D01*
X137754360Y-102621080D02*
X127259080Y-102621080D01*
X138226800Y-102148640D02*
X137754360Y-102621080D01*
X127182880Y-102544880D02*
X125984000Y-101346000D01*
X138226800Y-100721160D02*
X138226800Y-102148640D01*
X140185140Y-100276660D02*
X138671300Y-100276660D01*
X138671300Y-100276660D02*
X138226800Y-100721160D01*
X138117580Y-97104200D02*
X138112500Y-97104200D01*
X140571220Y-92097860D02*
X140571220Y-92487240D01*
X140571220Y-92487240D02*
X140578840Y-92494860D01*
X138315700Y-91660980D02*
X140134340Y-91660980D01*
X135150860Y-92463620D02*
X137513060Y-92463620D01*
X137513060Y-92463620D02*
X138315700Y-91660980D01*
X125984000Y-96266000D02*
X127886460Y-96266000D01*
X134635240Y-92979240D02*
X135150860Y-92463620D01*
X140134340Y-91660980D02*
X140571220Y-92097860D01*
X128508760Y-95643700D02*
X133731000Y-95643700D01*
X140578840Y-92494860D02*
X140578840Y-93494860D01*
X133731000Y-95643700D02*
X134635240Y-94739460D01*
X127886460Y-96266000D02*
X128508760Y-95643700D01*
X134635240Y-94739460D02*
X134635240Y-92979240D01*
X137721340Y-97513140D02*
X138117580Y-97116900D01*
X129788920Y-97513140D02*
X137721340Y-97513140D01*
X128496060Y-98806000D02*
X129788920Y-97513140D01*
X138117580Y-97116900D02*
X138117580Y-97104200D01*
X125984000Y-98806000D02*
X128496060Y-98806000D01*
X138117580Y-96370140D02*
X138117580Y-97104200D01*
X138117580Y-96217740D02*
X138117580Y-96370140D01*
X140103860Y-95841820D02*
X138493500Y-95841820D01*
X138493500Y-95841820D02*
X138117580Y-96217740D01*
X132966460Y-92415360D02*
X127294640Y-92415360D01*
X135450580Y-89931240D02*
X132966460Y-92415360D01*
X140147040Y-89931240D02*
X135450580Y-89931240D01*
X140541220Y-88480900D02*
X140541220Y-89537060D01*
X127294640Y-92415360D02*
X125984000Y-93726000D01*
X140541220Y-89537060D02*
X140147040Y-89931240D01*
X140472160Y-100563680D02*
X140185140Y-100276660D01*
X140352780Y-100444300D02*
X140185140Y-100276660D01*
X140599640Y-102687120D02*
X140599640Y-100691160D01*
X140599640Y-100691160D02*
X140352780Y-100444300D01*
X140614880Y-97252280D02*
X140614400Y-97251800D01*
X140614880Y-98252280D02*
X140614880Y-97252280D01*
X140614400Y-96352360D02*
X140103860Y-95841820D01*
X140614400Y-97251800D02*
X140614400Y-96352360D01*
X140619480Y-105112820D02*
X140619480Y-106362500D01*
X125984000Y-103886000D02*
X134325360Y-103886000D01*
X134325360Y-103886000D02*
X135575040Y-105135680D01*
X140187680Y-104681020D02*
X140619480Y-105112820D01*
X135575040Y-105135680D02*
X137330180Y-105135680D01*
X137330180Y-105135680D02*
X137784840Y-104681020D01*
X137784840Y-104681020D02*
X140187680Y-104681020D01*
G04 #@! TO.N,GND*
X141714220Y-102629180D02*
X141828040Y-102743000D01*
X139232640Y-88171500D02*
X139195020Y-88209120D01*
X141714220Y-102583460D02*
X141774700Y-102643940D01*
X139319480Y-106362500D02*
X138407140Y-106362500D01*
X138196320Y-106151680D02*
X138196320Y-105519220D01*
X138407140Y-106362500D02*
X138196320Y-106151680D01*
X139374880Y-88347240D02*
X139241220Y-88480900D01*
X139374880Y-86883240D02*
X139374880Y-88347240D01*
X141714220Y-102501700D02*
X141899640Y-102687120D01*
X141714220Y-101127560D02*
X141714220Y-102501700D01*
X130505200Y-98877120D02*
X130469640Y-98841560D01*
X133197600Y-98877120D02*
X130505200Y-98877120D01*
D21*
G04 #@! TO.N,+5V*
X173228000Y-102717600D02*
X173228000Y-103919681D01*
X159715200Y-123596400D02*
X157784800Y-121666000D01*
X157784800Y-121666000D02*
X156565600Y-121666000D01*
X171196000Y-122885200D02*
X170484800Y-123596400D01*
X170484800Y-123596400D02*
X159715200Y-123596400D01*
X175138080Y-108968540D02*
X175138080Y-105829761D01*
X175138080Y-105829761D02*
X174916439Y-105608120D01*
X173228000Y-103919681D02*
X174916439Y-105608120D01*
D20*
X173238080Y-108968540D02*
X173235540Y-108966000D01*
D21*
X171866560Y-108966000D02*
X171196000Y-109636560D01*
X173235540Y-108966000D02*
X171866560Y-108966000D01*
X171196000Y-109636560D02*
X171196000Y-122885200D01*
X175138080Y-108968540D02*
X173238080Y-108968540D01*
D20*
G04 #@! TO.N,TXD*
X177038000Y-100177600D02*
X175768000Y-100177600D01*
X177546000Y-99669600D02*
X177038000Y-100177600D01*
X161950400Y-83567200D02*
X176937600Y-83567200D01*
X176937600Y-83567200D02*
X177546000Y-84175600D01*
X177546000Y-85039200D02*
X177546000Y-85242400D01*
X177546000Y-84175600D02*
X177546000Y-85242400D01*
X177546000Y-85242400D02*
X177546000Y-99669600D01*
G04 #@! TO.N,RXD*
X172025919Y-100177600D02*
X173228000Y-100177600D01*
X164998400Y-100177600D02*
X172025919Y-100177600D01*
X164490400Y-99669600D02*
X164998400Y-100177600D01*
X164490400Y-94945200D02*
X164490400Y-99669600D01*
G04 #@! TO.N,GPIO12*
X164026315Y-107696000D02*
X164642800Y-107696000D01*
X160528000Y-108204000D02*
X161036000Y-107696000D01*
X156718000Y-108204000D02*
X160528000Y-108204000D01*
X161036000Y-107696000D02*
X164026315Y-107696000D01*
G04 #@! TO.N,GPIO13*
X141478000Y-111507200D02*
X136550400Y-111507200D01*
X142698400Y-110286800D02*
X141478000Y-111507200D01*
X159816800Y-110286800D02*
X142698400Y-110286800D01*
G04 #@! TO.N,GPIO14*
X137915580Y-103887200D02*
X136550400Y-103887200D01*
X138234420Y-104206040D02*
X137915580Y-103887200D01*
X143390620Y-103517700D02*
X142702280Y-104206040D01*
X142702280Y-104206040D02*
X138234420Y-104206040D01*
X157916880Y-103517700D02*
X158640780Y-103517700D01*
X158546800Y-103517700D02*
X157916880Y-103517700D01*
X157916880Y-103517700D02*
X143390620Y-103517700D01*
X158640780Y-103517700D02*
X159542480Y-102616000D01*
X159542480Y-102616000D02*
X165465760Y-102616000D01*
G04 #@! TO.N,GPIO25*
X173228000Y-92557600D02*
X173126400Y-92456000D01*
X173126400Y-92456000D02*
X160014920Y-92456000D01*
X160014920Y-92456000D02*
X157581600Y-92456000D01*
G04 #@! TO.N,GPIO32*
X174498000Y-91287600D02*
X175768000Y-90017600D01*
X165100000Y-91287600D02*
X174498000Y-91287600D01*
X163728400Y-89916000D02*
X165100000Y-91287600D01*
X156964380Y-89916000D02*
X163728400Y-89916000D01*
G04 #@! TO.N,GPIO33*
X155039060Y-87751920D02*
X155465780Y-87325200D01*
X155039060Y-90835480D02*
X155039060Y-87751920D01*
X155790900Y-87325200D02*
X155996640Y-87325200D01*
X155465780Y-87325200D02*
X155996640Y-87325200D01*
X155996640Y-87325200D02*
X170637200Y-87325200D01*
G04 #@! TO.N,GPIO34*
X175056800Y-84836000D02*
X155067000Y-84846160D01*
X175768000Y-87477600D02*
X175768000Y-85547200D01*
X175768000Y-85547200D02*
X175056800Y-84836000D01*
X155067000Y-84846160D02*
X155067000Y-84846160D01*
G04 #@! TO.N,+3V3*
X139491720Y-85542120D02*
X140789660Y-85542120D01*
X162598100Y-77228700D02*
X161282380Y-77228700D01*
X137248900Y-115308380D02*
X135887460Y-115308380D01*
X162521900Y-105161080D02*
X161287460Y-105161080D01*
X161188400Y-115316000D02*
X163068000Y-115316000D01*
X161290000Y-120396000D02*
X162814000Y-120396000D01*
X162509200Y-110236000D02*
X161290000Y-110236000D01*
X161290000Y-110236000D02*
X160274000Y-109220000D01*
X160274000Y-109220000D02*
X158089600Y-109220000D01*
X163169600Y-100076000D02*
X160985200Y-100076000D01*
X160731200Y-79756000D02*
X163068000Y-79756000D01*
X162966400Y-94996000D02*
X160934400Y-94996000D01*
X137304780Y-87376000D02*
X137657840Y-87376000D01*
X137657840Y-87376000D02*
X139491720Y-85542120D01*
X135788400Y-87376000D02*
X137304780Y-87376000D01*
X137304780Y-87376000D02*
X137464800Y-87376000D01*
X140789660Y-85542120D02*
X140794740Y-85542120D01*
X140794740Y-85542120D02*
X141307820Y-86055200D01*
X141307820Y-86055200D02*
X141500860Y-86055200D01*
X137297160Y-120401080D02*
X135780780Y-120401080D01*
X135361680Y-79756000D02*
X137698480Y-79756000D01*
X162925760Y-97541080D02*
X160893760Y-97541080D01*
X156555440Y-97241360D02*
X154523440Y-97241360D01*
G04 #@! TO.N,GPIO0*
X167848885Y-108967200D02*
X167741600Y-108967200D01*
X168554400Y-108261685D02*
X167848885Y-108967200D01*
X168554400Y-107696000D02*
X168554400Y-108261685D01*
X167741600Y-108967200D02*
X161950400Y-108967200D01*
G04 #@! TO.N,R1*
X161950400Y-111507200D02*
X160847314Y-111507200D01*
X160846114Y-111506000D02*
X156718000Y-111506000D01*
X160847314Y-111507200D02*
X160846114Y-111506000D01*
X123444000Y-86106000D02*
X121666000Y-86106000D01*
X121666000Y-86106000D02*
X121107200Y-86664800D01*
X135138160Y-110236000D02*
X140665200Y-110236000D01*
X131465320Y-106563160D02*
X135138160Y-110236000D01*
X121107200Y-86664800D02*
X121107200Y-105755440D01*
X121914920Y-106563160D02*
X131465320Y-106563160D01*
X121107200Y-105755440D02*
X121914920Y-106563160D01*
G04 #@! TO.N,G1*
X158750000Y-106375200D02*
X158750000Y-105809515D01*
X158750000Y-105809515D02*
X158452085Y-105511600D01*
X158452085Y-105511600D02*
X158292800Y-105352315D01*
X158452085Y-105511600D02*
X158096485Y-105156000D01*
X158096485Y-105156000D02*
X143522700Y-105156000D01*
X142270480Y-105176608D02*
X142270480Y-105156000D01*
X143522700Y-105156000D02*
X142270480Y-105156000D01*
X141919480Y-105507000D02*
X141919480Y-106362500D01*
X142270480Y-105156000D02*
X141919480Y-105507000D01*
X122455940Y-105486200D02*
X121879360Y-104909620D01*
X121879360Y-104909620D02*
X121879360Y-87868760D01*
X121879360Y-87868760D02*
X122361960Y-87386160D01*
X124703840Y-87386160D02*
X125984000Y-86106000D01*
X122361960Y-87386160D02*
X124703840Y-87386160D01*
X134180580Y-105128060D02*
X128176020Y-105128060D01*
X127817880Y-105486200D02*
X122455940Y-105486200D01*
X128176020Y-105128060D02*
X127817880Y-105486200D01*
G04 #@! TO.N,B1*
X160070800Y-107203714D02*
X160847314Y-106427200D01*
X160847314Y-106427200D02*
X161950400Y-106427200D01*
X146776914Y-107685840D02*
X147259040Y-107203714D01*
X145402300Y-107685840D02*
X146776914Y-107685840D01*
X147259040Y-107203714D02*
X160070800Y-107203714D01*
G04 #@! TO.N,R2*
X145044160Y-106273600D02*
X156718000Y-106273600D01*
X143621760Y-107696000D02*
X145044160Y-106273600D01*
X134167880Y-106603800D02*
X135260080Y-107696000D01*
X135260080Y-107696000D02*
X143621760Y-107696000D01*
G04 #@! TO.N,B*
X161926200Y-96291400D02*
X161950400Y-96267200D01*
X141777720Y-88226420D02*
X141795020Y-88209120D01*
X155486100Y-96291400D02*
X161926200Y-96291400D01*
X139278840Y-93494860D02*
X138468100Y-93494860D01*
X138468100Y-93494860D02*
X138269980Y-93692980D01*
X138269980Y-94228920D02*
X138242040Y-94256860D01*
X138269980Y-93692980D02*
X138269980Y-94228920D01*
X141831060Y-91539060D02*
X141772640Y-91597480D01*
X141772640Y-88549480D02*
X141841220Y-88480900D01*
X141772640Y-91597480D02*
X141772640Y-88549480D01*
G04 #@! TO.N,A*
X128371600Y-94150180D02*
X133456680Y-94150180D01*
X133456680Y-94150180D02*
X133469380Y-94137480D01*
X124293999Y-95416001D02*
X124293999Y-95413461D01*
X123444000Y-96266000D02*
X124293999Y-95416001D01*
X124293999Y-95413461D02*
X124726700Y-94980760D01*
X127541020Y-94980760D02*
X127703580Y-94818200D01*
X124726700Y-94980760D02*
X127541020Y-94980760D01*
X127703580Y-94818200D02*
X128371600Y-94150180D01*
X161950400Y-98807200D02*
X160153280Y-98807200D01*
X159519620Y-98173540D02*
X155463240Y-98173540D01*
X160153280Y-98807200D02*
X159519620Y-98173540D01*
G04 #@! TO.N,D*
X139153900Y-98236560D02*
X139154380Y-98237040D01*
X139149300Y-96707480D02*
X139153900Y-96702880D01*
X155935680Y-92379800D02*
X155402280Y-92913200D01*
X155935680Y-89230200D02*
X155935680Y-92379800D01*
X156518680Y-88647200D02*
X155935680Y-89230200D01*
X161950400Y-88647200D02*
X156518680Y-88647200D01*
X141922020Y-93538040D02*
X141878840Y-93494860D01*
X144612360Y-93538040D02*
X141922020Y-93538040D01*
X145012359Y-93138041D02*
X145014899Y-93138041D01*
X144612360Y-93538040D02*
X145012359Y-93138041D01*
X145239740Y-92913200D02*
X155402280Y-92913200D01*
X145014899Y-93138041D02*
X145239740Y-92913200D01*
X139410440Y-98156720D02*
X139314880Y-98252280D01*
X139410440Y-96636840D02*
X139410440Y-98156720D01*
G04 #@! TO.N,C*
X144510760Y-95194120D02*
X145978880Y-93726000D01*
X138010900Y-95194120D02*
X144510760Y-95194120D01*
X145978880Y-93726000D02*
X160846114Y-93726000D01*
X137751820Y-94935040D02*
X138010900Y-95194120D01*
X160847314Y-93727200D02*
X161950400Y-93727200D01*
X160846114Y-93726000D02*
X160847314Y-93727200D01*
X128131410Y-97508060D02*
X129270760Y-96368710D01*
X124741940Y-97508060D02*
X128131410Y-97508060D01*
X134067710Y-96368710D02*
X135501380Y-94935040D01*
X123444000Y-98806000D02*
X124741940Y-97508060D01*
X129270760Y-96368710D02*
X134067710Y-96368710D01*
X135501380Y-94935040D02*
X137751820Y-94935040D01*
G04 #@! TO.N,LAT*
X139258040Y-102560600D02*
X139174700Y-102643940D01*
X139252960Y-102640440D02*
X139299640Y-102687120D01*
X139252960Y-101158040D02*
X139252960Y-102640440D01*
X143291560Y-98413035D02*
X143291560Y-98978720D01*
X143125725Y-98247200D02*
X143291560Y-98413035D01*
X141749300Y-98247200D02*
X143125725Y-98247200D01*
G04 #@! TO.N,CLK*
X146270980Y-94691200D02*
X148973540Y-94691200D01*
X144548860Y-96413320D02*
X146270980Y-94691200D01*
X148978620Y-94696280D02*
X157553660Y-94696280D01*
X148973540Y-94691200D02*
X148978620Y-94696280D01*
X144548860Y-99677220D02*
X144548860Y-99278440D01*
X144241520Y-99984560D02*
X144548860Y-99677220D01*
X141046200Y-99984560D02*
X144241520Y-99984560D01*
X140756640Y-99695000D02*
X141046200Y-99984560D01*
X144548860Y-99278440D02*
X144548860Y-96413320D01*
X137911840Y-100076000D02*
X138292840Y-99695000D01*
X138292840Y-99695000D02*
X140756640Y-99695000D01*
X123444000Y-101346000D02*
X124714000Y-100076000D01*
X144548860Y-99357180D02*
X144548860Y-99278440D01*
X124714000Y-100076000D02*
X137911840Y-100076000D01*
G04 #@! TO.N,DE*
X134002780Y-100896420D02*
X134061200Y-100838000D01*
X133558280Y-101340920D02*
X134061200Y-100838000D01*
X129796540Y-101340920D02*
X133558280Y-101340920D01*
G04 #@! TD*
D22*
G04 #@! TO.N,+3V3*
G36*
X138811000Y-74930000D02*
X138820667Y-74978601D01*
X138848197Y-75019803D01*
X138889399Y-75047333D01*
X138938076Y-75057000D01*
X160164856Y-75044300D01*
X160213451Y-75034604D01*
X160254636Y-75007049D01*
X160282142Y-74965831D01*
X160291780Y-74917300D01*
X160291780Y-70505251D01*
X172725280Y-70505251D01*
X172725280Y-71394389D01*
X173065539Y-72215846D01*
X173694254Y-72844561D01*
X174515711Y-73184820D01*
X175404849Y-73184820D01*
X176226306Y-72844561D01*
X176855021Y-72215846D01*
X177195280Y-71394389D01*
X177195280Y-70505251D01*
X176855021Y-69683794D01*
X176226306Y-69055079D01*
X175404849Y-68714820D01*
X174515711Y-68714820D01*
X173694254Y-69055079D01*
X173065539Y-69683794D01*
X172725280Y-70505251D01*
X160291780Y-70505251D01*
X160291780Y-66496000D01*
X184456000Y-66496000D01*
X184456001Y-124766000D01*
X114248000Y-124766000D01*
X114248000Y-86664800D01*
X120332312Y-86664800D01*
X120347200Y-86739647D01*
X120347201Y-105680588D01*
X120332312Y-105755440D01*
X120391297Y-106051977D01*
X120457917Y-106151680D01*
X120559272Y-106303369D01*
X120622728Y-106345769D01*
X121324590Y-107047632D01*
X121366991Y-107111089D01*
X121618383Y-107279064D01*
X121840068Y-107323160D01*
X121840072Y-107323160D01*
X121914920Y-107338048D01*
X121989768Y-107323160D01*
X131150519Y-107323160D01*
X134547831Y-110720473D01*
X134590231Y-110783929D01*
X134841623Y-110951904D01*
X135063308Y-110996000D01*
X135063312Y-110996000D01*
X135138159Y-111010888D01*
X135213006Y-110996000D01*
X135230561Y-110996000D01*
X135135400Y-111225739D01*
X135135400Y-111788661D01*
X135350821Y-112308733D01*
X135748867Y-112706779D01*
X135918878Y-112777200D01*
X135748867Y-112847621D01*
X135350821Y-113245667D01*
X135135400Y-113765739D01*
X135135400Y-114328661D01*
X135350821Y-114848733D01*
X135748867Y-115246779D01*
X135918878Y-115317200D01*
X135748867Y-115387621D01*
X135350821Y-115785667D01*
X135135400Y-116305739D01*
X135135400Y-116868661D01*
X135350821Y-117388733D01*
X135748867Y-117786779D01*
X135918878Y-117857200D01*
X135748867Y-117927621D01*
X135350821Y-118325667D01*
X135135400Y-118845739D01*
X135135400Y-119408661D01*
X135350821Y-119928733D01*
X135748867Y-120326779D01*
X135918878Y-120397200D01*
X135748867Y-120467621D01*
X135350821Y-120865667D01*
X135135400Y-121385739D01*
X135135400Y-121948661D01*
X135350821Y-122468733D01*
X135748867Y-122866779D01*
X136268939Y-123082200D01*
X136831861Y-123082200D01*
X137351933Y-122866779D01*
X137749979Y-122468733D01*
X137965400Y-121948661D01*
X137965400Y-121385739D01*
X137749979Y-120865667D01*
X137351933Y-120467621D01*
X137181922Y-120397200D01*
X137351933Y-120326779D01*
X137749979Y-119928733D01*
X137965400Y-119408661D01*
X137965400Y-118845739D01*
X137749979Y-118325667D01*
X137351933Y-117927621D01*
X137181922Y-117857200D01*
X137351933Y-117786779D01*
X137749979Y-117388733D01*
X137965400Y-116868661D01*
X137965400Y-116305739D01*
X137749979Y-115785667D01*
X137351933Y-115387621D01*
X137181922Y-115317200D01*
X137351933Y-115246779D01*
X137749979Y-114848733D01*
X137965400Y-114328661D01*
X137965400Y-113765739D01*
X137749979Y-113245667D01*
X137351933Y-112847621D01*
X137181922Y-112777200D01*
X137351933Y-112706779D01*
X137749979Y-112308733D01*
X137767183Y-112267200D01*
X141403153Y-112267200D01*
X141478000Y-112282088D01*
X141552847Y-112267200D01*
X141552852Y-112267200D01*
X141774537Y-112223104D01*
X142025929Y-112055129D01*
X142068331Y-111991670D01*
X143013202Y-111046800D01*
X155787931Y-111046800D01*
X155683000Y-111300126D01*
X155683000Y-111711874D01*
X155840569Y-112092280D01*
X156131720Y-112383431D01*
X156512126Y-112541000D01*
X156923874Y-112541000D01*
X157304280Y-112383431D01*
X157421711Y-112266000D01*
X160733120Y-112266000D01*
X160750821Y-112308733D01*
X161148867Y-112706779D01*
X161318878Y-112777200D01*
X161148867Y-112847621D01*
X160750821Y-113245667D01*
X160535400Y-113765739D01*
X160535400Y-114328661D01*
X160750821Y-114848733D01*
X161148867Y-115246779D01*
X161318878Y-115317200D01*
X161148867Y-115387621D01*
X160750821Y-115785667D01*
X160535400Y-116305739D01*
X160535400Y-116868661D01*
X160750821Y-117388733D01*
X161148867Y-117786779D01*
X161318878Y-117857200D01*
X161148867Y-117927621D01*
X160750821Y-118325667D01*
X160535400Y-118845739D01*
X160535400Y-119408661D01*
X160750821Y-119928733D01*
X161148867Y-120326779D01*
X161318878Y-120397200D01*
X161148867Y-120467621D01*
X160750821Y-120865667D01*
X160535400Y-121385739D01*
X160535400Y-121948661D01*
X160750821Y-122468733D01*
X160993488Y-122711400D01*
X160081779Y-122711400D01*
X158472225Y-121101847D01*
X158422849Y-121027951D01*
X158130110Y-120832348D01*
X157871965Y-120781000D01*
X157871961Y-120781000D01*
X157784800Y-120763663D01*
X157697639Y-120781000D01*
X157133607Y-120781000D01*
X156771474Y-120631000D01*
X156359726Y-120631000D01*
X155979320Y-120788569D01*
X155688169Y-121079720D01*
X155530600Y-121460126D01*
X155530600Y-121871874D01*
X155688169Y-122252280D01*
X155979320Y-122543431D01*
X156359726Y-122701000D01*
X156771474Y-122701000D01*
X157133607Y-122551000D01*
X157418222Y-122551000D01*
X159027777Y-124160556D01*
X159077151Y-124234449D01*
X159151044Y-124283823D01*
X159151045Y-124283824D01*
X159369890Y-124430052D01*
X159628035Y-124481400D01*
X159628039Y-124481400D01*
X159715200Y-124498737D01*
X159802361Y-124481400D01*
X170397639Y-124481400D01*
X170484800Y-124498737D01*
X170571961Y-124481400D01*
X170571965Y-124481400D01*
X170830110Y-124430052D01*
X171122849Y-124234449D01*
X171172225Y-124160553D01*
X171760156Y-123572623D01*
X171834049Y-123523249D01*
X172029652Y-123230510D01*
X172081000Y-122972365D01*
X172081000Y-122972361D01*
X172098337Y-122885200D01*
X172081000Y-122798039D01*
X172081000Y-120083511D01*
X172631300Y-120083511D01*
X172631300Y-120972649D01*
X172971559Y-121794106D01*
X173600274Y-122422821D01*
X174421731Y-122763080D01*
X175310869Y-122763080D01*
X176132326Y-122422821D01*
X176761041Y-121794106D01*
X177101300Y-120972649D01*
X177101300Y-120083511D01*
X176761041Y-119262054D01*
X176132326Y-118633339D01*
X175310869Y-118293080D01*
X174421731Y-118293080D01*
X173600274Y-118633339D01*
X172971559Y-119262054D01*
X172631300Y-120083511D01*
X172081000Y-120083511D01*
X172081000Y-112468540D01*
X172673008Y-112468540D01*
X172792142Y-113067467D01*
X173131407Y-113575213D01*
X173639153Y-113914478D01*
X174086898Y-114003540D01*
X176189262Y-114003540D01*
X176637007Y-113914478D01*
X177144753Y-113575213D01*
X177484018Y-113067467D01*
X177603152Y-112468540D01*
X177484018Y-111869613D01*
X177144753Y-111361867D01*
X176637007Y-111022602D01*
X176189262Y-110933540D01*
X174086898Y-110933540D01*
X173639153Y-111022602D01*
X173131407Y-111361867D01*
X172792142Y-111869613D01*
X172673008Y-112468540D01*
X172081000Y-112468540D01*
X172081000Y-110003138D01*
X172233139Y-109851000D01*
X172736880Y-109851000D01*
X172758954Y-109961975D01*
X172953494Y-110253126D01*
X173244645Y-110447666D01*
X173588080Y-110515980D01*
X176688080Y-110515980D01*
X177031515Y-110447666D01*
X177322666Y-110253126D01*
X177517206Y-109961975D01*
X177585520Y-109618540D01*
X177585520Y-108318540D01*
X177517206Y-107975105D01*
X177322666Y-107683954D01*
X177031515Y-107489414D01*
X176688080Y-107421100D01*
X176023080Y-107421100D01*
X176023080Y-105916922D01*
X176040417Y-105829761D01*
X176023080Y-105742600D01*
X176023080Y-105742596D01*
X175971732Y-105484451D01*
X175776129Y-105191712D01*
X175702233Y-105142336D01*
X175603865Y-105043968D01*
X175603863Y-105043965D01*
X174739415Y-104179518D01*
X174918000Y-104215040D01*
X176618000Y-104215040D01*
X176865765Y-104165757D01*
X177075809Y-104025409D01*
X177216157Y-103815365D01*
X177265440Y-103567600D01*
X177265440Y-101867600D01*
X177216157Y-101619835D01*
X177075809Y-101409791D01*
X176865765Y-101269443D01*
X176820381Y-101260416D01*
X176838625Y-101248225D01*
X177036438Y-100952177D01*
X177038000Y-100952488D01*
X177112847Y-100937600D01*
X177112852Y-100937600D01*
X177334537Y-100893504D01*
X177585929Y-100725529D01*
X177628330Y-100662071D01*
X178030475Y-100259928D01*
X178093929Y-100217529D01*
X178136327Y-100154076D01*
X178136329Y-100154074D01*
X178235765Y-100005256D01*
X178261904Y-99966137D01*
X178306000Y-99744452D01*
X178306000Y-99744448D01*
X178320888Y-99669601D01*
X178306000Y-99594754D01*
X178306000Y-84250448D01*
X178320888Y-84175600D01*
X178306000Y-84100752D01*
X178306000Y-84100748D01*
X178261904Y-83879063D01*
X178093929Y-83627671D01*
X178030473Y-83585271D01*
X177527931Y-83082730D01*
X177485529Y-83019271D01*
X177234137Y-82851296D01*
X177012452Y-82807200D01*
X177012447Y-82807200D01*
X176937600Y-82792312D01*
X176862753Y-82807200D01*
X163167183Y-82807200D01*
X163149979Y-82765667D01*
X162751933Y-82367621D01*
X162581922Y-82297200D01*
X162751933Y-82226779D01*
X163149979Y-81828733D01*
X163365400Y-81308661D01*
X163365400Y-80745739D01*
X163149979Y-80225667D01*
X162751933Y-79827621D01*
X162581922Y-79757200D01*
X162751933Y-79686779D01*
X163149979Y-79288733D01*
X163365400Y-78768661D01*
X163365400Y-78205739D01*
X163149979Y-77685667D01*
X162751933Y-77287621D01*
X162581922Y-77217200D01*
X162751933Y-77146779D01*
X163149979Y-76748733D01*
X163365400Y-76228661D01*
X163365400Y-75665739D01*
X163149979Y-75145667D01*
X162751933Y-74747621D01*
X162231861Y-74532200D01*
X161668939Y-74532200D01*
X161148867Y-74747621D01*
X160750821Y-75145667D01*
X160535400Y-75665739D01*
X160535400Y-76228661D01*
X160750821Y-76748733D01*
X161148867Y-77146779D01*
X161318878Y-77217200D01*
X161148867Y-77287621D01*
X160750821Y-77685667D01*
X160535400Y-78205739D01*
X160535400Y-78768661D01*
X160750821Y-79288733D01*
X161148867Y-79686779D01*
X161318878Y-79757200D01*
X161148867Y-79827621D01*
X160750821Y-80225667D01*
X160535400Y-80745739D01*
X160535400Y-81308661D01*
X160750821Y-81828733D01*
X161148867Y-82226779D01*
X161318878Y-82297200D01*
X161148867Y-82367621D01*
X160750821Y-82765667D01*
X160535400Y-83285739D01*
X160535400Y-83848661D01*
X160632604Y-84083332D01*
X155770354Y-84085803D01*
X155653280Y-83968729D01*
X155272874Y-83811160D01*
X154861126Y-83811160D01*
X154480720Y-83968729D01*
X154189569Y-84259880D01*
X154032000Y-84640286D01*
X154032000Y-85052034D01*
X154189569Y-85432440D01*
X154480720Y-85723591D01*
X154861126Y-85881160D01*
X155272874Y-85881160D01*
X155653280Y-85723591D01*
X155771070Y-85605801D01*
X160627524Y-85603333D01*
X160535400Y-85825739D01*
X160535400Y-86388661D01*
X160608525Y-86565200D01*
X155540626Y-86565200D01*
X155465779Y-86550312D01*
X155390932Y-86565200D01*
X155390928Y-86565200D01*
X155169243Y-86609296D01*
X154917851Y-86777271D01*
X154875449Y-86840730D01*
X154554588Y-87161591D01*
X154491132Y-87203991D01*
X154448732Y-87267447D01*
X154448731Y-87267448D01*
X154323157Y-87455383D01*
X154264172Y-87751920D01*
X154279061Y-87826772D01*
X154279060Y-90131769D01*
X154161629Y-90249200D01*
X154004060Y-90629606D01*
X154004060Y-91041354D01*
X154161629Y-91421760D01*
X154452780Y-91712911D01*
X154833186Y-91870480D01*
X155175681Y-91870480D01*
X155175681Y-92064998D01*
X155087479Y-92153200D01*
X145314586Y-92153200D01*
X145239739Y-92138312D01*
X145164892Y-92153200D01*
X145164888Y-92153200D01*
X144943203Y-92197296D01*
X144691811Y-92365271D01*
X144649409Y-92428730D01*
X144575099Y-92503040D01*
X144406486Y-92503040D01*
X144026080Y-92660609D01*
X143908649Y-92778040D01*
X142924851Y-92778040D01*
X142917959Y-92761400D01*
X142858127Y-92649463D01*
X142803671Y-92567964D01*
X142723154Y-92469854D01*
X142653846Y-92400546D01*
X142555736Y-92320029D01*
X142530598Y-92303233D01*
X142650071Y-92183760D01*
X142807640Y-91803354D01*
X142807640Y-91391606D01*
X142650071Y-91011200D01*
X142532640Y-90893769D01*
X142532640Y-89643811D01*
X142616226Y-89575214D01*
X142685534Y-89505906D01*
X142766051Y-89407796D01*
X142820507Y-89326297D01*
X142880339Y-89214360D01*
X142917848Y-89123804D01*
X142954690Y-89002351D01*
X142973812Y-88906218D01*
X142986252Y-88779909D01*
X142986252Y-88743006D01*
X142988660Y-88730900D01*
X142988660Y-88230900D01*
X142986252Y-88218794D01*
X142986252Y-88181891D01*
X142973812Y-88055582D01*
X142954690Y-87959449D01*
X142917848Y-87837996D01*
X142880339Y-87747440D01*
X142820507Y-87635503D01*
X142766051Y-87554004D01*
X142685534Y-87455894D01*
X142616226Y-87386586D01*
X142518116Y-87306069D01*
X142436617Y-87251613D01*
X142324680Y-87191781D01*
X142234124Y-87154272D01*
X142112671Y-87117430D01*
X142016538Y-87098308D01*
X141890229Y-87085868D01*
X141853326Y-87085868D01*
X141841220Y-87083460D01*
X141291220Y-87083460D01*
X141166220Y-87108324D01*
X141041220Y-87083460D01*
X140409880Y-87083460D01*
X140409880Y-86677366D01*
X140252311Y-86296960D01*
X139961160Y-86005809D01*
X139580754Y-85848240D01*
X139169006Y-85848240D01*
X138788600Y-86005809D01*
X138497449Y-86296960D01*
X138339880Y-86677366D01*
X138339880Y-87089114D01*
X138464010Y-87388790D01*
X138396906Y-87455894D01*
X138316389Y-87554004D01*
X138261933Y-87635503D01*
X138202101Y-87747440D01*
X138164592Y-87837996D01*
X138127750Y-87959449D01*
X138108628Y-88055582D01*
X138096188Y-88181891D01*
X138096188Y-88218794D01*
X138093780Y-88230900D01*
X138093780Y-88730900D01*
X138096188Y-88743006D01*
X138096188Y-88779909D01*
X138108628Y-88906218D01*
X138127750Y-89002351D01*
X138164592Y-89123804D01*
X138184240Y-89171240D01*
X137864920Y-89171240D01*
X137965400Y-88928661D01*
X137965400Y-88365739D01*
X137749979Y-87845667D01*
X137351933Y-87447621D01*
X137181922Y-87377200D01*
X137351933Y-87306779D01*
X137749979Y-86908733D01*
X137965400Y-86388661D01*
X137965400Y-85825739D01*
X137749979Y-85305667D01*
X137351933Y-84907621D01*
X137181922Y-84837200D01*
X137351933Y-84766779D01*
X137749979Y-84368733D01*
X137965400Y-83848661D01*
X137965400Y-83285739D01*
X137749979Y-82765667D01*
X137351933Y-82367621D01*
X137181922Y-82297200D01*
X137351933Y-82226779D01*
X137749979Y-81828733D01*
X137965400Y-81308661D01*
X137965400Y-80745739D01*
X137749979Y-80225667D01*
X137351933Y-79827621D01*
X137181922Y-79757200D01*
X137351933Y-79686779D01*
X137749979Y-79288733D01*
X137965400Y-78768661D01*
X137965400Y-78205739D01*
X137749979Y-77685667D01*
X137426512Y-77362200D01*
X137456709Y-77362200D01*
X137690098Y-77265527D01*
X137868727Y-77086899D01*
X137965400Y-76853510D01*
X137965400Y-76232950D01*
X137806650Y-76074200D01*
X136677400Y-76074200D01*
X136677400Y-76094200D01*
X136423400Y-76094200D01*
X136423400Y-76074200D01*
X135294150Y-76074200D01*
X135135400Y-76232950D01*
X135135400Y-76853510D01*
X135232073Y-77086899D01*
X135410702Y-77265527D01*
X135644091Y-77362200D01*
X135674288Y-77362200D01*
X135350821Y-77685667D01*
X135135400Y-78205739D01*
X135135400Y-78768661D01*
X135350821Y-79288733D01*
X135748867Y-79686779D01*
X135918878Y-79757200D01*
X135748867Y-79827621D01*
X135350821Y-80225667D01*
X135135400Y-80745739D01*
X135135400Y-81308661D01*
X135350821Y-81828733D01*
X135748867Y-82226779D01*
X135918878Y-82297200D01*
X135748867Y-82367621D01*
X135350821Y-82765667D01*
X135135400Y-83285739D01*
X135135400Y-83848661D01*
X135350821Y-84368733D01*
X135748867Y-84766779D01*
X135918878Y-84837200D01*
X135748867Y-84907621D01*
X135350821Y-85305667D01*
X135135400Y-85825739D01*
X135135400Y-86388661D01*
X135350821Y-86908733D01*
X135748867Y-87306779D01*
X135918878Y-87377200D01*
X135748867Y-87447621D01*
X135350821Y-87845667D01*
X135135400Y-88365739D01*
X135135400Y-88928661D01*
X135246525Y-89196940D01*
X135154043Y-89215336D01*
X134902651Y-89383311D01*
X134860251Y-89446767D01*
X132651659Y-91655360D01*
X127404731Y-91655360D01*
X127498092Y-91186000D01*
X127382839Y-90606582D01*
X127054625Y-90115375D01*
X126756239Y-89916000D01*
X127054625Y-89716625D01*
X127382839Y-89225418D01*
X127498092Y-88646000D01*
X127382839Y-88066582D01*
X127054625Y-87575375D01*
X126756239Y-87376000D01*
X127054625Y-87176625D01*
X127382839Y-86685418D01*
X127498092Y-86106000D01*
X127382839Y-85526582D01*
X127054625Y-85035375D01*
X126563418Y-84707161D01*
X126130256Y-84621000D01*
X125837744Y-84621000D01*
X125404582Y-84707161D01*
X124913375Y-85035375D01*
X124901184Y-85053619D01*
X124892157Y-85008235D01*
X124751809Y-84798191D01*
X124541765Y-84657843D01*
X124294000Y-84608560D01*
X122594000Y-84608560D01*
X122346235Y-84657843D01*
X122136191Y-84798191D01*
X121995843Y-85008235D01*
X121946560Y-85256000D01*
X121946560Y-85346000D01*
X121740848Y-85346000D01*
X121666000Y-85331112D01*
X121591152Y-85346000D01*
X121591148Y-85346000D01*
X121369463Y-85390096D01*
X121118071Y-85558071D01*
X121075671Y-85621527D01*
X120622730Y-86074469D01*
X120559271Y-86116871D01*
X120391296Y-86368264D01*
X120347200Y-86589949D01*
X120347200Y-86589953D01*
X120332312Y-86664800D01*
X114248000Y-86664800D01*
X114248000Y-75040890D01*
X135135400Y-75040890D01*
X135135400Y-75661450D01*
X135294150Y-75820200D01*
X136423400Y-75820200D01*
X136423400Y-74690950D01*
X136677400Y-74690950D01*
X136677400Y-75820200D01*
X137806650Y-75820200D01*
X137965400Y-75661450D01*
X137965400Y-75040890D01*
X137868727Y-74807501D01*
X137690098Y-74628873D01*
X137456709Y-74532200D01*
X136836150Y-74532200D01*
X136677400Y-74690950D01*
X136423400Y-74690950D01*
X136264650Y-74532200D01*
X135644091Y-74532200D01*
X135410702Y-74628873D01*
X135232073Y-74807501D01*
X135135400Y-75040890D01*
X114248000Y-75040890D01*
X114248000Y-66496000D01*
X138811000Y-66496000D01*
X138811000Y-74930000D01*
X138811000Y-74930000D01*
G37*
X138811000Y-74930000D02*
X138820667Y-74978601D01*
X138848197Y-75019803D01*
X138889399Y-75047333D01*
X138938076Y-75057000D01*
X160164856Y-75044300D01*
X160213451Y-75034604D01*
X160254636Y-75007049D01*
X160282142Y-74965831D01*
X160291780Y-74917300D01*
X160291780Y-70505251D01*
X172725280Y-70505251D01*
X172725280Y-71394389D01*
X173065539Y-72215846D01*
X173694254Y-72844561D01*
X174515711Y-73184820D01*
X175404849Y-73184820D01*
X176226306Y-72844561D01*
X176855021Y-72215846D01*
X177195280Y-71394389D01*
X177195280Y-70505251D01*
X176855021Y-69683794D01*
X176226306Y-69055079D01*
X175404849Y-68714820D01*
X174515711Y-68714820D01*
X173694254Y-69055079D01*
X173065539Y-69683794D01*
X172725280Y-70505251D01*
X160291780Y-70505251D01*
X160291780Y-66496000D01*
X184456000Y-66496000D01*
X184456001Y-124766000D01*
X114248000Y-124766000D01*
X114248000Y-86664800D01*
X120332312Y-86664800D01*
X120347200Y-86739647D01*
X120347201Y-105680588D01*
X120332312Y-105755440D01*
X120391297Y-106051977D01*
X120457917Y-106151680D01*
X120559272Y-106303369D01*
X120622728Y-106345769D01*
X121324590Y-107047632D01*
X121366991Y-107111089D01*
X121618383Y-107279064D01*
X121840068Y-107323160D01*
X121840072Y-107323160D01*
X121914920Y-107338048D01*
X121989768Y-107323160D01*
X131150519Y-107323160D01*
X134547831Y-110720473D01*
X134590231Y-110783929D01*
X134841623Y-110951904D01*
X135063308Y-110996000D01*
X135063312Y-110996000D01*
X135138159Y-111010888D01*
X135213006Y-110996000D01*
X135230561Y-110996000D01*
X135135400Y-111225739D01*
X135135400Y-111788661D01*
X135350821Y-112308733D01*
X135748867Y-112706779D01*
X135918878Y-112777200D01*
X135748867Y-112847621D01*
X135350821Y-113245667D01*
X135135400Y-113765739D01*
X135135400Y-114328661D01*
X135350821Y-114848733D01*
X135748867Y-115246779D01*
X135918878Y-115317200D01*
X135748867Y-115387621D01*
X135350821Y-115785667D01*
X135135400Y-116305739D01*
X135135400Y-116868661D01*
X135350821Y-117388733D01*
X135748867Y-117786779D01*
X135918878Y-117857200D01*
X135748867Y-117927621D01*
X135350821Y-118325667D01*
X135135400Y-118845739D01*
X135135400Y-119408661D01*
X135350821Y-119928733D01*
X135748867Y-120326779D01*
X135918878Y-120397200D01*
X135748867Y-120467621D01*
X135350821Y-120865667D01*
X135135400Y-121385739D01*
X135135400Y-121948661D01*
X135350821Y-122468733D01*
X135748867Y-122866779D01*
X136268939Y-123082200D01*
X136831861Y-123082200D01*
X137351933Y-122866779D01*
X137749979Y-122468733D01*
X137965400Y-121948661D01*
X137965400Y-121385739D01*
X137749979Y-120865667D01*
X137351933Y-120467621D01*
X137181922Y-120397200D01*
X137351933Y-120326779D01*
X137749979Y-119928733D01*
X137965400Y-119408661D01*
X137965400Y-118845739D01*
X137749979Y-118325667D01*
X137351933Y-117927621D01*
X137181922Y-117857200D01*
X137351933Y-117786779D01*
X137749979Y-117388733D01*
X137965400Y-116868661D01*
X137965400Y-116305739D01*
X137749979Y-115785667D01*
X137351933Y-115387621D01*
X137181922Y-115317200D01*
X137351933Y-115246779D01*
X137749979Y-114848733D01*
X137965400Y-114328661D01*
X137965400Y-113765739D01*
X137749979Y-113245667D01*
X137351933Y-112847621D01*
X137181922Y-112777200D01*
X137351933Y-112706779D01*
X137749979Y-112308733D01*
X137767183Y-112267200D01*
X141403153Y-112267200D01*
X141478000Y-112282088D01*
X141552847Y-112267200D01*
X141552852Y-112267200D01*
X141774537Y-112223104D01*
X142025929Y-112055129D01*
X142068331Y-111991670D01*
X143013202Y-111046800D01*
X155787931Y-111046800D01*
X155683000Y-111300126D01*
X155683000Y-111711874D01*
X155840569Y-112092280D01*
X156131720Y-112383431D01*
X156512126Y-112541000D01*
X156923874Y-112541000D01*
X157304280Y-112383431D01*
X157421711Y-112266000D01*
X160733120Y-112266000D01*
X160750821Y-112308733D01*
X161148867Y-112706779D01*
X161318878Y-112777200D01*
X161148867Y-112847621D01*
X160750821Y-113245667D01*
X160535400Y-113765739D01*
X160535400Y-114328661D01*
X160750821Y-114848733D01*
X161148867Y-115246779D01*
X161318878Y-115317200D01*
X161148867Y-115387621D01*
X160750821Y-115785667D01*
X160535400Y-116305739D01*
X160535400Y-116868661D01*
X160750821Y-117388733D01*
X161148867Y-117786779D01*
X161318878Y-117857200D01*
X161148867Y-117927621D01*
X160750821Y-118325667D01*
X160535400Y-118845739D01*
X160535400Y-119408661D01*
X160750821Y-119928733D01*
X161148867Y-120326779D01*
X161318878Y-120397200D01*
X161148867Y-120467621D01*
X160750821Y-120865667D01*
X160535400Y-121385739D01*
X160535400Y-121948661D01*
X160750821Y-122468733D01*
X160993488Y-122711400D01*
X160081779Y-122711400D01*
X158472225Y-121101847D01*
X158422849Y-121027951D01*
X158130110Y-120832348D01*
X157871965Y-120781000D01*
X157871961Y-120781000D01*
X157784800Y-120763663D01*
X157697639Y-120781000D01*
X157133607Y-120781000D01*
X156771474Y-120631000D01*
X156359726Y-120631000D01*
X155979320Y-120788569D01*
X155688169Y-121079720D01*
X155530600Y-121460126D01*
X155530600Y-121871874D01*
X155688169Y-122252280D01*
X155979320Y-122543431D01*
X156359726Y-122701000D01*
X156771474Y-122701000D01*
X157133607Y-122551000D01*
X157418222Y-122551000D01*
X159027777Y-124160556D01*
X159077151Y-124234449D01*
X159151044Y-124283823D01*
X159151045Y-124283824D01*
X159369890Y-124430052D01*
X159628035Y-124481400D01*
X159628039Y-124481400D01*
X159715200Y-124498737D01*
X159802361Y-124481400D01*
X170397639Y-124481400D01*
X170484800Y-124498737D01*
X170571961Y-124481400D01*
X170571965Y-124481400D01*
X170830110Y-124430052D01*
X171122849Y-124234449D01*
X171172225Y-124160553D01*
X171760156Y-123572623D01*
X171834049Y-123523249D01*
X172029652Y-123230510D01*
X172081000Y-122972365D01*
X172081000Y-122972361D01*
X172098337Y-122885200D01*
X172081000Y-122798039D01*
X172081000Y-120083511D01*
X172631300Y-120083511D01*
X172631300Y-120972649D01*
X172971559Y-121794106D01*
X173600274Y-122422821D01*
X174421731Y-122763080D01*
X175310869Y-122763080D01*
X176132326Y-122422821D01*
X176761041Y-121794106D01*
X177101300Y-120972649D01*
X177101300Y-120083511D01*
X176761041Y-119262054D01*
X176132326Y-118633339D01*
X175310869Y-118293080D01*
X174421731Y-118293080D01*
X173600274Y-118633339D01*
X172971559Y-119262054D01*
X172631300Y-120083511D01*
X172081000Y-120083511D01*
X172081000Y-112468540D01*
X172673008Y-112468540D01*
X172792142Y-113067467D01*
X173131407Y-113575213D01*
X173639153Y-113914478D01*
X174086898Y-114003540D01*
X176189262Y-114003540D01*
X176637007Y-113914478D01*
X177144753Y-113575213D01*
X177484018Y-113067467D01*
X177603152Y-112468540D01*
X177484018Y-111869613D01*
X177144753Y-111361867D01*
X176637007Y-111022602D01*
X176189262Y-110933540D01*
X174086898Y-110933540D01*
X173639153Y-111022602D01*
X173131407Y-111361867D01*
X172792142Y-111869613D01*
X172673008Y-112468540D01*
X172081000Y-112468540D01*
X172081000Y-110003138D01*
X172233139Y-109851000D01*
X172736880Y-109851000D01*
X172758954Y-109961975D01*
X172953494Y-110253126D01*
X173244645Y-110447666D01*
X173588080Y-110515980D01*
X176688080Y-110515980D01*
X177031515Y-110447666D01*
X177322666Y-110253126D01*
X177517206Y-109961975D01*
X177585520Y-109618540D01*
X177585520Y-108318540D01*
X177517206Y-107975105D01*
X177322666Y-107683954D01*
X177031515Y-107489414D01*
X176688080Y-107421100D01*
X176023080Y-107421100D01*
X176023080Y-105916922D01*
X176040417Y-105829761D01*
X176023080Y-105742600D01*
X176023080Y-105742596D01*
X175971732Y-105484451D01*
X175776129Y-105191712D01*
X175702233Y-105142336D01*
X175603865Y-105043968D01*
X175603863Y-105043965D01*
X174739415Y-104179518D01*
X174918000Y-104215040D01*
X176618000Y-104215040D01*
X176865765Y-104165757D01*
X177075809Y-104025409D01*
X177216157Y-103815365D01*
X177265440Y-103567600D01*
X177265440Y-101867600D01*
X177216157Y-101619835D01*
X177075809Y-101409791D01*
X176865765Y-101269443D01*
X176820381Y-101260416D01*
X176838625Y-101248225D01*
X177036438Y-100952177D01*
X177038000Y-100952488D01*
X177112847Y-100937600D01*
X177112852Y-100937600D01*
X177334537Y-100893504D01*
X177585929Y-100725529D01*
X177628330Y-100662071D01*
X178030475Y-100259928D01*
X178093929Y-100217529D01*
X178136327Y-100154076D01*
X178136329Y-100154074D01*
X178235765Y-100005256D01*
X178261904Y-99966137D01*
X178306000Y-99744452D01*
X178306000Y-99744448D01*
X178320888Y-99669601D01*
X178306000Y-99594754D01*
X178306000Y-84250448D01*
X178320888Y-84175600D01*
X178306000Y-84100752D01*
X178306000Y-84100748D01*
X178261904Y-83879063D01*
X178093929Y-83627671D01*
X178030473Y-83585271D01*
X177527931Y-83082730D01*
X177485529Y-83019271D01*
X177234137Y-82851296D01*
X177012452Y-82807200D01*
X177012447Y-82807200D01*
X176937600Y-82792312D01*
X176862753Y-82807200D01*
X163167183Y-82807200D01*
X163149979Y-82765667D01*
X162751933Y-82367621D01*
X162581922Y-82297200D01*
X162751933Y-82226779D01*
X163149979Y-81828733D01*
X163365400Y-81308661D01*
X163365400Y-80745739D01*
X163149979Y-80225667D01*
X162751933Y-79827621D01*
X162581922Y-79757200D01*
X162751933Y-79686779D01*
X163149979Y-79288733D01*
X163365400Y-78768661D01*
X163365400Y-78205739D01*
X163149979Y-77685667D01*
X162751933Y-77287621D01*
X162581922Y-77217200D01*
X162751933Y-77146779D01*
X163149979Y-76748733D01*
X163365400Y-76228661D01*
X163365400Y-75665739D01*
X163149979Y-75145667D01*
X162751933Y-74747621D01*
X162231861Y-74532200D01*
X161668939Y-74532200D01*
X161148867Y-74747621D01*
X160750821Y-75145667D01*
X160535400Y-75665739D01*
X160535400Y-76228661D01*
X160750821Y-76748733D01*
X161148867Y-77146779D01*
X161318878Y-77217200D01*
X161148867Y-77287621D01*
X160750821Y-77685667D01*
X160535400Y-78205739D01*
X160535400Y-78768661D01*
X160750821Y-79288733D01*
X161148867Y-79686779D01*
X161318878Y-79757200D01*
X161148867Y-79827621D01*
X160750821Y-80225667D01*
X160535400Y-80745739D01*
X160535400Y-81308661D01*
X160750821Y-81828733D01*
X161148867Y-82226779D01*
X161318878Y-82297200D01*
X161148867Y-82367621D01*
X160750821Y-82765667D01*
X160535400Y-83285739D01*
X160535400Y-83848661D01*
X160632604Y-84083332D01*
X155770354Y-84085803D01*
X155653280Y-83968729D01*
X155272874Y-83811160D01*
X154861126Y-83811160D01*
X154480720Y-83968729D01*
X154189569Y-84259880D01*
X154032000Y-84640286D01*
X154032000Y-85052034D01*
X154189569Y-85432440D01*
X154480720Y-85723591D01*
X154861126Y-85881160D01*
X155272874Y-85881160D01*
X155653280Y-85723591D01*
X155771070Y-85605801D01*
X160627524Y-85603333D01*
X160535400Y-85825739D01*
X160535400Y-86388661D01*
X160608525Y-86565200D01*
X155540626Y-86565200D01*
X155465779Y-86550312D01*
X155390932Y-86565200D01*
X155390928Y-86565200D01*
X155169243Y-86609296D01*
X154917851Y-86777271D01*
X154875449Y-86840730D01*
X154554588Y-87161591D01*
X154491132Y-87203991D01*
X154448732Y-87267447D01*
X154448731Y-87267448D01*
X154323157Y-87455383D01*
X154264172Y-87751920D01*
X154279061Y-87826772D01*
X154279060Y-90131769D01*
X154161629Y-90249200D01*
X154004060Y-90629606D01*
X154004060Y-91041354D01*
X154161629Y-91421760D01*
X154452780Y-91712911D01*
X154833186Y-91870480D01*
X155175681Y-91870480D01*
X155175681Y-92064998D01*
X155087479Y-92153200D01*
X145314586Y-92153200D01*
X145239739Y-92138312D01*
X145164892Y-92153200D01*
X145164888Y-92153200D01*
X144943203Y-92197296D01*
X144691811Y-92365271D01*
X144649409Y-92428730D01*
X144575099Y-92503040D01*
X144406486Y-92503040D01*
X144026080Y-92660609D01*
X143908649Y-92778040D01*
X142924851Y-92778040D01*
X142917959Y-92761400D01*
X142858127Y-92649463D01*
X142803671Y-92567964D01*
X142723154Y-92469854D01*
X142653846Y-92400546D01*
X142555736Y-92320029D01*
X142530598Y-92303233D01*
X142650071Y-92183760D01*
X142807640Y-91803354D01*
X142807640Y-91391606D01*
X142650071Y-91011200D01*
X142532640Y-90893769D01*
X142532640Y-89643811D01*
X142616226Y-89575214D01*
X142685534Y-89505906D01*
X142766051Y-89407796D01*
X142820507Y-89326297D01*
X142880339Y-89214360D01*
X142917848Y-89123804D01*
X142954690Y-89002351D01*
X142973812Y-88906218D01*
X142986252Y-88779909D01*
X142986252Y-88743006D01*
X142988660Y-88730900D01*
X142988660Y-88230900D01*
X142986252Y-88218794D01*
X142986252Y-88181891D01*
X142973812Y-88055582D01*
X142954690Y-87959449D01*
X142917848Y-87837996D01*
X142880339Y-87747440D01*
X142820507Y-87635503D01*
X142766051Y-87554004D01*
X142685534Y-87455894D01*
X142616226Y-87386586D01*
X142518116Y-87306069D01*
X142436617Y-87251613D01*
X142324680Y-87191781D01*
X142234124Y-87154272D01*
X142112671Y-87117430D01*
X142016538Y-87098308D01*
X141890229Y-87085868D01*
X141853326Y-87085868D01*
X141841220Y-87083460D01*
X141291220Y-87083460D01*
X141166220Y-87108324D01*
X141041220Y-87083460D01*
X140409880Y-87083460D01*
X140409880Y-86677366D01*
X140252311Y-86296960D01*
X139961160Y-86005809D01*
X139580754Y-85848240D01*
X139169006Y-85848240D01*
X138788600Y-86005809D01*
X138497449Y-86296960D01*
X138339880Y-86677366D01*
X138339880Y-87089114D01*
X138464010Y-87388790D01*
X138396906Y-87455894D01*
X138316389Y-87554004D01*
X138261933Y-87635503D01*
X138202101Y-87747440D01*
X138164592Y-87837996D01*
X138127750Y-87959449D01*
X138108628Y-88055582D01*
X138096188Y-88181891D01*
X138096188Y-88218794D01*
X138093780Y-88230900D01*
X138093780Y-88730900D01*
X138096188Y-88743006D01*
X138096188Y-88779909D01*
X138108628Y-88906218D01*
X138127750Y-89002351D01*
X138164592Y-89123804D01*
X138184240Y-89171240D01*
X137864920Y-89171240D01*
X137965400Y-88928661D01*
X137965400Y-88365739D01*
X137749979Y-87845667D01*
X137351933Y-87447621D01*
X137181922Y-87377200D01*
X137351933Y-87306779D01*
X137749979Y-86908733D01*
X137965400Y-86388661D01*
X137965400Y-85825739D01*
X137749979Y-85305667D01*
X137351933Y-84907621D01*
X137181922Y-84837200D01*
X137351933Y-84766779D01*
X137749979Y-84368733D01*
X137965400Y-83848661D01*
X137965400Y-83285739D01*
X137749979Y-82765667D01*
X137351933Y-82367621D01*
X137181922Y-82297200D01*
X137351933Y-82226779D01*
X137749979Y-81828733D01*
X137965400Y-81308661D01*
X137965400Y-80745739D01*
X137749979Y-80225667D01*
X137351933Y-79827621D01*
X137181922Y-79757200D01*
X137351933Y-79686779D01*
X137749979Y-79288733D01*
X137965400Y-78768661D01*
X137965400Y-78205739D01*
X137749979Y-77685667D01*
X137426512Y-77362200D01*
X137456709Y-77362200D01*
X137690098Y-77265527D01*
X137868727Y-77086899D01*
X137965400Y-76853510D01*
X137965400Y-76232950D01*
X137806650Y-76074200D01*
X136677400Y-76074200D01*
X136677400Y-76094200D01*
X136423400Y-76094200D01*
X136423400Y-76074200D01*
X135294150Y-76074200D01*
X135135400Y-76232950D01*
X135135400Y-76853510D01*
X135232073Y-77086899D01*
X135410702Y-77265527D01*
X135644091Y-77362200D01*
X135674288Y-77362200D01*
X135350821Y-77685667D01*
X135135400Y-78205739D01*
X135135400Y-78768661D01*
X135350821Y-79288733D01*
X135748867Y-79686779D01*
X135918878Y-79757200D01*
X135748867Y-79827621D01*
X135350821Y-80225667D01*
X135135400Y-80745739D01*
X135135400Y-81308661D01*
X135350821Y-81828733D01*
X135748867Y-82226779D01*
X135918878Y-82297200D01*
X135748867Y-82367621D01*
X135350821Y-82765667D01*
X135135400Y-83285739D01*
X135135400Y-83848661D01*
X135350821Y-84368733D01*
X135748867Y-84766779D01*
X135918878Y-84837200D01*
X135748867Y-84907621D01*
X135350821Y-85305667D01*
X135135400Y-85825739D01*
X135135400Y-86388661D01*
X135350821Y-86908733D01*
X135748867Y-87306779D01*
X135918878Y-87377200D01*
X135748867Y-87447621D01*
X135350821Y-87845667D01*
X135135400Y-88365739D01*
X135135400Y-88928661D01*
X135246525Y-89196940D01*
X135154043Y-89215336D01*
X134902651Y-89383311D01*
X134860251Y-89446767D01*
X132651659Y-91655360D01*
X127404731Y-91655360D01*
X127498092Y-91186000D01*
X127382839Y-90606582D01*
X127054625Y-90115375D01*
X126756239Y-89916000D01*
X127054625Y-89716625D01*
X127382839Y-89225418D01*
X127498092Y-88646000D01*
X127382839Y-88066582D01*
X127054625Y-87575375D01*
X126756239Y-87376000D01*
X127054625Y-87176625D01*
X127382839Y-86685418D01*
X127498092Y-86106000D01*
X127382839Y-85526582D01*
X127054625Y-85035375D01*
X126563418Y-84707161D01*
X126130256Y-84621000D01*
X125837744Y-84621000D01*
X125404582Y-84707161D01*
X124913375Y-85035375D01*
X124901184Y-85053619D01*
X124892157Y-85008235D01*
X124751809Y-84798191D01*
X124541765Y-84657843D01*
X124294000Y-84608560D01*
X122594000Y-84608560D01*
X122346235Y-84657843D01*
X122136191Y-84798191D01*
X121995843Y-85008235D01*
X121946560Y-85256000D01*
X121946560Y-85346000D01*
X121740848Y-85346000D01*
X121666000Y-85331112D01*
X121591152Y-85346000D01*
X121591148Y-85346000D01*
X121369463Y-85390096D01*
X121118071Y-85558071D01*
X121075671Y-85621527D01*
X120622730Y-86074469D01*
X120559271Y-86116871D01*
X120391296Y-86368264D01*
X120347200Y-86589949D01*
X120347200Y-86589953D01*
X120332312Y-86664800D01*
X114248000Y-86664800D01*
X114248000Y-75040890D01*
X135135400Y-75040890D01*
X135135400Y-75661450D01*
X135294150Y-75820200D01*
X136423400Y-75820200D01*
X136423400Y-74690950D01*
X136677400Y-74690950D01*
X136677400Y-75820200D01*
X137806650Y-75820200D01*
X137965400Y-75661450D01*
X137965400Y-75040890D01*
X137868727Y-74807501D01*
X137690098Y-74628873D01*
X137456709Y-74532200D01*
X136836150Y-74532200D01*
X136677400Y-74690950D01*
X136423400Y-74690950D01*
X136264650Y-74532200D01*
X135644091Y-74532200D01*
X135410702Y-74628873D01*
X135232073Y-74807501D01*
X135135400Y-75040890D01*
X114248000Y-75040890D01*
X114248000Y-66496000D01*
X138811000Y-66496000D01*
X138811000Y-74930000D01*
G36*
X172157375Y-93628225D02*
X172455761Y-93827600D01*
X172157375Y-94026975D01*
X171829161Y-94518182D01*
X171713908Y-95097600D01*
X171829161Y-95677018D01*
X172157375Y-96168225D01*
X172455761Y-96367600D01*
X172157375Y-96566975D01*
X171829161Y-97058182D01*
X171713908Y-97637600D01*
X171829161Y-98217018D01*
X172157375Y-98708225D01*
X172455761Y-98907600D01*
X172157375Y-99106975D01*
X171949822Y-99417600D01*
X165313202Y-99417600D01*
X165250400Y-99354798D01*
X165250400Y-95648911D01*
X165367831Y-95531480D01*
X165525400Y-95151074D01*
X165525400Y-94739326D01*
X165367831Y-94358920D01*
X165076680Y-94067769D01*
X164696274Y-93910200D01*
X164284526Y-93910200D01*
X163904120Y-94067769D01*
X163612969Y-94358920D01*
X163455400Y-94739326D01*
X163455400Y-95151074D01*
X163612969Y-95531480D01*
X163730400Y-95648911D01*
X163730401Y-99594748D01*
X163715512Y-99669600D01*
X163774497Y-99966137D01*
X163895856Y-100147763D01*
X163942472Y-100217529D01*
X164005927Y-100259928D01*
X164408072Y-100662075D01*
X164450471Y-100725529D01*
X164513924Y-100767927D01*
X164513926Y-100767929D01*
X164608355Y-100831024D01*
X164701863Y-100893504D01*
X164923548Y-100937600D01*
X164923552Y-100937600D01*
X164998399Y-100952488D01*
X165073246Y-100937600D01*
X171949822Y-100937600D01*
X172157375Y-101248225D01*
X172455761Y-101447600D01*
X172157375Y-101646975D01*
X171829161Y-102138182D01*
X171713908Y-102717600D01*
X171829161Y-103297018D01*
X172157375Y-103788225D01*
X172329001Y-103902902D01*
X172325663Y-103919681D01*
X172394348Y-104264990D01*
X172540576Y-104483835D01*
X172540578Y-104483837D01*
X172589952Y-104557730D01*
X172663845Y-104607104D01*
X174253081Y-106196341D01*
X174253080Y-107421100D01*
X173588080Y-107421100D01*
X173244645Y-107489414D01*
X172953494Y-107683954D01*
X172758954Y-107975105D01*
X172737890Y-108081000D01*
X171953719Y-108081000D01*
X171866559Y-108063663D01*
X171779400Y-108081000D01*
X171779395Y-108081000D01*
X171521250Y-108132348D01*
X171414016Y-108204000D01*
X171302405Y-108278576D01*
X171302404Y-108278577D01*
X171228511Y-108327951D01*
X171179137Y-108401844D01*
X170631847Y-108949135D01*
X170557951Y-108998511D01*
X170362348Y-109291251D01*
X170311000Y-109549396D01*
X170311000Y-109549399D01*
X170293663Y-109636560D01*
X170311000Y-109723721D01*
X170311001Y-122518620D01*
X170118222Y-122711400D01*
X162907312Y-122711400D01*
X163149979Y-122468733D01*
X163365400Y-121948661D01*
X163365400Y-121385739D01*
X163149979Y-120865667D01*
X162751933Y-120467621D01*
X162581922Y-120397200D01*
X162751933Y-120326779D01*
X163149979Y-119928733D01*
X163365400Y-119408661D01*
X163365400Y-118845739D01*
X163149979Y-118325667D01*
X162751933Y-117927621D01*
X162581922Y-117857200D01*
X162751933Y-117786779D01*
X163149979Y-117388733D01*
X163365400Y-116868661D01*
X163365400Y-116305739D01*
X163149979Y-115785667D01*
X162751933Y-115387621D01*
X162581922Y-115317200D01*
X162751933Y-115246779D01*
X163149979Y-114848733D01*
X163365400Y-114328661D01*
X163365400Y-113765739D01*
X163149979Y-113245667D01*
X162751933Y-112847621D01*
X162581922Y-112777200D01*
X162751933Y-112706779D01*
X163149979Y-112308733D01*
X163365400Y-111788661D01*
X163365400Y-111225739D01*
X163149979Y-110705667D01*
X162751933Y-110307621D01*
X162581922Y-110237200D01*
X162751933Y-110166779D01*
X163149979Y-109768733D01*
X163167183Y-109727200D01*
X167774038Y-109727200D01*
X167848885Y-109742088D01*
X167923732Y-109727200D01*
X167923737Y-109727200D01*
X168145422Y-109683104D01*
X168396814Y-109515129D01*
X168439216Y-109451670D01*
X169038873Y-108852014D01*
X169102329Y-108809614D01*
X169270304Y-108558222D01*
X169298714Y-108415397D01*
X169431831Y-108282280D01*
X169589400Y-107901874D01*
X169589400Y-107490126D01*
X169431831Y-107109720D01*
X169140680Y-106818569D01*
X168760274Y-106661000D01*
X168348526Y-106661000D01*
X167968120Y-106818569D01*
X167676969Y-107109720D01*
X167519400Y-107490126D01*
X167519400Y-107901874D01*
X167613128Y-108128155D01*
X167534084Y-108207200D01*
X165551330Y-108207200D01*
X165677800Y-107901874D01*
X165677800Y-107490126D01*
X165520231Y-107109720D01*
X165229080Y-106818569D01*
X164848674Y-106661000D01*
X164436926Y-106661000D01*
X164056520Y-106818569D01*
X163939089Y-106936000D01*
X163271233Y-106936000D01*
X163365400Y-106708661D01*
X163365400Y-106145739D01*
X163149979Y-105625667D01*
X162751933Y-105227621D01*
X162581922Y-105157200D01*
X162751933Y-105086779D01*
X163149979Y-104688733D01*
X163365400Y-104168661D01*
X163365400Y-103605739D01*
X163270239Y-103376000D01*
X164762049Y-103376000D01*
X164879480Y-103493431D01*
X165259886Y-103651000D01*
X165671634Y-103651000D01*
X166052040Y-103493431D01*
X166343191Y-103202280D01*
X166500760Y-102821874D01*
X166500760Y-102410126D01*
X166343191Y-102029720D01*
X166052040Y-101738569D01*
X165671634Y-101581000D01*
X165259886Y-101581000D01*
X164879480Y-101738569D01*
X164762049Y-101856000D01*
X163271233Y-101856000D01*
X163365400Y-101628661D01*
X163365400Y-101065739D01*
X163149979Y-100545667D01*
X162751933Y-100147621D01*
X162581922Y-100077200D01*
X162751933Y-100006779D01*
X163149979Y-99608733D01*
X163365400Y-99088661D01*
X163365400Y-98525739D01*
X163149979Y-98005667D01*
X162751933Y-97607621D01*
X162581922Y-97537200D01*
X162751933Y-97466779D01*
X163149979Y-97068733D01*
X163365400Y-96548661D01*
X163365400Y-95985739D01*
X163149979Y-95465667D01*
X162751933Y-95067621D01*
X162581922Y-94997200D01*
X162751933Y-94926779D01*
X163149979Y-94528733D01*
X163365400Y-94008661D01*
X163365400Y-93445739D01*
X163270239Y-93216000D01*
X171881935Y-93216000D01*
X172157375Y-93628225D01*
X172157375Y-93628225D01*
G37*
X172157375Y-93628225D02*
X172455761Y-93827600D01*
X172157375Y-94026975D01*
X171829161Y-94518182D01*
X171713908Y-95097600D01*
X171829161Y-95677018D01*
X172157375Y-96168225D01*
X172455761Y-96367600D01*
X172157375Y-96566975D01*
X171829161Y-97058182D01*
X171713908Y-97637600D01*
X171829161Y-98217018D01*
X172157375Y-98708225D01*
X172455761Y-98907600D01*
X172157375Y-99106975D01*
X171949822Y-99417600D01*
X165313202Y-99417600D01*
X165250400Y-99354798D01*
X165250400Y-95648911D01*
X165367831Y-95531480D01*
X165525400Y-95151074D01*
X165525400Y-94739326D01*
X165367831Y-94358920D01*
X165076680Y-94067769D01*
X164696274Y-93910200D01*
X164284526Y-93910200D01*
X163904120Y-94067769D01*
X163612969Y-94358920D01*
X163455400Y-94739326D01*
X163455400Y-95151074D01*
X163612969Y-95531480D01*
X163730400Y-95648911D01*
X163730401Y-99594748D01*
X163715512Y-99669600D01*
X163774497Y-99966137D01*
X163895856Y-100147763D01*
X163942472Y-100217529D01*
X164005927Y-100259928D01*
X164408072Y-100662075D01*
X164450471Y-100725529D01*
X164513924Y-100767927D01*
X164513926Y-100767929D01*
X164608355Y-100831024D01*
X164701863Y-100893504D01*
X164923548Y-100937600D01*
X164923552Y-100937600D01*
X164998399Y-100952488D01*
X165073246Y-100937600D01*
X171949822Y-100937600D01*
X172157375Y-101248225D01*
X172455761Y-101447600D01*
X172157375Y-101646975D01*
X171829161Y-102138182D01*
X171713908Y-102717600D01*
X171829161Y-103297018D01*
X172157375Y-103788225D01*
X172329001Y-103902902D01*
X172325663Y-103919681D01*
X172394348Y-104264990D01*
X172540576Y-104483835D01*
X172540578Y-104483837D01*
X172589952Y-104557730D01*
X172663845Y-104607104D01*
X174253081Y-106196341D01*
X174253080Y-107421100D01*
X173588080Y-107421100D01*
X173244645Y-107489414D01*
X172953494Y-107683954D01*
X172758954Y-107975105D01*
X172737890Y-108081000D01*
X171953719Y-108081000D01*
X171866559Y-108063663D01*
X171779400Y-108081000D01*
X171779395Y-108081000D01*
X171521250Y-108132348D01*
X171414016Y-108204000D01*
X171302405Y-108278576D01*
X171302404Y-108278577D01*
X171228511Y-108327951D01*
X171179137Y-108401844D01*
X170631847Y-108949135D01*
X170557951Y-108998511D01*
X170362348Y-109291251D01*
X170311000Y-109549396D01*
X170311000Y-109549399D01*
X170293663Y-109636560D01*
X170311000Y-109723721D01*
X170311001Y-122518620D01*
X170118222Y-122711400D01*
X162907312Y-122711400D01*
X163149979Y-122468733D01*
X163365400Y-121948661D01*
X163365400Y-121385739D01*
X163149979Y-120865667D01*
X162751933Y-120467621D01*
X162581922Y-120397200D01*
X162751933Y-120326779D01*
X163149979Y-119928733D01*
X163365400Y-119408661D01*
X163365400Y-118845739D01*
X163149979Y-118325667D01*
X162751933Y-117927621D01*
X162581922Y-117857200D01*
X162751933Y-117786779D01*
X163149979Y-117388733D01*
X163365400Y-116868661D01*
X163365400Y-116305739D01*
X163149979Y-115785667D01*
X162751933Y-115387621D01*
X162581922Y-115317200D01*
X162751933Y-115246779D01*
X163149979Y-114848733D01*
X163365400Y-114328661D01*
X163365400Y-113765739D01*
X163149979Y-113245667D01*
X162751933Y-112847621D01*
X162581922Y-112777200D01*
X162751933Y-112706779D01*
X163149979Y-112308733D01*
X163365400Y-111788661D01*
X163365400Y-111225739D01*
X163149979Y-110705667D01*
X162751933Y-110307621D01*
X162581922Y-110237200D01*
X162751933Y-110166779D01*
X163149979Y-109768733D01*
X163167183Y-109727200D01*
X167774038Y-109727200D01*
X167848885Y-109742088D01*
X167923732Y-109727200D01*
X167923737Y-109727200D01*
X168145422Y-109683104D01*
X168396814Y-109515129D01*
X168439216Y-109451670D01*
X169038873Y-108852014D01*
X169102329Y-108809614D01*
X169270304Y-108558222D01*
X169298714Y-108415397D01*
X169431831Y-108282280D01*
X169589400Y-107901874D01*
X169589400Y-107490126D01*
X169431831Y-107109720D01*
X169140680Y-106818569D01*
X168760274Y-106661000D01*
X168348526Y-106661000D01*
X167968120Y-106818569D01*
X167676969Y-107109720D01*
X167519400Y-107490126D01*
X167519400Y-107901874D01*
X167613128Y-108128155D01*
X167534084Y-108207200D01*
X165551330Y-108207200D01*
X165677800Y-107901874D01*
X165677800Y-107490126D01*
X165520231Y-107109720D01*
X165229080Y-106818569D01*
X164848674Y-106661000D01*
X164436926Y-106661000D01*
X164056520Y-106818569D01*
X163939089Y-106936000D01*
X163271233Y-106936000D01*
X163365400Y-106708661D01*
X163365400Y-106145739D01*
X163149979Y-105625667D01*
X162751933Y-105227621D01*
X162581922Y-105157200D01*
X162751933Y-105086779D01*
X163149979Y-104688733D01*
X163365400Y-104168661D01*
X163365400Y-103605739D01*
X163270239Y-103376000D01*
X164762049Y-103376000D01*
X164879480Y-103493431D01*
X165259886Y-103651000D01*
X165671634Y-103651000D01*
X166052040Y-103493431D01*
X166343191Y-103202280D01*
X166500760Y-102821874D01*
X166500760Y-102410126D01*
X166343191Y-102029720D01*
X166052040Y-101738569D01*
X165671634Y-101581000D01*
X165259886Y-101581000D01*
X164879480Y-101738569D01*
X164762049Y-101856000D01*
X163271233Y-101856000D01*
X163365400Y-101628661D01*
X163365400Y-101065739D01*
X163149979Y-100545667D01*
X162751933Y-100147621D01*
X162581922Y-100077200D01*
X162751933Y-100006779D01*
X163149979Y-99608733D01*
X163365400Y-99088661D01*
X163365400Y-98525739D01*
X163149979Y-98005667D01*
X162751933Y-97607621D01*
X162581922Y-97537200D01*
X162751933Y-97466779D01*
X163149979Y-97068733D01*
X163365400Y-96548661D01*
X163365400Y-95985739D01*
X163149979Y-95465667D01*
X162751933Y-95067621D01*
X162581922Y-94997200D01*
X162751933Y-94926779D01*
X163149979Y-94528733D01*
X163365400Y-94008661D01*
X163365400Y-93445739D01*
X163270239Y-93216000D01*
X171881935Y-93216000D01*
X172157375Y-93628225D01*
G36*
X155683000Y-107998126D02*
X155683000Y-108409874D01*
X155840569Y-108790280D01*
X156131720Y-109081431D01*
X156512126Y-109239000D01*
X156923874Y-109239000D01*
X157304280Y-109081431D01*
X157421711Y-108964000D01*
X160453153Y-108964000D01*
X160528000Y-108978888D01*
X160535400Y-108977416D01*
X160535400Y-109248661D01*
X160750821Y-109768733D01*
X161148867Y-110166779D01*
X161318878Y-110237200D01*
X161148867Y-110307621D01*
X160772594Y-110683894D01*
X160851800Y-110492674D01*
X160851800Y-110080926D01*
X160694231Y-109700520D01*
X160403080Y-109409369D01*
X160022674Y-109251800D01*
X159610926Y-109251800D01*
X159230520Y-109409369D01*
X159113089Y-109526800D01*
X142773246Y-109526800D01*
X142698399Y-109511912D01*
X142623552Y-109526800D01*
X142623548Y-109526800D01*
X142401863Y-109570896D01*
X142150471Y-109738871D01*
X142108071Y-109802327D01*
X141700200Y-110210198D01*
X141700200Y-110030126D01*
X141542631Y-109649720D01*
X141251480Y-109358569D01*
X140871074Y-109201000D01*
X140459326Y-109201000D01*
X140078920Y-109358569D01*
X139961489Y-109476000D01*
X137871233Y-109476000D01*
X137965400Y-109248661D01*
X137965400Y-108685739D01*
X137870239Y-108456000D01*
X143546913Y-108456000D01*
X143621760Y-108470888D01*
X143696607Y-108456000D01*
X143696612Y-108456000D01*
X143918297Y-108411904D01*
X144169689Y-108243929D01*
X144212091Y-108180470D01*
X144406415Y-107986146D01*
X144524869Y-108272120D01*
X144816020Y-108563271D01*
X145196426Y-108720840D01*
X145608174Y-108720840D01*
X145988580Y-108563271D01*
X146106011Y-108445840D01*
X146702067Y-108445840D01*
X146776914Y-108460728D01*
X146851761Y-108445840D01*
X146851766Y-108445840D01*
X147073451Y-108401744D01*
X147324843Y-108233769D01*
X147367245Y-108170310D01*
X147573841Y-107963714D01*
X155697254Y-107963714D01*
X155683000Y-107998126D01*
X155683000Y-107998126D01*
G37*
X155683000Y-107998126D02*
X155683000Y-108409874D01*
X155840569Y-108790280D01*
X156131720Y-109081431D01*
X156512126Y-109239000D01*
X156923874Y-109239000D01*
X157304280Y-109081431D01*
X157421711Y-108964000D01*
X160453153Y-108964000D01*
X160528000Y-108978888D01*
X160535400Y-108977416D01*
X160535400Y-109248661D01*
X160750821Y-109768733D01*
X161148867Y-110166779D01*
X161318878Y-110237200D01*
X161148867Y-110307621D01*
X160772594Y-110683894D01*
X160851800Y-110492674D01*
X160851800Y-110080926D01*
X160694231Y-109700520D01*
X160403080Y-109409369D01*
X160022674Y-109251800D01*
X159610926Y-109251800D01*
X159230520Y-109409369D01*
X159113089Y-109526800D01*
X142773246Y-109526800D01*
X142698399Y-109511912D01*
X142623552Y-109526800D01*
X142623548Y-109526800D01*
X142401863Y-109570896D01*
X142150471Y-109738871D01*
X142108071Y-109802327D01*
X141700200Y-110210198D01*
X141700200Y-110030126D01*
X141542631Y-109649720D01*
X141251480Y-109358569D01*
X140871074Y-109201000D01*
X140459326Y-109201000D01*
X140078920Y-109358569D01*
X139961489Y-109476000D01*
X137871233Y-109476000D01*
X137965400Y-109248661D01*
X137965400Y-108685739D01*
X137870239Y-108456000D01*
X143546913Y-108456000D01*
X143621760Y-108470888D01*
X143696607Y-108456000D01*
X143696612Y-108456000D01*
X143918297Y-108411904D01*
X144169689Y-108243929D01*
X144212091Y-108180470D01*
X144406415Y-107986146D01*
X144524869Y-108272120D01*
X144816020Y-108563271D01*
X145196426Y-108720840D01*
X145608174Y-108720840D01*
X145988580Y-108563271D01*
X146106011Y-108445840D01*
X146702067Y-108445840D01*
X146776914Y-108460728D01*
X146851761Y-108445840D01*
X146851766Y-108445840D01*
X147073451Y-108401744D01*
X147324843Y-108233769D01*
X147367245Y-108170310D01*
X147573841Y-107963714D01*
X155697254Y-107963714D01*
X155683000Y-107998126D01*
G36*
X160535400Y-103605739D02*
X160535400Y-104168661D01*
X160750821Y-104688733D01*
X161148867Y-105086779D01*
X161318878Y-105157200D01*
X161148867Y-105227621D01*
X160750821Y-105625667D01*
X160730130Y-105675620D01*
X160550777Y-105711296D01*
X160299385Y-105879271D01*
X160256985Y-105942727D01*
X159785000Y-106414713D01*
X159785000Y-106169326D01*
X159627431Y-105788920D01*
X159494314Y-105655803D01*
X159465904Y-105512978D01*
X159297929Y-105261586D01*
X159234472Y-105219185D01*
X159042415Y-105027129D01*
X159042414Y-105027127D01*
X158686816Y-104671529D01*
X158644414Y-104608071D01*
X158393022Y-104440096D01*
X158171337Y-104396000D01*
X158171332Y-104396000D01*
X158096485Y-104381112D01*
X158021638Y-104396000D01*
X144226411Y-104396000D01*
X144108980Y-104278569D01*
X144106882Y-104277700D01*
X158565933Y-104277700D01*
X158640780Y-104292588D01*
X158715627Y-104277700D01*
X158715632Y-104277700D01*
X158937317Y-104233604D01*
X159188709Y-104065629D01*
X159231111Y-104002171D01*
X159857282Y-103376000D01*
X160630561Y-103376000D01*
X160535400Y-103605739D01*
X160535400Y-103605739D01*
G37*
X160535400Y-103605739D02*
X160535400Y-104168661D01*
X160750821Y-104688733D01*
X161148867Y-105086779D01*
X161318878Y-105157200D01*
X161148867Y-105227621D01*
X160750821Y-105625667D01*
X160730130Y-105675620D01*
X160550777Y-105711296D01*
X160299385Y-105879271D01*
X160256985Y-105942727D01*
X159785000Y-106414713D01*
X159785000Y-106169326D01*
X159627431Y-105788920D01*
X159494314Y-105655803D01*
X159465904Y-105512978D01*
X159297929Y-105261586D01*
X159234472Y-105219185D01*
X159042415Y-105027129D01*
X159042414Y-105027127D01*
X158686816Y-104671529D01*
X158644414Y-104608071D01*
X158393022Y-104440096D01*
X158171337Y-104396000D01*
X158171332Y-104396000D01*
X158096485Y-104381112D01*
X158021638Y-104396000D01*
X144226411Y-104396000D01*
X144108980Y-104278569D01*
X144106882Y-104277700D01*
X158565933Y-104277700D01*
X158640780Y-104292588D01*
X158715627Y-104277700D01*
X158715632Y-104277700D01*
X158937317Y-104233604D01*
X159188709Y-104065629D01*
X159231111Y-104002171D01*
X159857282Y-103376000D01*
X160630561Y-103376000D01*
X160535400Y-103605739D01*
G36*
X148903768Y-95456280D02*
X148903772Y-95456280D01*
X148978619Y-95471168D01*
X149053466Y-95456280D01*
X154857509Y-95456280D01*
X154608669Y-95705120D01*
X154451100Y-96085526D01*
X154451100Y-96497274D01*
X154608669Y-96877680D01*
X154899820Y-97168831D01*
X155042028Y-97227736D01*
X154876960Y-97296109D01*
X154585809Y-97587260D01*
X154428240Y-97967666D01*
X154428240Y-98379414D01*
X154585809Y-98759820D01*
X154876960Y-99050971D01*
X155257366Y-99208540D01*
X155669114Y-99208540D01*
X156049520Y-99050971D01*
X156166951Y-98933540D01*
X159204819Y-98933540D01*
X159562950Y-99291672D01*
X159605351Y-99355129D01*
X159856743Y-99523104D01*
X160078428Y-99567200D01*
X160078432Y-99567200D01*
X160153280Y-99582088D01*
X160228128Y-99567200D01*
X160733617Y-99567200D01*
X160750821Y-99608733D01*
X161148867Y-100006779D01*
X161318878Y-100077200D01*
X161148867Y-100147621D01*
X160750821Y-100545667D01*
X160535400Y-101065739D01*
X160535400Y-101628661D01*
X160629567Y-101856000D01*
X159617326Y-101856000D01*
X159542479Y-101841112D01*
X159467632Y-101856000D01*
X159467628Y-101856000D01*
X159245943Y-101900096D01*
X159209365Y-101924537D01*
X159058006Y-102025671D01*
X159058004Y-102025673D01*
X158994551Y-102068071D01*
X158952153Y-102131525D01*
X158325978Y-102757700D01*
X143465468Y-102757700D01*
X143390620Y-102742812D01*
X143315772Y-102757700D01*
X143315768Y-102757700D01*
X143142225Y-102792220D01*
X143094082Y-102801796D01*
X143047080Y-102833202D01*
X143047080Y-102437120D01*
X143044672Y-102425014D01*
X143044672Y-102388111D01*
X143032232Y-102261802D01*
X143013110Y-102165669D01*
X142976268Y-102044216D01*
X142938759Y-101953660D01*
X142878927Y-101841723D01*
X142824471Y-101760224D01*
X142743954Y-101662114D01*
X142674646Y-101592806D01*
X142650122Y-101572679D01*
X142749220Y-101333434D01*
X142749220Y-100921686D01*
X142675852Y-100744560D01*
X144166673Y-100744560D01*
X144241520Y-100759448D01*
X144316367Y-100744560D01*
X144316372Y-100744560D01*
X144538057Y-100700464D01*
X144789449Y-100532489D01*
X144831851Y-100469031D01*
X145033333Y-100267549D01*
X145096789Y-100225149D01*
X145264764Y-99973757D01*
X145308860Y-99752072D01*
X145308860Y-99752068D01*
X145323748Y-99677221D01*
X145308860Y-99602374D01*
X145308860Y-96728121D01*
X146585783Y-95451200D01*
X148878229Y-95451200D01*
X148903768Y-95456280D01*
X148903768Y-95456280D01*
G37*
X148903768Y-95456280D02*
X148903772Y-95456280D01*
X148978619Y-95471168D01*
X149053466Y-95456280D01*
X154857509Y-95456280D01*
X154608669Y-95705120D01*
X154451100Y-96085526D01*
X154451100Y-96497274D01*
X154608669Y-96877680D01*
X154899820Y-97168831D01*
X155042028Y-97227736D01*
X154876960Y-97296109D01*
X154585809Y-97587260D01*
X154428240Y-97967666D01*
X154428240Y-98379414D01*
X154585809Y-98759820D01*
X154876960Y-99050971D01*
X155257366Y-99208540D01*
X155669114Y-99208540D01*
X156049520Y-99050971D01*
X156166951Y-98933540D01*
X159204819Y-98933540D01*
X159562950Y-99291672D01*
X159605351Y-99355129D01*
X159856743Y-99523104D01*
X160078428Y-99567200D01*
X160078432Y-99567200D01*
X160153280Y-99582088D01*
X160228128Y-99567200D01*
X160733617Y-99567200D01*
X160750821Y-99608733D01*
X161148867Y-100006779D01*
X161318878Y-100077200D01*
X161148867Y-100147621D01*
X160750821Y-100545667D01*
X160535400Y-101065739D01*
X160535400Y-101628661D01*
X160629567Y-101856000D01*
X159617326Y-101856000D01*
X159542479Y-101841112D01*
X159467632Y-101856000D01*
X159467628Y-101856000D01*
X159245943Y-101900096D01*
X159209365Y-101924537D01*
X159058006Y-102025671D01*
X159058004Y-102025673D01*
X158994551Y-102068071D01*
X158952153Y-102131525D01*
X158325978Y-102757700D01*
X143465468Y-102757700D01*
X143390620Y-102742812D01*
X143315772Y-102757700D01*
X143315768Y-102757700D01*
X143142225Y-102792220D01*
X143094082Y-102801796D01*
X143047080Y-102833202D01*
X143047080Y-102437120D01*
X143044672Y-102425014D01*
X143044672Y-102388111D01*
X143032232Y-102261802D01*
X143013110Y-102165669D01*
X142976268Y-102044216D01*
X142938759Y-101953660D01*
X142878927Y-101841723D01*
X142824471Y-101760224D01*
X142743954Y-101662114D01*
X142674646Y-101592806D01*
X142650122Y-101572679D01*
X142749220Y-101333434D01*
X142749220Y-100921686D01*
X142675852Y-100744560D01*
X144166673Y-100744560D01*
X144241520Y-100759448D01*
X144316367Y-100744560D01*
X144316372Y-100744560D01*
X144538057Y-100700464D01*
X144789449Y-100532489D01*
X144831851Y-100469031D01*
X145033333Y-100267549D01*
X145096789Y-100225149D01*
X145264764Y-99973757D01*
X145308860Y-99752072D01*
X145308860Y-99752068D01*
X145323748Y-99677221D01*
X145308860Y-99602374D01*
X145308860Y-96728121D01*
X146585783Y-95451200D01*
X148878229Y-95451200D01*
X148903768Y-95456280D01*
G36*
X160750821Y-97068733D02*
X161148867Y-97466779D01*
X161318878Y-97537200D01*
X161148867Y-97607621D01*
X160750821Y-98005667D01*
X160733617Y-98047200D01*
X160468082Y-98047200D01*
X160109951Y-97689070D01*
X160067549Y-97625611D01*
X159816157Y-97457636D01*
X159594472Y-97413540D01*
X159594467Y-97413540D01*
X159519620Y-97398652D01*
X159444773Y-97413540D01*
X156166951Y-97413540D01*
X156049520Y-97296109D01*
X155907312Y-97237204D01*
X156072380Y-97168831D01*
X156189811Y-97051400D01*
X160743641Y-97051400D01*
X160750821Y-97068733D01*
X160750821Y-97068733D01*
G37*
X160750821Y-97068733D02*
X161148867Y-97466779D01*
X161318878Y-97537200D01*
X161148867Y-97607621D01*
X160750821Y-98005667D01*
X160733617Y-98047200D01*
X160468082Y-98047200D01*
X160109951Y-97689070D01*
X160067549Y-97625611D01*
X159816157Y-97457636D01*
X159594472Y-97413540D01*
X159594467Y-97413540D01*
X159519620Y-97398652D01*
X159444773Y-97413540D01*
X156166951Y-97413540D01*
X156049520Y-97296109D01*
X155907312Y-97237204D01*
X156072380Y-97168831D01*
X156189811Y-97051400D01*
X160743641Y-97051400D01*
X160750821Y-97068733D01*
G36*
X160750821Y-94528733D02*
X161148867Y-94926779D01*
X161318878Y-94997200D01*
X161148867Y-95067621D01*
X160750821Y-95465667D01*
X160723593Y-95531400D01*
X158182251Y-95531400D01*
X158431091Y-95282560D01*
X158588660Y-94902154D01*
X158588660Y-94490406D01*
X158586835Y-94486000D01*
X160733120Y-94486000D01*
X160750821Y-94528733D01*
X160750821Y-94528733D01*
G37*
X160750821Y-94528733D02*
X161148867Y-94926779D01*
X161318878Y-94997200D01*
X161148867Y-95067621D01*
X160750821Y-95465667D01*
X160723593Y-95531400D01*
X158182251Y-95531400D01*
X158431091Y-95282560D01*
X158588660Y-94902154D01*
X158588660Y-94490406D01*
X158586835Y-94486000D01*
X160733120Y-94486000D01*
X160750821Y-94528733D01*
G36*
X175008001Y-85862002D02*
X175008001Y-86199422D01*
X174697375Y-86406975D01*
X174496647Y-86707386D01*
X174109358Y-86282417D01*
X173584892Y-86036114D01*
X173355000Y-86156781D01*
X173355000Y-87350600D01*
X173375000Y-87350600D01*
X173375000Y-87604600D01*
X173355000Y-87604600D01*
X173355000Y-87624600D01*
X173101000Y-87624600D01*
X173101000Y-87604600D01*
X171907845Y-87604600D01*
X171786524Y-87834490D01*
X171956355Y-88244524D01*
X172346642Y-88672783D01*
X172476478Y-88733757D01*
X172157375Y-88946975D01*
X171829161Y-89438182D01*
X171713908Y-90017600D01*
X171815353Y-90527600D01*
X165414803Y-90527600D01*
X164318731Y-89431530D01*
X164276329Y-89368071D01*
X164024937Y-89200096D01*
X163803252Y-89156000D01*
X163803247Y-89156000D01*
X163728400Y-89141112D01*
X163653553Y-89156000D01*
X163271233Y-89156000D01*
X163365400Y-88928661D01*
X163365400Y-88365739D01*
X163249197Y-88085200D01*
X169933489Y-88085200D01*
X170050920Y-88202631D01*
X170431326Y-88360200D01*
X170843074Y-88360200D01*
X171223480Y-88202631D01*
X171514631Y-87911480D01*
X171672200Y-87531074D01*
X171672200Y-87120710D01*
X171786524Y-87120710D01*
X171907845Y-87350600D01*
X173101000Y-87350600D01*
X173101000Y-86156781D01*
X172871108Y-86036114D01*
X172346642Y-86282417D01*
X171956355Y-86710676D01*
X171786524Y-87120710D01*
X171672200Y-87120710D01*
X171672200Y-87119326D01*
X171514631Y-86738920D01*
X171223480Y-86447769D01*
X170843074Y-86290200D01*
X170431326Y-86290200D01*
X170050920Y-86447769D01*
X169933489Y-86565200D01*
X163292275Y-86565200D01*
X163365400Y-86388661D01*
X163365400Y-85825739D01*
X163272719Y-85601989D01*
X174742158Y-85596159D01*
X175008001Y-85862002D01*
X175008001Y-85862002D01*
G37*
X175008001Y-85862002D02*
X175008001Y-86199422D01*
X174697375Y-86406975D01*
X174496647Y-86707386D01*
X174109358Y-86282417D01*
X173584892Y-86036114D01*
X173355000Y-86156781D01*
X173355000Y-87350600D01*
X173375000Y-87350600D01*
X173375000Y-87604600D01*
X173355000Y-87604600D01*
X173355000Y-87624600D01*
X173101000Y-87624600D01*
X173101000Y-87604600D01*
X171907845Y-87604600D01*
X171786524Y-87834490D01*
X171956355Y-88244524D01*
X172346642Y-88672783D01*
X172476478Y-88733757D01*
X172157375Y-88946975D01*
X171829161Y-89438182D01*
X171713908Y-90017600D01*
X171815353Y-90527600D01*
X165414803Y-90527600D01*
X164318731Y-89431530D01*
X164276329Y-89368071D01*
X164024937Y-89200096D01*
X163803252Y-89156000D01*
X163803247Y-89156000D01*
X163728400Y-89141112D01*
X163653553Y-89156000D01*
X163271233Y-89156000D01*
X163365400Y-88928661D01*
X163365400Y-88365739D01*
X163249197Y-88085200D01*
X169933489Y-88085200D01*
X170050920Y-88202631D01*
X170431326Y-88360200D01*
X170843074Y-88360200D01*
X171223480Y-88202631D01*
X171514631Y-87911480D01*
X171672200Y-87531074D01*
X171672200Y-87120710D01*
X171786524Y-87120710D01*
X171907845Y-87350600D01*
X173101000Y-87350600D01*
X173101000Y-86156781D01*
X172871108Y-86036114D01*
X172346642Y-86282417D01*
X171956355Y-86710676D01*
X171786524Y-87120710D01*
X171672200Y-87120710D01*
X171672200Y-87119326D01*
X171514631Y-86738920D01*
X171223480Y-86447769D01*
X170843074Y-86290200D01*
X170431326Y-86290200D01*
X170050920Y-86447769D01*
X169933489Y-86565200D01*
X163292275Y-86565200D01*
X163365400Y-86388661D01*
X163365400Y-85825739D01*
X163272719Y-85601989D01*
X174742158Y-85596159D01*
X175008001Y-85862002D01*
G04 #@! TD*
M02*
