G04 #@! TF.GenerationSoftware,KiCad,Pcbnew,5.0.2-bee76a0~70~ubuntu18.04.1*
G04 #@! TF.CreationDate,2020-08-06T15:01:45+02:00*
G04 #@! TF.ProjectId,panel_led_mod,70616e65-6c5f-46c6-9564-5f6d6f642e6b,rev?*
G04 #@! TF.SameCoordinates,Original*
G04 #@! TF.FileFunction,Copper,L1,Top*
G04 #@! TF.FilePolarity,Positive*
%FSLAX46Y46*%
G04 Gerber Fmt 4.6, Leading zero omitted, Abs format (unit mm)*
G04 Created by KiCad (PCBNEW 5.0.2-bee76a0~70~ubuntu18.04.1) date jue 06 ago 2020 15:01:45 CEST*
%MOMM*%
%LPD*%
G01*
G04 APERTURE LIST*
G04 #@! TA.AperFunction,ComponentPad*
%ADD10R,1.560000X1.560000*%
G04 #@! TD*
G04 #@! TA.AperFunction,ComponentPad*
%ADD11C,1.560000*%
G04 #@! TD*
G04 #@! TA.AperFunction,ComponentPad*
%ADD12R,1.700000X1.700000*%
G04 #@! TD*
G04 #@! TA.AperFunction,ComponentPad*
%ADD13O,1.700000X1.700000*%
G04 #@! TD*
G04 #@! TA.AperFunction,Conductor*
%ADD14C,0.100000*%
G04 #@! TD*
G04 #@! TA.AperFunction,ComponentPad*
%ADD15C,1.800000*%
G04 #@! TD*
G04 #@! TA.AperFunction,ComponentPad*
%ADD16O,3.600000X1.800000*%
G04 #@! TD*
G04 #@! TA.AperFunction,SMDPad,CuDef*
%ADD17R,0.900000X1.200000*%
G04 #@! TD*
G04 #@! TA.AperFunction,ViaPad*
%ADD18C,0.800000*%
G04 #@! TD*
G04 #@! TA.AperFunction,Conductor*
%ADD19C,0.250000*%
G04 #@! TD*
G04 #@! TA.AperFunction,Conductor*
%ADD20C,0.500000*%
G04 #@! TD*
G04 #@! TA.AperFunction,Conductor*
%ADD21C,0.254000*%
G04 #@! TD*
G04 APERTURE END LIST*
D10*
G04 #@! TO.P,U1,1*
G04 #@! TO.N,+3V3*
X136550400Y-75947200D03*
D11*
G04 #@! TO.P,U1,2*
G04 #@! TO.N,N/C*
X136550400Y-78487200D03*
G04 #@! TO.P,U1,19*
G04 #@! TO.N,Net-(D1-Pad1)*
X136550400Y-121667200D03*
G04 #@! TO.P,U1,3*
G04 #@! TO.N,N/C*
X136550400Y-81027200D03*
G04 #@! TO.P,U1,4*
X136550400Y-83567200D03*
G04 #@! TO.P,U1,5*
G04 #@! TO.N,GPIO34*
X136550400Y-86107200D03*
G04 #@! TO.P,U1,6*
G04 #@! TO.N,GPIO25*
X136550400Y-88647200D03*
G04 #@! TO.P,U1,7*
G04 #@! TO.N,GPIO32*
X136550400Y-91187200D03*
G04 #@! TO.P,U1,8*
G04 #@! TO.N,GPIO33*
X136550400Y-93727200D03*
G04 #@! TO.P,U1,9*
G04 #@! TO.N,DE*
X136550400Y-96267200D03*
G04 #@! TO.P,U1,10*
G04 #@! TO.N,LAT*
X136550400Y-98807200D03*
G04 #@! TO.P,U1,11*
G04 #@! TO.N,G2*
X136550400Y-101347200D03*
G04 #@! TO.P,U1,12*
G04 #@! TO.N,GPIO14*
X136550400Y-103887200D03*
G04 #@! TO.P,U1,13*
G04 #@! TO.N,GPIO12*
X136550400Y-106427200D03*
G04 #@! TO.P,U1,14*
G04 #@! TO.N,GND*
X136550400Y-108967200D03*
G04 #@! TO.P,U1,15*
G04 #@! TO.N,GPIO13*
X136550400Y-111507200D03*
G04 #@! TO.P,U1,16*
G04 #@! TO.N,N/C*
X136550400Y-114047200D03*
G04 #@! TO.P,U1,17*
X136550400Y-116587200D03*
G04 #@! TO.P,U1,18*
X136550400Y-119127200D03*
G04 #@! TO.P,U1,20*
G04 #@! TO.N,GND*
X161950400Y-75947200D03*
G04 #@! TO.P,U1,21*
G04 #@! TO.N,GPIO23*
X161950400Y-78487200D03*
G04 #@! TO.P,U1,22*
G04 #@! TO.N,CLK*
X161950400Y-81027200D03*
G04 #@! TO.P,U1,23*
G04 #@! TO.N,TXD*
X161950400Y-83567200D03*
G04 #@! TO.P,U1,24*
G04 #@! TO.N,RXD*
X161950400Y-86107200D03*
G04 #@! TO.P,U1,25*
G04 #@! TO.N,D*
X161950400Y-88647200D03*
G04 #@! TO.P,U1,26*
G04 #@! TO.N,GND*
X161950400Y-91187200D03*
G04 #@! TO.P,U1,27*
G04 #@! TO.N,C*
X161950400Y-93727200D03*
G04 #@! TO.P,U1,28*
G04 #@! TO.N,B*
X161950400Y-96267200D03*
G04 #@! TO.P,U1,29*
G04 #@! TO.N,A*
X161950400Y-98807200D03*
G04 #@! TO.P,U1,30*
G04 #@! TO.N,B2*
X161950400Y-101347200D03*
G04 #@! TO.P,U1,31*
G04 #@! TO.N,R2*
X161950400Y-103887200D03*
G04 #@! TO.P,U1,32*
G04 #@! TO.N,B1*
X161950400Y-106427200D03*
G04 #@! TO.P,U1,33*
G04 #@! TO.N,GPIO0*
X161950400Y-108967200D03*
G04 #@! TO.P,U1,34*
G04 #@! TO.N,R1*
X161950400Y-111507200D03*
G04 #@! TO.P,U1,35*
G04 #@! TO.N,G1*
X161950400Y-114047200D03*
G04 #@! TO.P,U1,36*
G04 #@! TO.N,N/C*
X161950400Y-116587200D03*
G04 #@! TO.P,U1,37*
X161950400Y-119127200D03*
G04 #@! TO.P,U1,38*
X161950400Y-121667200D03*
G04 #@! TD*
D12*
G04 #@! TO.P,J1,1*
G04 #@! TO.N,R1*
X123444000Y-86106000D03*
D13*
G04 #@! TO.P,J1,2*
G04 #@! TO.N,G1*
X125984000Y-86106000D03*
G04 #@! TO.P,J1,3*
G04 #@! TO.N,B1*
X123444000Y-88646000D03*
G04 #@! TO.P,J1,4*
G04 #@! TO.N,GND*
X125984000Y-88646000D03*
G04 #@! TO.P,J1,5*
G04 #@! TO.N,R2*
X123444000Y-91186000D03*
G04 #@! TO.P,J1,6*
G04 #@! TO.N,G2*
X125984000Y-91186000D03*
G04 #@! TO.P,J1,7*
G04 #@! TO.N,B2*
X123444000Y-93726000D03*
G04 #@! TO.P,J1,8*
G04 #@! TO.N,N/C*
X125984000Y-93726000D03*
G04 #@! TO.P,J1,9*
G04 #@! TO.N,A*
X123444000Y-96266000D03*
G04 #@! TO.P,J1,10*
G04 #@! TO.N,N/C*
X125984000Y-96266000D03*
G04 #@! TO.P,J1,11*
G04 #@! TO.N,C*
X123444000Y-98806000D03*
G04 #@! TO.P,J1,12*
G04 #@! TO.N,N/C*
X125984000Y-98806000D03*
G04 #@! TO.P,J1,13*
G04 #@! TO.N,CLK*
X123444000Y-101346000D03*
G04 #@! TO.P,J1,14*
G04 #@! TO.N,N/C*
X125984000Y-101346000D03*
G04 #@! TO.P,J1,15*
G04 #@! TO.N,DE*
X123444000Y-103886000D03*
G04 #@! TO.P,J1,16*
G04 #@! TO.N,N/C*
X125984000Y-103886000D03*
G04 #@! TD*
G04 #@! TO.P,J2,14*
G04 #@! TO.N,+3V3*
X173228000Y-87477600D03*
G04 #@! TO.P,J2,13*
G04 #@! TO.N,GPIO34*
X175768000Y-87477600D03*
G04 #@! TO.P,J2,12*
G04 #@! TO.N,GPIO33*
X173228000Y-90017600D03*
G04 #@! TO.P,J2,11*
G04 #@! TO.N,GPIO32*
X175768000Y-90017600D03*
G04 #@! TO.P,J2,10*
G04 #@! TO.N,GPIO25*
X173228000Y-92557600D03*
G04 #@! TO.P,J2,9*
G04 #@! TO.N,GPIO23*
X175768000Y-92557600D03*
G04 #@! TO.P,J2,8*
G04 #@! TO.N,GPIO14*
X173228000Y-95097600D03*
G04 #@! TO.P,J2,7*
G04 #@! TO.N,GPIO13*
X175768000Y-95097600D03*
G04 #@! TO.P,J2,6*
G04 #@! TO.N,GPIO12*
X173228000Y-97637600D03*
G04 #@! TO.P,J2,5*
G04 #@! TO.N,GPIO0*
X175768000Y-97637600D03*
G04 #@! TO.P,J2,4*
G04 #@! TO.N,RXD*
X173228000Y-100177600D03*
G04 #@! TO.P,J2,3*
G04 #@! TO.N,TXD*
X175768000Y-100177600D03*
G04 #@! TO.P,J2,2*
G04 #@! TO.N,+5V*
X173228000Y-102717600D03*
D12*
G04 #@! TO.P,J2,1*
G04 #@! TO.N,GND*
X175768000Y-102717600D03*
G04 #@! TD*
D14*
G04 #@! TO.N,+5V*
G04 #@! TO.C,J3*
G36*
X176712584Y-108069744D02*
X176736853Y-108073344D01*
X176760651Y-108079305D01*
X176783751Y-108087570D01*
X176805929Y-108098060D01*
X176826973Y-108110673D01*
X176846678Y-108125287D01*
X176864857Y-108141763D01*
X176881333Y-108159942D01*
X176895947Y-108179647D01*
X176908560Y-108200691D01*
X176919050Y-108222869D01*
X176927315Y-108245969D01*
X176933276Y-108269767D01*
X176936876Y-108294036D01*
X176938080Y-108318540D01*
X176938080Y-109618540D01*
X176936876Y-109643044D01*
X176933276Y-109667313D01*
X176927315Y-109691111D01*
X176919050Y-109714211D01*
X176908560Y-109736389D01*
X176895947Y-109757433D01*
X176881333Y-109777138D01*
X176864857Y-109795317D01*
X176846678Y-109811793D01*
X176826973Y-109826407D01*
X176805929Y-109839020D01*
X176783751Y-109849510D01*
X176760651Y-109857775D01*
X176736853Y-109863736D01*
X176712584Y-109867336D01*
X176688080Y-109868540D01*
X173588080Y-109868540D01*
X173563576Y-109867336D01*
X173539307Y-109863736D01*
X173515509Y-109857775D01*
X173492409Y-109849510D01*
X173470231Y-109839020D01*
X173449187Y-109826407D01*
X173429482Y-109811793D01*
X173411303Y-109795317D01*
X173394827Y-109777138D01*
X173380213Y-109757433D01*
X173367600Y-109736389D01*
X173357110Y-109714211D01*
X173348845Y-109691111D01*
X173342884Y-109667313D01*
X173339284Y-109643044D01*
X173338080Y-109618540D01*
X173338080Y-108318540D01*
X173339284Y-108294036D01*
X173342884Y-108269767D01*
X173348845Y-108245969D01*
X173357110Y-108222869D01*
X173367600Y-108200691D01*
X173380213Y-108179647D01*
X173394827Y-108159942D01*
X173411303Y-108141763D01*
X173429482Y-108125287D01*
X173449187Y-108110673D01*
X173470231Y-108098060D01*
X173492409Y-108087570D01*
X173515509Y-108079305D01*
X173539307Y-108073344D01*
X173563576Y-108069744D01*
X173588080Y-108068540D01*
X176688080Y-108068540D01*
X176712584Y-108069744D01*
X176712584Y-108069744D01*
G37*
D15*
G04 #@! TD*
G04 #@! TO.P,J3,1*
G04 #@! TO.N,+5V*
X175138080Y-108968540D03*
D16*
G04 #@! TO.P,J3,2*
G04 #@! TO.N,GND*
X175138080Y-112468540D03*
G04 #@! TD*
D17*
G04 #@! TO.P,D1,1*
G04 #@! TO.N,Net-(D1-Pad1)*
X151941260Y-121691400D03*
G04 #@! TO.P,D1,2*
G04 #@! TO.N,+5V*
X155241260Y-121691400D03*
G04 #@! TD*
D18*
G04 #@! TO.N,GND*
X138196320Y-105519220D03*
X141714220Y-101127560D03*
X139374880Y-86883240D03*
X133197600Y-98877120D03*
X130469640Y-98841560D03*
G04 #@! TO.N,+5V*
X156565600Y-121666000D03*
G04 #@! TO.N,RXD*
X164490400Y-94945200D03*
G04 #@! TO.N,GPIO12*
X164642800Y-107696000D03*
X156718000Y-108204000D03*
G04 #@! TO.N,GPIO13*
X159816800Y-110286800D03*
G04 #@! TO.N,GPIO14*
X165465760Y-102616000D03*
G04 #@! TO.N,GPIO25*
X157581600Y-92456000D03*
G04 #@! TO.N,GPIO32*
X156964380Y-89916000D03*
G04 #@! TO.N,GPIO33*
X170637200Y-87325200D03*
X155039060Y-90835480D03*
G04 #@! TO.N,GPIO34*
X155067000Y-84846160D03*
G04 #@! TO.N,+3V3*
X170688000Y-85953600D03*
X170688000Y-82397600D03*
G04 #@! TO.N,GPIO0*
X168554400Y-107696000D03*
G04 #@! TO.N,R1*
X140665200Y-110236000D03*
X156718000Y-111506000D03*
G04 #@! TO.N,G1*
X158750000Y-106375200D03*
X143522700Y-105156000D03*
X134180580Y-105128060D03*
G04 #@! TO.N,B1*
X145402300Y-107685840D03*
G04 #@! TO.N,R2*
X156718000Y-106273600D03*
X134167880Y-106603800D03*
G04 #@! TO.N,B*
X138242040Y-94256860D03*
X141772640Y-91597480D03*
X155486100Y-96291400D03*
G04 #@! TO.N,A*
X133469380Y-94137480D03*
X155463240Y-98173540D03*
G04 #@! TO.N,D*
X144612360Y-93538040D03*
X139410440Y-96636840D03*
G04 #@! TO.N,LAT*
X143291560Y-98978720D03*
X139252960Y-101158040D03*
G04 #@! TO.N,CLK*
X157553660Y-94696280D03*
G04 #@! TO.N,DE*
X134061200Y-100838000D03*
X129796540Y-101340920D03*
G04 #@! TD*
D19*
G04 #@! TO.N,GND*
X160675320Y-110815120D02*
X160774380Y-110716060D01*
X162610800Y-112776000D02*
X161137600Y-112776000D01*
X155448000Y-106121200D02*
X155448000Y-106426000D01*
X155448000Y-106426000D02*
X156260800Y-107238800D01*
X156260800Y-107238800D02*
X157175200Y-107238800D01*
X157734000Y-106527600D02*
X157734000Y-105511600D01*
X162661600Y-117856000D02*
X161239200Y-117856000D01*
X135839200Y-112776000D02*
X137261600Y-112776000D01*
X162661600Y-94996000D02*
X161290000Y-94996000D01*
X135788400Y-92456000D02*
X137617200Y-92456000D01*
X162814000Y-100076000D02*
X161188400Y-100076000D01*
X162610800Y-97536000D02*
X161086800Y-97536000D01*
X161137600Y-79756000D02*
X162864800Y-79756000D01*
X162560000Y-102616000D02*
X161239200Y-102616000D01*
X137147300Y-117856000D02*
X135940800Y-117856000D01*
X162610800Y-82296000D02*
X161239200Y-82296000D01*
D20*
X136550400Y-108967200D02*
X135078400Y-108967200D01*
D19*
X137653486Y-108967200D02*
X137654686Y-108966000D01*
D20*
X136550400Y-108967200D02*
X137653486Y-108967200D01*
X137654686Y-108966000D02*
X138023600Y-108966000D01*
D19*
X161290000Y-110236000D02*
X161239200Y-110236000D01*
X162661600Y-110236000D02*
X161290000Y-110236000D01*
X161290000Y-110236000D02*
X161137600Y-110236000D01*
X138196320Y-105519220D02*
X142491460Y-105519220D01*
X142491460Y-105519220D02*
X142890240Y-105918000D01*
X142890240Y-105918000D02*
X144233900Y-105918000D01*
X144233900Y-105918000D02*
X144528540Y-105623360D01*
X137261600Y-87365840D02*
X135890000Y-87365840D01*
X132450840Y-94259400D02*
X132450840Y-93949520D01*
X133090920Y-95097600D02*
X133085840Y-94935040D01*
X133085840Y-94935040D02*
X132450840Y-94259400D01*
X156245560Y-97241360D02*
X154873960Y-97241360D01*
D20*
G04 #@! TO.N,+5V*
X156565600Y-121666000D02*
X155242800Y-121666000D01*
D19*
G04 #@! TO.N,RXD*
X164490400Y-94945200D02*
X164490400Y-86563200D01*
X164034400Y-86107200D02*
X162763200Y-86107200D01*
X164490400Y-86563200D02*
X164034400Y-86107200D01*
X162763200Y-86107200D02*
X161950400Y-86107200D01*
G04 #@! TO.N,GPIO12*
X173228000Y-97637600D02*
X172025919Y-97637600D01*
X172025919Y-97637600D02*
X168402000Y-97637600D01*
X168402000Y-97637600D02*
X167487600Y-98552000D01*
X167487600Y-98552000D02*
X167487600Y-105105200D01*
X137653486Y-106427200D02*
X137654686Y-106426000D01*
X136550400Y-106427200D02*
X137653486Y-106427200D01*
X167487600Y-105105200D02*
X167487600Y-105918000D01*
X167487600Y-105918000D02*
X167487600Y-107137200D01*
X149148800Y-106426000D02*
X148844000Y-106426000D01*
X137654686Y-106426000D02*
X148844000Y-106426000D01*
X166928800Y-107696000D02*
X167132000Y-107492800D01*
X164642800Y-107696000D02*
X166928800Y-107696000D01*
X167487600Y-107137200D02*
X167132000Y-107492800D01*
X167132000Y-107492800D02*
X167030400Y-107594400D01*
X153670000Y-106426000D02*
X148844000Y-106426000D01*
X153967915Y-106426000D02*
X153670000Y-106426000D01*
X155745915Y-108204000D02*
X153967915Y-106426000D01*
X156718000Y-108204000D02*
X155745915Y-108204000D01*
G04 #@! TO.N,GPIO13*
X174498000Y-96367600D02*
X175768000Y-95097600D01*
X167944800Y-96367600D02*
X174498000Y-96367600D01*
X166624000Y-104140000D02*
X166624000Y-97688400D01*
X159816800Y-110286800D02*
X159816800Y-105867200D01*
X166624000Y-97688400D02*
X167944800Y-96367600D01*
X159816800Y-105867200D02*
X160528000Y-105156000D01*
X160528000Y-105156000D02*
X165608000Y-105156000D01*
X165608000Y-105156000D02*
X166624000Y-104140000D01*
G04 #@! TO.N,GPIO14*
X165455600Y-97434400D02*
X167792400Y-95097600D01*
X173228000Y-95097600D02*
X167792400Y-95097600D01*
X165465760Y-97444560D02*
X165465760Y-102616000D01*
X165455600Y-97434400D02*
X165465760Y-97444560D01*
G04 #@! TO.N,GPIO23*
X176785200Y-78487200D02*
X161950400Y-78487200D01*
X177546000Y-91981681D02*
X177546000Y-79248000D01*
X176970081Y-92557600D02*
X177546000Y-91981681D01*
X175768000Y-92557600D02*
X176970081Y-92557600D01*
X177546000Y-79248000D02*
X176785200Y-78487200D01*
G04 #@! TO.N,GPIO25*
X136550400Y-88647200D02*
X157459680Y-88647200D01*
X157942280Y-89129800D02*
X157615960Y-88803480D01*
X157615960Y-88803480D02*
X157459680Y-88647200D01*
X157615960Y-88803480D02*
X157951119Y-89138639D01*
X157581600Y-92456000D02*
X157713680Y-92456000D01*
X157951119Y-92218561D02*
X157951119Y-91887040D01*
X157713680Y-92456000D02*
X157951119Y-92218561D01*
X157951119Y-89138639D02*
X157951119Y-91887040D01*
X157951119Y-91887040D02*
X157951119Y-92071241D01*
G04 #@! TO.N,GPIO32*
X137653486Y-91187200D02*
X136550400Y-91187200D01*
X138924686Y-89916000D02*
X137922000Y-90918686D01*
X138619886Y-90220800D02*
X137922000Y-90918686D01*
X137922000Y-90918686D02*
X137653486Y-91187200D01*
X138924686Y-89916000D02*
X157081220Y-89916000D01*
X157081220Y-89916000D02*
X156964380Y-89916000D01*
G04 #@! TO.N,GPIO33*
X170637200Y-89509600D02*
X170637200Y-87325200D01*
X173228000Y-90017600D02*
X171145200Y-90017600D01*
X171145200Y-90017600D02*
X170637200Y-89509600D01*
X140550900Y-90843100D02*
X155039060Y-90835480D01*
X140147040Y-91246960D02*
X140550900Y-90843100D01*
X140133726Y-91246960D02*
X140147040Y-91246960D01*
X136550400Y-93727200D02*
X137653486Y-93727200D01*
X137653486Y-93727200D02*
X140133726Y-91246960D01*
G04 #@! TO.N,GPIO34*
X155067000Y-84846160D02*
X139644120Y-84846160D01*
X138383080Y-86107200D02*
X136550400Y-86107200D01*
X139644120Y-84846160D02*
X138383080Y-86107200D01*
D20*
G04 #@! TO.N,+3V3*
X170688000Y-82397600D02*
X170688000Y-85953600D01*
D19*
G04 #@! TO.N,GPIO0*
X168554400Y-99669600D02*
X169316400Y-98907600D01*
X168554400Y-107696000D02*
X168554400Y-99669600D01*
X174480220Y-98925380D02*
X169298620Y-98925380D01*
X169298620Y-98925380D02*
X169156380Y-99067620D01*
X175768000Y-97637600D02*
X174480220Y-98925380D01*
X169316400Y-98907600D02*
X169156380Y-99067620D01*
X169156380Y-99067620D02*
X168808400Y-99415600D01*
G04 #@! TO.N,Net-(D1-Pad1)*
X136551600Y-121666000D02*
X136550400Y-121667200D01*
D20*
X151942800Y-121666000D02*
X136551600Y-121666000D01*
D19*
G04 #@! TO.N,R1*
X154780715Y-110236000D02*
X154432000Y-110236000D01*
X156050715Y-111506000D02*
X154780715Y-110236000D01*
X140665200Y-110236000D02*
X154432000Y-110236000D01*
X156050715Y-111506000D02*
X156718000Y-111506000D01*
G04 #@! TO.N,G1*
X160847314Y-114047200D02*
X160846114Y-114046000D01*
X161950400Y-114047200D02*
X160847314Y-114047200D01*
X160846114Y-114046000D02*
X159766000Y-114046000D01*
X159766000Y-114046000D02*
X158750000Y-113030000D01*
X158750000Y-113030000D02*
X158750000Y-106375200D01*
X142957015Y-105156000D02*
X143522700Y-105156000D01*
X142489655Y-104688640D02*
X142957015Y-105156000D01*
X137345420Y-105128060D02*
X137784840Y-104688640D01*
X135161020Y-105128060D02*
X137345420Y-105128060D01*
X137784840Y-104688640D02*
X142489655Y-104688640D01*
X135161020Y-105128060D02*
X134180580Y-105128060D01*
G04 #@! TO.N,B1*
X121564400Y-88646000D02*
X123444000Y-88646000D01*
X121056400Y-89154000D02*
X121564400Y-88646000D01*
X121056400Y-105562400D02*
X121056400Y-89154000D01*
X145402300Y-107685840D02*
X140624560Y-107685840D01*
X140614400Y-107696000D02*
X131025900Y-107696000D01*
X121818400Y-106324400D02*
X121056400Y-105562400D01*
X140624560Y-107685840D02*
X140614400Y-107696000D01*
X131025900Y-107696000D02*
X129654300Y-106324400D01*
X129654300Y-106324400D02*
X121818400Y-106324400D01*
G04 #@! TO.N,R2*
X160847314Y-103887200D02*
X161950400Y-103887200D01*
X160846114Y-103886000D02*
X160847314Y-103887200D01*
X157378400Y-103886000D02*
X160846114Y-103886000D01*
X156718000Y-104546400D02*
X157378400Y-103886000D01*
X156718000Y-106273600D02*
X156718000Y-104546400D01*
X121881900Y-92748100D02*
X123444000Y-91186000D01*
X121881900Y-104962960D02*
X121881900Y-92748100D01*
X122420380Y-105501440D02*
X121881900Y-104962960D01*
X130307080Y-105501440D02*
X122420380Y-105501440D01*
X131409440Y-106603800D02*
X131378960Y-106573320D01*
X134167880Y-106603800D02*
X131409440Y-106603800D01*
X131378960Y-106573320D02*
X130307080Y-105501440D01*
G04 #@! TO.N,G2*
X127711200Y-91186000D02*
X125984000Y-91186000D01*
X128066800Y-93878400D02*
X128066800Y-91541600D01*
X128066800Y-91541600D02*
X127711200Y-91186000D01*
X128473200Y-94284800D02*
X128066800Y-93878400D01*
X131673600Y-94284800D02*
X128473200Y-94284800D01*
X136550400Y-101347200D02*
X135990400Y-101347200D01*
X135990400Y-101347200D02*
X135509000Y-101828600D01*
X135509000Y-101828600D02*
X132674360Y-101828600D01*
X132674360Y-101828600D02*
X132318760Y-101473000D01*
X132318760Y-101473000D02*
X132318760Y-94929960D01*
X132318760Y-94929960D02*
X131673600Y-94284800D01*
G04 #@! TO.N,B2*
X161950400Y-101347200D02*
X160847314Y-101347200D01*
X160847314Y-101347200D02*
X160846114Y-101346000D01*
X160846114Y-101346000D02*
X155651200Y-101346000D01*
X155651200Y-101346000D02*
X155244800Y-101752400D01*
X154381200Y-102616000D02*
X155651200Y-101346000D01*
X130921760Y-94996000D02*
X131622800Y-95697040D01*
X124714000Y-94996000D02*
X130921760Y-94996000D01*
X123444000Y-93726000D02*
X124714000Y-94996000D01*
X131622800Y-95697040D02*
X131622800Y-102113080D01*
X131622800Y-102113080D02*
X132125720Y-102616000D01*
X132125720Y-102616000D02*
X154381200Y-102616000D01*
G04 #@! TO.N,B*
X140906500Y-91597480D02*
X139151360Y-93352620D01*
X141772640Y-91597480D02*
X140906500Y-91597480D01*
X141772640Y-91597480D02*
X151511000Y-91597480D01*
X151511000Y-91597480D02*
X154696160Y-91597480D01*
X154696160Y-91597480D02*
X155486100Y-92387420D01*
X155486100Y-92387420D02*
X155486100Y-96291400D01*
X139146280Y-93352620D02*
X138242040Y-94256860D01*
X139151360Y-93352620D02*
X139146280Y-93352620D01*
G04 #@! TO.N,A*
X134256780Y-94924880D02*
X133469380Y-94137480D01*
X137805160Y-94924880D02*
X134256780Y-94924880D01*
X138813540Y-98173540D02*
X138308080Y-97668080D01*
X138308080Y-97668080D02*
X138308080Y-95427800D01*
X138308080Y-95427800D02*
X137805160Y-94924880D01*
X155463240Y-98173540D02*
X138813540Y-98173540D01*
G04 #@! TO.N,D*
X144612360Y-93538040D02*
X144212361Y-93938039D01*
X142956280Y-95194120D02*
X143073120Y-95077280D01*
X139857480Y-95194120D02*
X142956280Y-95194120D01*
X143073120Y-95077280D02*
X144612360Y-93538040D01*
X139410440Y-96636840D02*
X139410440Y-95641160D01*
X139410440Y-95641160D02*
X139857480Y-95194120D01*
G04 #@! TO.N,LAT*
X136550400Y-98807200D02*
X137653486Y-98807200D01*
X139258040Y-101203760D02*
X139258040Y-100411754D01*
X137653486Y-98807200D02*
X137767060Y-98920774D01*
X137767060Y-98920774D02*
X138513346Y-99667060D01*
X139258040Y-99674680D02*
X139250420Y-99667060D01*
X139258040Y-100411754D02*
X139258040Y-99674680D01*
X139250420Y-99667060D02*
X138513346Y-99667060D01*
X143286480Y-98983800D02*
X143291560Y-98978720D01*
X143286480Y-99400360D02*
X143286480Y-98983800D01*
X139250420Y-99667060D02*
X143019780Y-99667060D01*
X143019780Y-99667060D02*
X143286480Y-99400360D01*
G04 #@! TO.N,CLK*
X159537400Y-92989400D02*
X159537400Y-81762600D01*
X159537400Y-93243400D02*
X159537400Y-93319600D01*
X159537400Y-92989400D02*
X159537400Y-93243400D01*
X159537400Y-93243400D02*
X159537400Y-93522800D01*
X160272800Y-81027200D02*
X159537400Y-81762600D01*
X161950400Y-81027200D02*
X160272800Y-81027200D01*
X158521400Y-94691200D02*
X158516320Y-94696280D01*
X159131000Y-94691200D02*
X158521400Y-94691200D01*
X158516320Y-94696280D02*
X157553660Y-94696280D01*
X159537400Y-92989400D02*
X159537400Y-94284800D01*
X159537400Y-94284800D02*
X159131000Y-94691200D01*
G04 #@! TO.N,DE*
X134618800Y-96267200D02*
X136550400Y-96267200D01*
X134061200Y-96824800D02*
X134618800Y-96267200D01*
X134061200Y-100838000D02*
X134061200Y-96824800D01*
X124736860Y-102593140D02*
X123444000Y-103886000D01*
X129110005Y-102593140D02*
X129098040Y-102593140D01*
X129796540Y-101906605D02*
X129110005Y-102593140D01*
X129796540Y-101340920D02*
X129796540Y-101906605D01*
X129098040Y-102593140D02*
X124736860Y-102593140D01*
G04 #@! TD*
D21*
G04 #@! TO.N,GND*
G36*
X138811000Y-74930000D02*
X138820667Y-74978601D01*
X138848197Y-75019803D01*
X138889399Y-75047333D01*
X138938182Y-75057000D01*
X160164962Y-75026520D01*
X160213549Y-75016783D01*
X160254711Y-74989194D01*
X160278190Y-74953945D01*
X161136750Y-74953945D01*
X161950400Y-75767595D01*
X162764050Y-74953945D01*
X162692372Y-74709897D01*
X162162397Y-74520140D01*
X161600148Y-74547641D01*
X161208428Y-74709897D01*
X161136750Y-74953945D01*
X160278190Y-74953945D01*
X160282182Y-74947952D01*
X160291780Y-74899520D01*
X160291780Y-70505251D01*
X172725280Y-70505251D01*
X172725280Y-71394389D01*
X173065539Y-72215846D01*
X173694254Y-72844561D01*
X174515711Y-73184820D01*
X175404849Y-73184820D01*
X176226306Y-72844561D01*
X176855021Y-72215846D01*
X177195280Y-71394389D01*
X177195280Y-70505251D01*
X176855021Y-69683794D01*
X176226306Y-69055079D01*
X175404849Y-68714820D01*
X174515711Y-68714820D01*
X173694254Y-69055079D01*
X173065539Y-69683794D01*
X172725280Y-70505251D01*
X160291780Y-70505251D01*
X160291780Y-66496000D01*
X184456000Y-66496000D01*
X184456001Y-124766000D01*
X114248000Y-124766000D01*
X114248000Y-111225739D01*
X135135400Y-111225739D01*
X135135400Y-111788661D01*
X135350821Y-112308733D01*
X135748867Y-112706779D01*
X135918878Y-112777200D01*
X135748867Y-112847621D01*
X135350821Y-113245667D01*
X135135400Y-113765739D01*
X135135400Y-114328661D01*
X135350821Y-114848733D01*
X135748867Y-115246779D01*
X135918878Y-115317200D01*
X135748867Y-115387621D01*
X135350821Y-115785667D01*
X135135400Y-116305739D01*
X135135400Y-116868661D01*
X135350821Y-117388733D01*
X135748867Y-117786779D01*
X135918878Y-117857200D01*
X135748867Y-117927621D01*
X135350821Y-118325667D01*
X135135400Y-118845739D01*
X135135400Y-119408661D01*
X135350821Y-119928733D01*
X135748867Y-120326779D01*
X135918878Y-120397200D01*
X135748867Y-120467621D01*
X135350821Y-120865667D01*
X135135400Y-121385739D01*
X135135400Y-121948661D01*
X135350821Y-122468733D01*
X135748867Y-122866779D01*
X136268939Y-123082200D01*
X136831861Y-123082200D01*
X137351933Y-122866779D01*
X137667712Y-122551000D01*
X150901011Y-122551000D01*
X151033451Y-122749209D01*
X151243495Y-122889557D01*
X151491260Y-122938840D01*
X152391260Y-122938840D01*
X152639025Y-122889557D01*
X152849069Y-122749209D01*
X152989417Y-122539165D01*
X153038700Y-122291400D01*
X153038700Y-121091400D01*
X154143820Y-121091400D01*
X154143820Y-122291400D01*
X154193103Y-122539165D01*
X154333451Y-122749209D01*
X154543495Y-122889557D01*
X154791260Y-122938840D01*
X155691260Y-122938840D01*
X155939025Y-122889557D01*
X156149069Y-122749209D01*
X156219964Y-122643109D01*
X156359726Y-122701000D01*
X156771474Y-122701000D01*
X157151880Y-122543431D01*
X157443031Y-122252280D01*
X157600600Y-121871874D01*
X157600600Y-121460126D01*
X157443031Y-121079720D01*
X157151880Y-120788569D01*
X156771474Y-120631000D01*
X156359726Y-120631000D01*
X156193378Y-120699903D01*
X156149069Y-120633591D01*
X155939025Y-120493243D01*
X155691260Y-120443960D01*
X154791260Y-120443960D01*
X154543495Y-120493243D01*
X154333451Y-120633591D01*
X154193103Y-120843635D01*
X154143820Y-121091400D01*
X153038700Y-121091400D01*
X152989417Y-120843635D01*
X152849069Y-120633591D01*
X152639025Y-120493243D01*
X152391260Y-120443960D01*
X151491260Y-120443960D01*
X151243495Y-120493243D01*
X151033451Y-120633591D01*
X150934955Y-120781000D01*
X137665312Y-120781000D01*
X137351933Y-120467621D01*
X137181922Y-120397200D01*
X137351933Y-120326779D01*
X137749979Y-119928733D01*
X137965400Y-119408661D01*
X137965400Y-118845739D01*
X137749979Y-118325667D01*
X137351933Y-117927621D01*
X137181922Y-117857200D01*
X137351933Y-117786779D01*
X137749979Y-117388733D01*
X137965400Y-116868661D01*
X137965400Y-116305739D01*
X137749979Y-115785667D01*
X137351933Y-115387621D01*
X137181922Y-115317200D01*
X137351933Y-115246779D01*
X137749979Y-114848733D01*
X137965400Y-114328661D01*
X137965400Y-113765739D01*
X137749979Y-113245667D01*
X137351933Y-112847621D01*
X137181922Y-112777200D01*
X137351933Y-112706779D01*
X137749979Y-112308733D01*
X137965400Y-111788661D01*
X137965400Y-111225739D01*
X137749979Y-110705667D01*
X137351933Y-110307621D01*
X137197678Y-110243727D01*
X137292372Y-110204503D01*
X137343587Y-110030126D01*
X139630200Y-110030126D01*
X139630200Y-110441874D01*
X139787769Y-110822280D01*
X140078920Y-111113431D01*
X140459326Y-111271000D01*
X140871074Y-111271000D01*
X141251480Y-111113431D01*
X141368911Y-110996000D01*
X154465914Y-110996000D01*
X155460386Y-111990473D01*
X155502786Y-112053929D01*
X155754178Y-112221904D01*
X155975863Y-112266000D01*
X155975867Y-112266000D01*
X156023829Y-112275540D01*
X156131720Y-112383431D01*
X156512126Y-112541000D01*
X156923874Y-112541000D01*
X157304280Y-112383431D01*
X157595431Y-112092280D01*
X157753000Y-111711874D01*
X157753000Y-111300126D01*
X157595431Y-110919720D01*
X157304280Y-110628569D01*
X156923874Y-110471000D01*
X156512126Y-110471000D01*
X156214003Y-110594486D01*
X155371046Y-109751530D01*
X155328644Y-109688071D01*
X155077252Y-109520096D01*
X154855567Y-109476000D01*
X154855562Y-109476000D01*
X154780715Y-109461112D01*
X154705868Y-109476000D01*
X141368911Y-109476000D01*
X141251480Y-109358569D01*
X140871074Y-109201000D01*
X140459326Y-109201000D01*
X140078920Y-109358569D01*
X139787769Y-109649720D01*
X139630200Y-110030126D01*
X137343587Y-110030126D01*
X137364050Y-109960455D01*
X136550400Y-109146805D01*
X135736750Y-109960455D01*
X135808428Y-110204503D01*
X135910009Y-110240874D01*
X135748867Y-110307621D01*
X135350821Y-110705667D01*
X135135400Y-111225739D01*
X114248000Y-111225739D01*
X114248000Y-89154000D01*
X120281512Y-89154000D01*
X120296401Y-89228852D01*
X120296400Y-105487553D01*
X120281512Y-105562400D01*
X120296400Y-105637247D01*
X120296400Y-105637251D01*
X120340496Y-105858936D01*
X120508471Y-106110329D01*
X120571930Y-106152731D01*
X121228070Y-106808872D01*
X121270471Y-106872329D01*
X121333927Y-106914729D01*
X121521862Y-107040304D01*
X121563012Y-107048489D01*
X121743548Y-107084400D01*
X121743552Y-107084400D01*
X121818400Y-107099288D01*
X121893248Y-107084400D01*
X129339499Y-107084400D01*
X130435573Y-108180476D01*
X130477971Y-108243929D01*
X130541424Y-108286327D01*
X130541426Y-108286329D01*
X130665584Y-108369288D01*
X130729363Y-108411904D01*
X130951048Y-108456000D01*
X130951052Y-108456000D01*
X131025899Y-108470888D01*
X131100746Y-108456000D01*
X135230469Y-108456000D01*
X135123340Y-108755203D01*
X135150841Y-109317452D01*
X135313097Y-109709172D01*
X135557145Y-109780850D01*
X136370795Y-108967200D01*
X136356653Y-108953058D01*
X136536258Y-108773453D01*
X136550400Y-108787595D01*
X136564543Y-108773453D01*
X136744148Y-108953058D01*
X136730005Y-108967200D01*
X137543655Y-109780850D01*
X137787703Y-109709172D01*
X137977460Y-109179197D01*
X137949959Y-108616948D01*
X137883292Y-108456000D01*
X140539553Y-108456000D01*
X140614400Y-108470888D01*
X140689247Y-108456000D01*
X140689252Y-108456000D01*
X140740330Y-108445840D01*
X144698589Y-108445840D01*
X144816020Y-108563271D01*
X145196426Y-108720840D01*
X145608174Y-108720840D01*
X145988580Y-108563271D01*
X146279731Y-108272120D01*
X146437300Y-107891714D01*
X146437300Y-107479966D01*
X146315536Y-107186000D01*
X153653114Y-107186000D01*
X155155586Y-108688473D01*
X155197986Y-108751929D01*
X155261442Y-108794329D01*
X155449377Y-108919904D01*
X155497520Y-108929480D01*
X155671063Y-108964000D01*
X155671067Y-108964000D01*
X155745915Y-108978888D01*
X155820763Y-108964000D01*
X156014289Y-108964000D01*
X156131720Y-109081431D01*
X156512126Y-109239000D01*
X156923874Y-109239000D01*
X157304280Y-109081431D01*
X157595431Y-108790280D01*
X157753000Y-108409874D01*
X157753000Y-107998126D01*
X157595431Y-107617720D01*
X157304280Y-107326569D01*
X157092386Y-107238800D01*
X157304280Y-107151031D01*
X157595431Y-106859880D01*
X157715000Y-106571214D01*
X157715000Y-106581074D01*
X157872569Y-106961480D01*
X157990001Y-107078912D01*
X157990000Y-112955153D01*
X157975112Y-113030000D01*
X157990000Y-113104847D01*
X157990000Y-113104851D01*
X158034096Y-113326536D01*
X158202071Y-113577929D01*
X158265530Y-113620331D01*
X159175670Y-114530472D01*
X159218071Y-114593929D01*
X159469463Y-114761904D01*
X159691148Y-114806000D01*
X159691153Y-114806000D01*
X159766000Y-114820888D01*
X159840847Y-114806000D01*
X160733120Y-114806000D01*
X160750821Y-114848733D01*
X161148867Y-115246779D01*
X161318878Y-115317200D01*
X161148867Y-115387621D01*
X160750821Y-115785667D01*
X160535400Y-116305739D01*
X160535400Y-116868661D01*
X160750821Y-117388733D01*
X161148867Y-117786779D01*
X161318878Y-117857200D01*
X161148867Y-117927621D01*
X160750821Y-118325667D01*
X160535400Y-118845739D01*
X160535400Y-119408661D01*
X160750821Y-119928733D01*
X161148867Y-120326779D01*
X161318878Y-120397200D01*
X161148867Y-120467621D01*
X160750821Y-120865667D01*
X160535400Y-121385739D01*
X160535400Y-121948661D01*
X160750821Y-122468733D01*
X161148867Y-122866779D01*
X161668939Y-123082200D01*
X162231861Y-123082200D01*
X162751933Y-122866779D01*
X163149979Y-122468733D01*
X163365400Y-121948661D01*
X163365400Y-121385739D01*
X163149979Y-120865667D01*
X162751933Y-120467621D01*
X162581922Y-120397200D01*
X162751933Y-120326779D01*
X162995201Y-120083511D01*
X172631300Y-120083511D01*
X172631300Y-120972649D01*
X172971559Y-121794106D01*
X173600274Y-122422821D01*
X174421731Y-122763080D01*
X175310869Y-122763080D01*
X176132326Y-122422821D01*
X176761041Y-121794106D01*
X177101300Y-120972649D01*
X177101300Y-120083511D01*
X176761041Y-119262054D01*
X176132326Y-118633339D01*
X175310869Y-118293080D01*
X174421731Y-118293080D01*
X173600274Y-118633339D01*
X172971559Y-119262054D01*
X172631300Y-120083511D01*
X162995201Y-120083511D01*
X163149979Y-119928733D01*
X163365400Y-119408661D01*
X163365400Y-118845739D01*
X163149979Y-118325667D01*
X162751933Y-117927621D01*
X162581922Y-117857200D01*
X162751933Y-117786779D01*
X163149979Y-117388733D01*
X163365400Y-116868661D01*
X163365400Y-116305739D01*
X163149979Y-115785667D01*
X162751933Y-115387621D01*
X162581922Y-115317200D01*
X162751933Y-115246779D01*
X163149979Y-114848733D01*
X163365400Y-114328661D01*
X163365400Y-113765739D01*
X163149979Y-113245667D01*
X162751933Y-112847621D01*
X162717311Y-112833280D01*
X172747044Y-112833280D01*
X172771324Y-112938626D01*
X173062868Y-113464146D01*
X173533328Y-113838094D01*
X174111080Y-114003540D01*
X175011080Y-114003540D01*
X175011080Y-112595540D01*
X175265080Y-112595540D01*
X175265080Y-114003540D01*
X176165080Y-114003540D01*
X176742832Y-113838094D01*
X177213292Y-113464146D01*
X177504836Y-112938626D01*
X177529116Y-112833280D01*
X177408458Y-112595540D01*
X175265080Y-112595540D01*
X175011080Y-112595540D01*
X172867702Y-112595540D01*
X172747044Y-112833280D01*
X162717311Y-112833280D01*
X162581922Y-112777200D01*
X162751933Y-112706779D01*
X163149979Y-112308733D01*
X163234865Y-112103800D01*
X172747044Y-112103800D01*
X172867702Y-112341540D01*
X175011080Y-112341540D01*
X175011080Y-110933540D01*
X175265080Y-110933540D01*
X175265080Y-112341540D01*
X177408458Y-112341540D01*
X177529116Y-112103800D01*
X177504836Y-111998454D01*
X177213292Y-111472934D01*
X176742832Y-111098986D01*
X176165080Y-110933540D01*
X175265080Y-110933540D01*
X175011080Y-110933540D01*
X174111080Y-110933540D01*
X173533328Y-111098986D01*
X173062868Y-111472934D01*
X172771324Y-111998454D01*
X172747044Y-112103800D01*
X163234865Y-112103800D01*
X163365400Y-111788661D01*
X163365400Y-111225739D01*
X163149979Y-110705667D01*
X162751933Y-110307621D01*
X162581922Y-110237200D01*
X162751933Y-110166779D01*
X163149979Y-109768733D01*
X163365400Y-109248661D01*
X163365400Y-108685739D01*
X163149979Y-108165667D01*
X162751933Y-107767621D01*
X162581922Y-107697200D01*
X162751933Y-107626779D01*
X163149979Y-107228733D01*
X163365400Y-106708661D01*
X163365400Y-106145739D01*
X163270239Y-105916000D01*
X165533153Y-105916000D01*
X165608000Y-105930888D01*
X165682847Y-105916000D01*
X165682852Y-105916000D01*
X165904537Y-105871904D01*
X166155929Y-105703929D01*
X166198331Y-105640470D01*
X166727600Y-105111202D01*
X166727600Y-105843149D01*
X166727601Y-106822398D01*
X166647527Y-106902471D01*
X166647528Y-106902471D01*
X166613999Y-106936000D01*
X165346511Y-106936000D01*
X165229080Y-106818569D01*
X164848674Y-106661000D01*
X164436926Y-106661000D01*
X164056520Y-106818569D01*
X163765369Y-107109720D01*
X163607800Y-107490126D01*
X163607800Y-107901874D01*
X163765369Y-108282280D01*
X164056520Y-108573431D01*
X164436926Y-108731000D01*
X164848674Y-108731000D01*
X165229080Y-108573431D01*
X165346511Y-108456000D01*
X166853953Y-108456000D01*
X166928800Y-108470888D01*
X167003647Y-108456000D01*
X167003652Y-108456000D01*
X167225337Y-108411904D01*
X167476729Y-108243929D01*
X167519131Y-108180470D01*
X167600920Y-108098681D01*
X167676969Y-108282280D01*
X167968120Y-108573431D01*
X168348526Y-108731000D01*
X168760274Y-108731000D01*
X169140680Y-108573431D01*
X169395571Y-108318540D01*
X172690640Y-108318540D01*
X172690640Y-109618540D01*
X172758954Y-109961975D01*
X172953494Y-110253126D01*
X173244645Y-110447666D01*
X173588080Y-110515980D01*
X176688080Y-110515980D01*
X177031515Y-110447666D01*
X177322666Y-110253126D01*
X177517206Y-109961975D01*
X177585520Y-109618540D01*
X177585520Y-108318540D01*
X177517206Y-107975105D01*
X177322666Y-107683954D01*
X177031515Y-107489414D01*
X176688080Y-107421100D01*
X173588080Y-107421100D01*
X173244645Y-107489414D01*
X172953494Y-107683954D01*
X172758954Y-107975105D01*
X172690640Y-108318540D01*
X169395571Y-108318540D01*
X169431831Y-108282280D01*
X169589400Y-107901874D01*
X169589400Y-107490126D01*
X169431831Y-107109720D01*
X169314400Y-106992289D01*
X169314400Y-99984401D01*
X169613422Y-99685380D01*
X171811816Y-99685380D01*
X171713908Y-100177600D01*
X171829161Y-100757018D01*
X172157375Y-101248225D01*
X172455761Y-101447600D01*
X172157375Y-101646975D01*
X171829161Y-102138182D01*
X171713908Y-102717600D01*
X171829161Y-103297018D01*
X172157375Y-103788225D01*
X172648582Y-104116439D01*
X173081744Y-104202600D01*
X173374256Y-104202600D01*
X173807418Y-104116439D01*
X174298625Y-103788225D01*
X174313096Y-103766568D01*
X174379673Y-103927299D01*
X174558302Y-104105927D01*
X174791691Y-104202600D01*
X175482250Y-104202600D01*
X175641000Y-104043850D01*
X175641000Y-102844600D01*
X175895000Y-102844600D01*
X175895000Y-104043850D01*
X176053750Y-104202600D01*
X176744309Y-104202600D01*
X176977698Y-104105927D01*
X177156327Y-103927299D01*
X177253000Y-103693910D01*
X177253000Y-103003350D01*
X177094250Y-102844600D01*
X175895000Y-102844600D01*
X175641000Y-102844600D01*
X175621000Y-102844600D01*
X175621000Y-102590600D01*
X175641000Y-102590600D01*
X175641000Y-102570600D01*
X175895000Y-102570600D01*
X175895000Y-102590600D01*
X177094250Y-102590600D01*
X177253000Y-102431850D01*
X177253000Y-101741290D01*
X177156327Y-101507901D01*
X176977698Y-101329273D01*
X176816967Y-101262696D01*
X176838625Y-101248225D01*
X177166839Y-100757018D01*
X177282092Y-100177600D01*
X177166839Y-99598182D01*
X176838625Y-99106975D01*
X176540239Y-98907600D01*
X176838625Y-98708225D01*
X177166839Y-98217018D01*
X177282092Y-97637600D01*
X177166839Y-97058182D01*
X176838625Y-96566975D01*
X176540239Y-96367600D01*
X176838625Y-96168225D01*
X177166839Y-95677018D01*
X177282092Y-95097600D01*
X177166839Y-94518182D01*
X176838625Y-94026975D01*
X176540239Y-93827600D01*
X176838625Y-93628225D01*
X177046369Y-93317314D01*
X177266618Y-93273504D01*
X177518010Y-93105529D01*
X177560411Y-93042071D01*
X178030476Y-92572008D01*
X178093929Y-92529610D01*
X178136327Y-92466157D01*
X178136329Y-92466155D01*
X178251751Y-92293413D01*
X178261904Y-92278218D01*
X178306000Y-92056533D01*
X178306000Y-92056529D01*
X178320888Y-91981682D01*
X178306000Y-91906835D01*
X178306000Y-79322848D01*
X178320888Y-79248000D01*
X178306000Y-79173152D01*
X178306000Y-79173148D01*
X178261904Y-78951463D01*
X178261904Y-78951462D01*
X178136329Y-78763527D01*
X178093929Y-78700071D01*
X178030473Y-78657671D01*
X177375531Y-78002730D01*
X177333129Y-77939271D01*
X177081737Y-77771296D01*
X176860052Y-77727200D01*
X176860047Y-77727200D01*
X176785200Y-77712312D01*
X176710353Y-77727200D01*
X163167183Y-77727200D01*
X163149979Y-77685667D01*
X162751933Y-77287621D01*
X162597678Y-77223727D01*
X162692372Y-77184503D01*
X162764050Y-76940455D01*
X161950400Y-76126805D01*
X161136750Y-76940455D01*
X161208428Y-77184503D01*
X161310009Y-77220874D01*
X161148867Y-77287621D01*
X160750821Y-77685667D01*
X160535400Y-78205739D01*
X160535400Y-78768661D01*
X160750821Y-79288733D01*
X161148867Y-79686779D01*
X161318878Y-79757200D01*
X161148867Y-79827621D01*
X160750821Y-80225667D01*
X160733617Y-80267200D01*
X160347648Y-80267200D01*
X160272800Y-80252312D01*
X160197952Y-80267200D01*
X160197948Y-80267200D01*
X160024405Y-80301720D01*
X159976262Y-80311296D01*
X159789218Y-80436276D01*
X159724871Y-80479271D01*
X159682471Y-80542727D01*
X159052928Y-81172271D01*
X158989472Y-81214671D01*
X158947072Y-81278127D01*
X158947071Y-81278128D01*
X158821497Y-81466063D01*
X158762512Y-81762600D01*
X158777401Y-81837452D01*
X158777400Y-92914548D01*
X158777400Y-92914549D01*
X158777401Y-93931200D01*
X158596246Y-93931200D01*
X158521399Y-93916312D01*
X158446552Y-93931200D01*
X158446548Y-93931200D01*
X158421009Y-93936280D01*
X158257371Y-93936280D01*
X158139940Y-93818849D01*
X157759534Y-93661280D01*
X157347786Y-93661280D01*
X156967380Y-93818849D01*
X156676229Y-94110000D01*
X156518660Y-94490406D01*
X156518660Y-94902154D01*
X156676229Y-95282560D01*
X156967380Y-95573711D01*
X157347786Y-95731280D01*
X157759534Y-95731280D01*
X158139940Y-95573711D01*
X158257371Y-95456280D01*
X158441473Y-95456280D01*
X158516320Y-95471168D01*
X158591167Y-95456280D01*
X158591172Y-95456280D01*
X158616711Y-95451200D01*
X159056153Y-95451200D01*
X159131000Y-95466088D01*
X159205847Y-95451200D01*
X159205852Y-95451200D01*
X159427537Y-95407104D01*
X159678929Y-95239129D01*
X159721331Y-95175671D01*
X160021872Y-94875129D01*
X160085329Y-94832729D01*
X160253304Y-94581337D01*
X160297400Y-94359652D01*
X160297400Y-94359648D01*
X160312288Y-94284801D01*
X160297400Y-94209954D01*
X160297400Y-90975203D01*
X160523340Y-90975203D01*
X160550841Y-91537452D01*
X160713097Y-91929172D01*
X160957145Y-92000850D01*
X161770795Y-91187200D01*
X162130005Y-91187200D01*
X162943655Y-92000850D01*
X163187703Y-91929172D01*
X163377460Y-91399197D01*
X163349959Y-90836948D01*
X163187703Y-90445228D01*
X162943655Y-90373550D01*
X162130005Y-91187200D01*
X161770795Y-91187200D01*
X160957145Y-90373550D01*
X160713097Y-90445228D01*
X160523340Y-90975203D01*
X160297400Y-90975203D01*
X160297400Y-82077401D01*
X160587602Y-81787200D01*
X160733617Y-81787200D01*
X160750821Y-81828733D01*
X161148867Y-82226779D01*
X161318878Y-82297200D01*
X161148867Y-82367621D01*
X160750821Y-82765667D01*
X160535400Y-83285739D01*
X160535400Y-83848661D01*
X160750821Y-84368733D01*
X161148867Y-84766779D01*
X161318878Y-84837200D01*
X161148867Y-84907621D01*
X160750821Y-85305667D01*
X160535400Y-85825739D01*
X160535400Y-86388661D01*
X160750821Y-86908733D01*
X161148867Y-87306779D01*
X161318878Y-87377200D01*
X161148867Y-87447621D01*
X160750821Y-87845667D01*
X160535400Y-88365739D01*
X160535400Y-88928661D01*
X160750821Y-89448733D01*
X161148867Y-89846779D01*
X161303122Y-89910673D01*
X161208428Y-89949897D01*
X161136750Y-90193945D01*
X161950400Y-91007595D01*
X162764050Y-90193945D01*
X162692372Y-89949897D01*
X162590791Y-89913526D01*
X162751933Y-89846779D01*
X163149979Y-89448733D01*
X163365400Y-88928661D01*
X163365400Y-88365739D01*
X163149979Y-87845667D01*
X162751933Y-87447621D01*
X162581922Y-87377200D01*
X162751933Y-87306779D01*
X163149979Y-86908733D01*
X163167183Y-86867200D01*
X163719599Y-86867200D01*
X163730401Y-86878002D01*
X163730400Y-94241489D01*
X163612969Y-94358920D01*
X163455400Y-94739326D01*
X163455400Y-95151074D01*
X163612969Y-95531480D01*
X163904120Y-95822631D01*
X164284526Y-95980200D01*
X164696274Y-95980200D01*
X165076680Y-95822631D01*
X165367831Y-95531480D01*
X165525400Y-95151074D01*
X165525400Y-94739326D01*
X165367831Y-94358920D01*
X165250400Y-94241489D01*
X165250400Y-86638046D01*
X165265288Y-86563199D01*
X165250400Y-86488352D01*
X165250400Y-86488348D01*
X165206304Y-86266663D01*
X165038329Y-86015271D01*
X164974872Y-85972871D01*
X164624731Y-85622729D01*
X164582329Y-85559271D01*
X164330937Y-85391296D01*
X164109252Y-85347200D01*
X164109247Y-85347200D01*
X164034400Y-85332312D01*
X163959553Y-85347200D01*
X163167183Y-85347200D01*
X163149979Y-85305667D01*
X162751933Y-84907621D01*
X162581922Y-84837200D01*
X162751933Y-84766779D01*
X163149979Y-84368733D01*
X163365400Y-83848661D01*
X163365400Y-83285739D01*
X163149979Y-82765667D01*
X162751933Y-82367621D01*
X162581922Y-82297200D01*
X162751933Y-82226779D01*
X163149979Y-81828733D01*
X163365400Y-81308661D01*
X163365400Y-80745739D01*
X163149979Y-80225667D01*
X162751933Y-79827621D01*
X162581922Y-79757200D01*
X162751933Y-79686779D01*
X163149979Y-79288733D01*
X163167183Y-79247200D01*
X176470399Y-79247200D01*
X176786001Y-79562803D01*
X176786000Y-86371812D01*
X176347418Y-86078761D01*
X175914256Y-85992600D01*
X175621744Y-85992600D01*
X175188582Y-86078761D01*
X174697375Y-86406975D01*
X174498000Y-86705361D01*
X174298625Y-86406975D01*
X173807418Y-86078761D01*
X173374256Y-85992600D01*
X173081744Y-85992600D01*
X172648582Y-86078761D01*
X172157375Y-86406975D01*
X171829161Y-86898182D01*
X171713908Y-87477600D01*
X171829161Y-88057018D01*
X172157375Y-88548225D01*
X172455761Y-88747600D01*
X172157375Y-88946975D01*
X171949822Y-89257600D01*
X171460002Y-89257600D01*
X171397200Y-89194798D01*
X171397200Y-88028911D01*
X171514631Y-87911480D01*
X171672200Y-87531074D01*
X171672200Y-87119326D01*
X171514631Y-86738920D01*
X171440511Y-86664800D01*
X171565431Y-86539880D01*
X171723000Y-86159474D01*
X171723000Y-85747726D01*
X171573000Y-85385593D01*
X171573000Y-82965607D01*
X171723000Y-82603474D01*
X171723000Y-82191726D01*
X171565431Y-81811320D01*
X171274280Y-81520169D01*
X170893874Y-81362600D01*
X170482126Y-81362600D01*
X170101720Y-81520169D01*
X169810569Y-81811320D01*
X169653000Y-82191726D01*
X169653000Y-82603474D01*
X169803000Y-82965607D01*
X169803001Y-85385591D01*
X169653000Y-85747726D01*
X169653000Y-86159474D01*
X169810569Y-86539880D01*
X169884689Y-86614000D01*
X169759769Y-86738920D01*
X169602200Y-87119326D01*
X169602200Y-87531074D01*
X169759769Y-87911480D01*
X169877201Y-88028912D01*
X169877200Y-89434753D01*
X169862312Y-89509600D01*
X169877200Y-89584447D01*
X169877200Y-89584451D01*
X169921296Y-89806136D01*
X170089271Y-90057529D01*
X170152729Y-90099930D01*
X170554872Y-90502075D01*
X170597271Y-90565529D01*
X170660724Y-90607927D01*
X170660726Y-90607929D01*
X170762602Y-90676000D01*
X170848663Y-90733504D01*
X171070348Y-90777600D01*
X171070352Y-90777600D01*
X171145199Y-90792488D01*
X171220046Y-90777600D01*
X171949822Y-90777600D01*
X172157375Y-91088225D01*
X172455761Y-91287600D01*
X172157375Y-91486975D01*
X171829161Y-91978182D01*
X171713908Y-92557600D01*
X171829161Y-93137018D01*
X172157375Y-93628225D01*
X172455761Y-93827600D01*
X172157375Y-94026975D01*
X171949822Y-94337600D01*
X167867246Y-94337600D01*
X167792399Y-94322712D01*
X167717552Y-94337600D01*
X167717548Y-94337600D01*
X167495863Y-94381696D01*
X167244471Y-94549671D01*
X167202071Y-94613127D01*
X164971129Y-96844070D01*
X164907671Y-96886471D01*
X164739697Y-97137863D01*
X164680712Y-97434400D01*
X164705760Y-97560325D01*
X164705761Y-101912288D01*
X164588329Y-102029720D01*
X164430760Y-102410126D01*
X164430760Y-102821874D01*
X164588329Y-103202280D01*
X164879480Y-103493431D01*
X165259886Y-103651000D01*
X165671634Y-103651000D01*
X165864000Y-103571320D01*
X165864000Y-103825198D01*
X165293199Y-104396000D01*
X163271233Y-104396000D01*
X163365400Y-104168661D01*
X163365400Y-103605739D01*
X163149979Y-103085667D01*
X162751933Y-102687621D01*
X162581922Y-102617200D01*
X162751933Y-102546779D01*
X163149979Y-102148733D01*
X163365400Y-101628661D01*
X163365400Y-101065739D01*
X163149979Y-100545667D01*
X162751933Y-100147621D01*
X162581922Y-100077200D01*
X162751933Y-100006779D01*
X163149979Y-99608733D01*
X163365400Y-99088661D01*
X163365400Y-98525739D01*
X163149979Y-98005667D01*
X162751933Y-97607621D01*
X162581922Y-97537200D01*
X162751933Y-97466779D01*
X163149979Y-97068733D01*
X163365400Y-96548661D01*
X163365400Y-95985739D01*
X163149979Y-95465667D01*
X162751933Y-95067621D01*
X162581922Y-94997200D01*
X162751933Y-94926779D01*
X163149979Y-94528733D01*
X163365400Y-94008661D01*
X163365400Y-93445739D01*
X163149979Y-92925667D01*
X162751933Y-92527621D01*
X162597678Y-92463727D01*
X162692372Y-92424503D01*
X162764050Y-92180455D01*
X161950400Y-91366805D01*
X161136750Y-92180455D01*
X161208428Y-92424503D01*
X161310009Y-92460874D01*
X161148867Y-92527621D01*
X160750821Y-92925667D01*
X160535400Y-93445739D01*
X160535400Y-94008661D01*
X160750821Y-94528733D01*
X161148867Y-94926779D01*
X161318878Y-94997200D01*
X161148867Y-95067621D01*
X160750821Y-95465667D01*
X160535400Y-95985739D01*
X160535400Y-96548661D01*
X160750821Y-97068733D01*
X161148867Y-97466779D01*
X161318878Y-97537200D01*
X161148867Y-97607621D01*
X160750821Y-98005667D01*
X160535400Y-98525739D01*
X160535400Y-99088661D01*
X160750821Y-99608733D01*
X161148867Y-100006779D01*
X161318878Y-100077200D01*
X161148867Y-100147621D01*
X160750821Y-100545667D01*
X160734115Y-100586000D01*
X155726046Y-100586000D01*
X155651199Y-100571112D01*
X155576352Y-100586000D01*
X155576348Y-100586000D01*
X155354663Y-100630096D01*
X155103271Y-100798071D01*
X155060871Y-100861527D01*
X154066399Y-101856000D01*
X140018711Y-101856000D01*
X140130391Y-101744320D01*
X140287960Y-101363914D01*
X140287960Y-100952166D01*
X140130391Y-100571760D01*
X140018040Y-100459409D01*
X140018040Y-100427060D01*
X142944933Y-100427060D01*
X143019780Y-100441948D01*
X143094627Y-100427060D01*
X143094632Y-100427060D01*
X143316317Y-100382964D01*
X143567709Y-100214989D01*
X143610111Y-100151530D01*
X143770950Y-99990691D01*
X143834409Y-99948289D01*
X143932489Y-99801502D01*
X144168991Y-99565000D01*
X144326560Y-99184594D01*
X144326560Y-98933540D01*
X154759529Y-98933540D01*
X154876960Y-99050971D01*
X155257366Y-99208540D01*
X155669114Y-99208540D01*
X156049520Y-99050971D01*
X156340671Y-98759820D01*
X156498240Y-98379414D01*
X156498240Y-97967666D01*
X156340671Y-97587260D01*
X156049520Y-97296109D01*
X155907312Y-97237204D01*
X156072380Y-97168831D01*
X156363531Y-96877680D01*
X156521100Y-96497274D01*
X156521100Y-96085526D01*
X156363531Y-95705120D01*
X156246100Y-95587689D01*
X156246100Y-92462267D01*
X156260988Y-92387420D01*
X156246100Y-92312573D01*
X156246100Y-92312568D01*
X156202004Y-92090883D01*
X156034029Y-91839491D01*
X155970573Y-91797091D01*
X155755866Y-91582385D01*
X155916491Y-91421760D01*
X156074060Y-91041354D01*
X156074060Y-90676000D01*
X156260669Y-90676000D01*
X156378100Y-90793431D01*
X156758506Y-90951000D01*
X157170254Y-90951000D01*
X157191120Y-90942357D01*
X157191120Y-91497466D01*
X156995320Y-91578569D01*
X156704169Y-91869720D01*
X156546600Y-92250126D01*
X156546600Y-92661874D01*
X156704169Y-93042280D01*
X156995320Y-93333431D01*
X157375726Y-93491000D01*
X157787474Y-93491000D01*
X158167880Y-93333431D01*
X158459031Y-93042280D01*
X158616600Y-92661874D01*
X158616600Y-92590561D01*
X158667023Y-92515098D01*
X158711119Y-92293413D01*
X158711119Y-92293409D01*
X158726007Y-92218562D01*
X158711119Y-92143715D01*
X158711119Y-89213485D01*
X158726007Y-89138638D01*
X158711119Y-89063791D01*
X158711119Y-89063787D01*
X158667023Y-88842102D01*
X158499048Y-88590710D01*
X158435592Y-88548310D01*
X158206289Y-88319007D01*
X158050010Y-88162729D01*
X158007609Y-88099271D01*
X157756217Y-87931296D01*
X157534532Y-87887200D01*
X157534527Y-87887200D01*
X157459680Y-87872312D01*
X157384833Y-87887200D01*
X137767183Y-87887200D01*
X137749979Y-87845667D01*
X137351933Y-87447621D01*
X137181922Y-87377200D01*
X137351933Y-87306779D01*
X137749979Y-86908733D01*
X137767183Y-86867200D01*
X138308233Y-86867200D01*
X138383080Y-86882088D01*
X138457927Y-86867200D01*
X138457932Y-86867200D01*
X138679617Y-86823104D01*
X138931009Y-86655129D01*
X138973411Y-86591670D01*
X139958922Y-85606160D01*
X154363289Y-85606160D01*
X154480720Y-85723591D01*
X154861126Y-85881160D01*
X155272874Y-85881160D01*
X155653280Y-85723591D01*
X155944431Y-85432440D01*
X156102000Y-85052034D01*
X156102000Y-84640286D01*
X155944431Y-84259880D01*
X155653280Y-83968729D01*
X155272874Y-83811160D01*
X154861126Y-83811160D01*
X154480720Y-83968729D01*
X154363289Y-84086160D01*
X139718967Y-84086160D01*
X139644120Y-84071272D01*
X139569273Y-84086160D01*
X139569268Y-84086160D01*
X139347583Y-84130256D01*
X139096191Y-84298231D01*
X139053791Y-84361687D01*
X138068279Y-85347200D01*
X137767183Y-85347200D01*
X137749979Y-85305667D01*
X137351933Y-84907621D01*
X137181922Y-84837200D01*
X137351933Y-84766779D01*
X137749979Y-84368733D01*
X137965400Y-83848661D01*
X137965400Y-83285739D01*
X137749979Y-82765667D01*
X137351933Y-82367621D01*
X137181922Y-82297200D01*
X137351933Y-82226779D01*
X137749979Y-81828733D01*
X137965400Y-81308661D01*
X137965400Y-80745739D01*
X137749979Y-80225667D01*
X137351933Y-79827621D01*
X137181922Y-79757200D01*
X137351933Y-79686779D01*
X137749979Y-79288733D01*
X137965400Y-78768661D01*
X137965400Y-78205739D01*
X137749979Y-77685667D01*
X137420942Y-77356630D01*
X137578165Y-77325357D01*
X137788209Y-77185009D01*
X137928557Y-76974965D01*
X137977840Y-76727200D01*
X137977840Y-75735203D01*
X160523340Y-75735203D01*
X160550841Y-76297452D01*
X160713097Y-76689172D01*
X160957145Y-76760850D01*
X161770795Y-75947200D01*
X162130005Y-75947200D01*
X162943655Y-76760850D01*
X163187703Y-76689172D01*
X163377460Y-76159197D01*
X163349959Y-75596948D01*
X163187703Y-75205228D01*
X162943655Y-75133550D01*
X162130005Y-75947200D01*
X161770795Y-75947200D01*
X160957145Y-75133550D01*
X160713097Y-75205228D01*
X160523340Y-75735203D01*
X137977840Y-75735203D01*
X137977840Y-75167200D01*
X137928557Y-74919435D01*
X137788209Y-74709391D01*
X137578165Y-74569043D01*
X137330400Y-74519760D01*
X135770400Y-74519760D01*
X135522635Y-74569043D01*
X135312591Y-74709391D01*
X135172243Y-74919435D01*
X135122960Y-75167200D01*
X135122960Y-76727200D01*
X135172243Y-76974965D01*
X135312591Y-77185009D01*
X135522635Y-77325357D01*
X135679858Y-77356630D01*
X135350821Y-77685667D01*
X135135400Y-78205739D01*
X135135400Y-78768661D01*
X135350821Y-79288733D01*
X135748867Y-79686779D01*
X135918878Y-79757200D01*
X135748867Y-79827621D01*
X135350821Y-80225667D01*
X135135400Y-80745739D01*
X135135400Y-81308661D01*
X135350821Y-81828733D01*
X135748867Y-82226779D01*
X135918878Y-82297200D01*
X135748867Y-82367621D01*
X135350821Y-82765667D01*
X135135400Y-83285739D01*
X135135400Y-83848661D01*
X135350821Y-84368733D01*
X135748867Y-84766779D01*
X135918878Y-84837200D01*
X135748867Y-84907621D01*
X135350821Y-85305667D01*
X135135400Y-85825739D01*
X135135400Y-86388661D01*
X135350821Y-86908733D01*
X135748867Y-87306779D01*
X135918878Y-87377200D01*
X135748867Y-87447621D01*
X135350821Y-87845667D01*
X135135400Y-88365739D01*
X135135400Y-88928661D01*
X135350821Y-89448733D01*
X135748867Y-89846779D01*
X135918878Y-89917200D01*
X135748867Y-89987621D01*
X135350821Y-90385667D01*
X135135400Y-90905739D01*
X135135400Y-91468661D01*
X135350821Y-91988733D01*
X135748867Y-92386779D01*
X135918878Y-92457200D01*
X135748867Y-92527621D01*
X135350821Y-92925667D01*
X135135400Y-93445739D01*
X135135400Y-94008661D01*
X135200108Y-94164880D01*
X134571582Y-94164880D01*
X134504380Y-94097678D01*
X134504380Y-93931606D01*
X134346811Y-93551200D01*
X134055660Y-93260049D01*
X133675254Y-93102480D01*
X133263506Y-93102480D01*
X132883100Y-93260049D01*
X132591949Y-93551200D01*
X132434380Y-93931606D01*
X132434380Y-93970779D01*
X132263931Y-93800330D01*
X132221529Y-93736871D01*
X131970137Y-93568896D01*
X131748452Y-93524800D01*
X131748447Y-93524800D01*
X131673600Y-93509912D01*
X131598753Y-93524800D01*
X128826800Y-93524800D01*
X128826800Y-91616446D01*
X128841688Y-91541599D01*
X128826800Y-91466752D01*
X128826800Y-91466748D01*
X128782704Y-91245063D01*
X128614729Y-90993671D01*
X128551272Y-90951271D01*
X128301531Y-90701529D01*
X128259129Y-90638071D01*
X128007737Y-90470096D01*
X127786052Y-90426000D01*
X127786047Y-90426000D01*
X127711200Y-90411112D01*
X127636353Y-90426000D01*
X127262178Y-90426000D01*
X127054625Y-90115375D01*
X126735522Y-89902157D01*
X126865358Y-89841183D01*
X127255645Y-89412924D01*
X127425476Y-89002890D01*
X127304155Y-88773000D01*
X126111000Y-88773000D01*
X126111000Y-88793000D01*
X125857000Y-88793000D01*
X125857000Y-88773000D01*
X125837000Y-88773000D01*
X125837000Y-88519000D01*
X125857000Y-88519000D01*
X125857000Y-88499000D01*
X126111000Y-88499000D01*
X126111000Y-88519000D01*
X127304155Y-88519000D01*
X127425476Y-88289110D01*
X127255645Y-87879076D01*
X126865358Y-87450817D01*
X126735522Y-87389843D01*
X127054625Y-87176625D01*
X127382839Y-86685418D01*
X127498092Y-86106000D01*
X127382839Y-85526582D01*
X127054625Y-85035375D01*
X126563418Y-84707161D01*
X126130256Y-84621000D01*
X125837744Y-84621000D01*
X125404582Y-84707161D01*
X124913375Y-85035375D01*
X124901184Y-85053619D01*
X124892157Y-85008235D01*
X124751809Y-84798191D01*
X124541765Y-84657843D01*
X124294000Y-84608560D01*
X122594000Y-84608560D01*
X122346235Y-84657843D01*
X122136191Y-84798191D01*
X121995843Y-85008235D01*
X121946560Y-85256000D01*
X121946560Y-86956000D01*
X121995843Y-87203765D01*
X122136191Y-87413809D01*
X122346235Y-87554157D01*
X122391619Y-87563184D01*
X122373375Y-87575375D01*
X122165822Y-87886000D01*
X121639246Y-87886000D01*
X121564399Y-87871112D01*
X121489552Y-87886000D01*
X121489548Y-87886000D01*
X121267863Y-87930096D01*
X121266066Y-87931297D01*
X121079926Y-88055671D01*
X121079924Y-88055673D01*
X121016471Y-88098071D01*
X120974072Y-88161525D01*
X120571927Y-88563672D01*
X120508472Y-88606071D01*
X120466072Y-88669527D01*
X120466071Y-88669528D01*
X120340497Y-88857463D01*
X120281512Y-89154000D01*
X114248000Y-89154000D01*
X114248000Y-66496000D01*
X138811000Y-66496000D01*
X138811000Y-74930000D01*
X138811000Y-74930000D01*
G37*
X138811000Y-74930000D02*
X138820667Y-74978601D01*
X138848197Y-75019803D01*
X138889399Y-75047333D01*
X138938182Y-75057000D01*
X160164962Y-75026520D01*
X160213549Y-75016783D01*
X160254711Y-74989194D01*
X160278190Y-74953945D01*
X161136750Y-74953945D01*
X161950400Y-75767595D01*
X162764050Y-74953945D01*
X162692372Y-74709897D01*
X162162397Y-74520140D01*
X161600148Y-74547641D01*
X161208428Y-74709897D01*
X161136750Y-74953945D01*
X160278190Y-74953945D01*
X160282182Y-74947952D01*
X160291780Y-74899520D01*
X160291780Y-70505251D01*
X172725280Y-70505251D01*
X172725280Y-71394389D01*
X173065539Y-72215846D01*
X173694254Y-72844561D01*
X174515711Y-73184820D01*
X175404849Y-73184820D01*
X176226306Y-72844561D01*
X176855021Y-72215846D01*
X177195280Y-71394389D01*
X177195280Y-70505251D01*
X176855021Y-69683794D01*
X176226306Y-69055079D01*
X175404849Y-68714820D01*
X174515711Y-68714820D01*
X173694254Y-69055079D01*
X173065539Y-69683794D01*
X172725280Y-70505251D01*
X160291780Y-70505251D01*
X160291780Y-66496000D01*
X184456000Y-66496000D01*
X184456001Y-124766000D01*
X114248000Y-124766000D01*
X114248000Y-111225739D01*
X135135400Y-111225739D01*
X135135400Y-111788661D01*
X135350821Y-112308733D01*
X135748867Y-112706779D01*
X135918878Y-112777200D01*
X135748867Y-112847621D01*
X135350821Y-113245667D01*
X135135400Y-113765739D01*
X135135400Y-114328661D01*
X135350821Y-114848733D01*
X135748867Y-115246779D01*
X135918878Y-115317200D01*
X135748867Y-115387621D01*
X135350821Y-115785667D01*
X135135400Y-116305739D01*
X135135400Y-116868661D01*
X135350821Y-117388733D01*
X135748867Y-117786779D01*
X135918878Y-117857200D01*
X135748867Y-117927621D01*
X135350821Y-118325667D01*
X135135400Y-118845739D01*
X135135400Y-119408661D01*
X135350821Y-119928733D01*
X135748867Y-120326779D01*
X135918878Y-120397200D01*
X135748867Y-120467621D01*
X135350821Y-120865667D01*
X135135400Y-121385739D01*
X135135400Y-121948661D01*
X135350821Y-122468733D01*
X135748867Y-122866779D01*
X136268939Y-123082200D01*
X136831861Y-123082200D01*
X137351933Y-122866779D01*
X137667712Y-122551000D01*
X150901011Y-122551000D01*
X151033451Y-122749209D01*
X151243495Y-122889557D01*
X151491260Y-122938840D01*
X152391260Y-122938840D01*
X152639025Y-122889557D01*
X152849069Y-122749209D01*
X152989417Y-122539165D01*
X153038700Y-122291400D01*
X153038700Y-121091400D01*
X154143820Y-121091400D01*
X154143820Y-122291400D01*
X154193103Y-122539165D01*
X154333451Y-122749209D01*
X154543495Y-122889557D01*
X154791260Y-122938840D01*
X155691260Y-122938840D01*
X155939025Y-122889557D01*
X156149069Y-122749209D01*
X156219964Y-122643109D01*
X156359726Y-122701000D01*
X156771474Y-122701000D01*
X157151880Y-122543431D01*
X157443031Y-122252280D01*
X157600600Y-121871874D01*
X157600600Y-121460126D01*
X157443031Y-121079720D01*
X157151880Y-120788569D01*
X156771474Y-120631000D01*
X156359726Y-120631000D01*
X156193378Y-120699903D01*
X156149069Y-120633591D01*
X155939025Y-120493243D01*
X155691260Y-120443960D01*
X154791260Y-120443960D01*
X154543495Y-120493243D01*
X154333451Y-120633591D01*
X154193103Y-120843635D01*
X154143820Y-121091400D01*
X153038700Y-121091400D01*
X152989417Y-120843635D01*
X152849069Y-120633591D01*
X152639025Y-120493243D01*
X152391260Y-120443960D01*
X151491260Y-120443960D01*
X151243495Y-120493243D01*
X151033451Y-120633591D01*
X150934955Y-120781000D01*
X137665312Y-120781000D01*
X137351933Y-120467621D01*
X137181922Y-120397200D01*
X137351933Y-120326779D01*
X137749979Y-119928733D01*
X137965400Y-119408661D01*
X137965400Y-118845739D01*
X137749979Y-118325667D01*
X137351933Y-117927621D01*
X137181922Y-117857200D01*
X137351933Y-117786779D01*
X137749979Y-117388733D01*
X137965400Y-116868661D01*
X137965400Y-116305739D01*
X137749979Y-115785667D01*
X137351933Y-115387621D01*
X137181922Y-115317200D01*
X137351933Y-115246779D01*
X137749979Y-114848733D01*
X137965400Y-114328661D01*
X137965400Y-113765739D01*
X137749979Y-113245667D01*
X137351933Y-112847621D01*
X137181922Y-112777200D01*
X137351933Y-112706779D01*
X137749979Y-112308733D01*
X137965400Y-111788661D01*
X137965400Y-111225739D01*
X137749979Y-110705667D01*
X137351933Y-110307621D01*
X137197678Y-110243727D01*
X137292372Y-110204503D01*
X137343587Y-110030126D01*
X139630200Y-110030126D01*
X139630200Y-110441874D01*
X139787769Y-110822280D01*
X140078920Y-111113431D01*
X140459326Y-111271000D01*
X140871074Y-111271000D01*
X141251480Y-111113431D01*
X141368911Y-110996000D01*
X154465914Y-110996000D01*
X155460386Y-111990473D01*
X155502786Y-112053929D01*
X155754178Y-112221904D01*
X155975863Y-112266000D01*
X155975867Y-112266000D01*
X156023829Y-112275540D01*
X156131720Y-112383431D01*
X156512126Y-112541000D01*
X156923874Y-112541000D01*
X157304280Y-112383431D01*
X157595431Y-112092280D01*
X157753000Y-111711874D01*
X157753000Y-111300126D01*
X157595431Y-110919720D01*
X157304280Y-110628569D01*
X156923874Y-110471000D01*
X156512126Y-110471000D01*
X156214003Y-110594486D01*
X155371046Y-109751530D01*
X155328644Y-109688071D01*
X155077252Y-109520096D01*
X154855567Y-109476000D01*
X154855562Y-109476000D01*
X154780715Y-109461112D01*
X154705868Y-109476000D01*
X141368911Y-109476000D01*
X141251480Y-109358569D01*
X140871074Y-109201000D01*
X140459326Y-109201000D01*
X140078920Y-109358569D01*
X139787769Y-109649720D01*
X139630200Y-110030126D01*
X137343587Y-110030126D01*
X137364050Y-109960455D01*
X136550400Y-109146805D01*
X135736750Y-109960455D01*
X135808428Y-110204503D01*
X135910009Y-110240874D01*
X135748867Y-110307621D01*
X135350821Y-110705667D01*
X135135400Y-111225739D01*
X114248000Y-111225739D01*
X114248000Y-89154000D01*
X120281512Y-89154000D01*
X120296401Y-89228852D01*
X120296400Y-105487553D01*
X120281512Y-105562400D01*
X120296400Y-105637247D01*
X120296400Y-105637251D01*
X120340496Y-105858936D01*
X120508471Y-106110329D01*
X120571930Y-106152731D01*
X121228070Y-106808872D01*
X121270471Y-106872329D01*
X121333927Y-106914729D01*
X121521862Y-107040304D01*
X121563012Y-107048489D01*
X121743548Y-107084400D01*
X121743552Y-107084400D01*
X121818400Y-107099288D01*
X121893248Y-107084400D01*
X129339499Y-107084400D01*
X130435573Y-108180476D01*
X130477971Y-108243929D01*
X130541424Y-108286327D01*
X130541426Y-108286329D01*
X130665584Y-108369288D01*
X130729363Y-108411904D01*
X130951048Y-108456000D01*
X130951052Y-108456000D01*
X131025899Y-108470888D01*
X131100746Y-108456000D01*
X135230469Y-108456000D01*
X135123340Y-108755203D01*
X135150841Y-109317452D01*
X135313097Y-109709172D01*
X135557145Y-109780850D01*
X136370795Y-108967200D01*
X136356653Y-108953058D01*
X136536258Y-108773453D01*
X136550400Y-108787595D01*
X136564543Y-108773453D01*
X136744148Y-108953058D01*
X136730005Y-108967200D01*
X137543655Y-109780850D01*
X137787703Y-109709172D01*
X137977460Y-109179197D01*
X137949959Y-108616948D01*
X137883292Y-108456000D01*
X140539553Y-108456000D01*
X140614400Y-108470888D01*
X140689247Y-108456000D01*
X140689252Y-108456000D01*
X140740330Y-108445840D01*
X144698589Y-108445840D01*
X144816020Y-108563271D01*
X145196426Y-108720840D01*
X145608174Y-108720840D01*
X145988580Y-108563271D01*
X146279731Y-108272120D01*
X146437300Y-107891714D01*
X146437300Y-107479966D01*
X146315536Y-107186000D01*
X153653114Y-107186000D01*
X155155586Y-108688473D01*
X155197986Y-108751929D01*
X155261442Y-108794329D01*
X155449377Y-108919904D01*
X155497520Y-108929480D01*
X155671063Y-108964000D01*
X155671067Y-108964000D01*
X155745915Y-108978888D01*
X155820763Y-108964000D01*
X156014289Y-108964000D01*
X156131720Y-109081431D01*
X156512126Y-109239000D01*
X156923874Y-109239000D01*
X157304280Y-109081431D01*
X157595431Y-108790280D01*
X157753000Y-108409874D01*
X157753000Y-107998126D01*
X157595431Y-107617720D01*
X157304280Y-107326569D01*
X157092386Y-107238800D01*
X157304280Y-107151031D01*
X157595431Y-106859880D01*
X157715000Y-106571214D01*
X157715000Y-106581074D01*
X157872569Y-106961480D01*
X157990001Y-107078912D01*
X157990000Y-112955153D01*
X157975112Y-113030000D01*
X157990000Y-113104847D01*
X157990000Y-113104851D01*
X158034096Y-113326536D01*
X158202071Y-113577929D01*
X158265530Y-113620331D01*
X159175670Y-114530472D01*
X159218071Y-114593929D01*
X159469463Y-114761904D01*
X159691148Y-114806000D01*
X159691153Y-114806000D01*
X159766000Y-114820888D01*
X159840847Y-114806000D01*
X160733120Y-114806000D01*
X160750821Y-114848733D01*
X161148867Y-115246779D01*
X161318878Y-115317200D01*
X161148867Y-115387621D01*
X160750821Y-115785667D01*
X160535400Y-116305739D01*
X160535400Y-116868661D01*
X160750821Y-117388733D01*
X161148867Y-117786779D01*
X161318878Y-117857200D01*
X161148867Y-117927621D01*
X160750821Y-118325667D01*
X160535400Y-118845739D01*
X160535400Y-119408661D01*
X160750821Y-119928733D01*
X161148867Y-120326779D01*
X161318878Y-120397200D01*
X161148867Y-120467621D01*
X160750821Y-120865667D01*
X160535400Y-121385739D01*
X160535400Y-121948661D01*
X160750821Y-122468733D01*
X161148867Y-122866779D01*
X161668939Y-123082200D01*
X162231861Y-123082200D01*
X162751933Y-122866779D01*
X163149979Y-122468733D01*
X163365400Y-121948661D01*
X163365400Y-121385739D01*
X163149979Y-120865667D01*
X162751933Y-120467621D01*
X162581922Y-120397200D01*
X162751933Y-120326779D01*
X162995201Y-120083511D01*
X172631300Y-120083511D01*
X172631300Y-120972649D01*
X172971559Y-121794106D01*
X173600274Y-122422821D01*
X174421731Y-122763080D01*
X175310869Y-122763080D01*
X176132326Y-122422821D01*
X176761041Y-121794106D01*
X177101300Y-120972649D01*
X177101300Y-120083511D01*
X176761041Y-119262054D01*
X176132326Y-118633339D01*
X175310869Y-118293080D01*
X174421731Y-118293080D01*
X173600274Y-118633339D01*
X172971559Y-119262054D01*
X172631300Y-120083511D01*
X162995201Y-120083511D01*
X163149979Y-119928733D01*
X163365400Y-119408661D01*
X163365400Y-118845739D01*
X163149979Y-118325667D01*
X162751933Y-117927621D01*
X162581922Y-117857200D01*
X162751933Y-117786779D01*
X163149979Y-117388733D01*
X163365400Y-116868661D01*
X163365400Y-116305739D01*
X163149979Y-115785667D01*
X162751933Y-115387621D01*
X162581922Y-115317200D01*
X162751933Y-115246779D01*
X163149979Y-114848733D01*
X163365400Y-114328661D01*
X163365400Y-113765739D01*
X163149979Y-113245667D01*
X162751933Y-112847621D01*
X162717311Y-112833280D01*
X172747044Y-112833280D01*
X172771324Y-112938626D01*
X173062868Y-113464146D01*
X173533328Y-113838094D01*
X174111080Y-114003540D01*
X175011080Y-114003540D01*
X175011080Y-112595540D01*
X175265080Y-112595540D01*
X175265080Y-114003540D01*
X176165080Y-114003540D01*
X176742832Y-113838094D01*
X177213292Y-113464146D01*
X177504836Y-112938626D01*
X177529116Y-112833280D01*
X177408458Y-112595540D01*
X175265080Y-112595540D01*
X175011080Y-112595540D01*
X172867702Y-112595540D01*
X172747044Y-112833280D01*
X162717311Y-112833280D01*
X162581922Y-112777200D01*
X162751933Y-112706779D01*
X163149979Y-112308733D01*
X163234865Y-112103800D01*
X172747044Y-112103800D01*
X172867702Y-112341540D01*
X175011080Y-112341540D01*
X175011080Y-110933540D01*
X175265080Y-110933540D01*
X175265080Y-112341540D01*
X177408458Y-112341540D01*
X177529116Y-112103800D01*
X177504836Y-111998454D01*
X177213292Y-111472934D01*
X176742832Y-111098986D01*
X176165080Y-110933540D01*
X175265080Y-110933540D01*
X175011080Y-110933540D01*
X174111080Y-110933540D01*
X173533328Y-111098986D01*
X173062868Y-111472934D01*
X172771324Y-111998454D01*
X172747044Y-112103800D01*
X163234865Y-112103800D01*
X163365400Y-111788661D01*
X163365400Y-111225739D01*
X163149979Y-110705667D01*
X162751933Y-110307621D01*
X162581922Y-110237200D01*
X162751933Y-110166779D01*
X163149979Y-109768733D01*
X163365400Y-109248661D01*
X163365400Y-108685739D01*
X163149979Y-108165667D01*
X162751933Y-107767621D01*
X162581922Y-107697200D01*
X162751933Y-107626779D01*
X163149979Y-107228733D01*
X163365400Y-106708661D01*
X163365400Y-106145739D01*
X163270239Y-105916000D01*
X165533153Y-105916000D01*
X165608000Y-105930888D01*
X165682847Y-105916000D01*
X165682852Y-105916000D01*
X165904537Y-105871904D01*
X166155929Y-105703929D01*
X166198331Y-105640470D01*
X166727600Y-105111202D01*
X166727600Y-105843149D01*
X166727601Y-106822398D01*
X166647527Y-106902471D01*
X166647528Y-106902471D01*
X166613999Y-106936000D01*
X165346511Y-106936000D01*
X165229080Y-106818569D01*
X164848674Y-106661000D01*
X164436926Y-106661000D01*
X164056520Y-106818569D01*
X163765369Y-107109720D01*
X163607800Y-107490126D01*
X163607800Y-107901874D01*
X163765369Y-108282280D01*
X164056520Y-108573431D01*
X164436926Y-108731000D01*
X164848674Y-108731000D01*
X165229080Y-108573431D01*
X165346511Y-108456000D01*
X166853953Y-108456000D01*
X166928800Y-108470888D01*
X167003647Y-108456000D01*
X167003652Y-108456000D01*
X167225337Y-108411904D01*
X167476729Y-108243929D01*
X167519131Y-108180470D01*
X167600920Y-108098681D01*
X167676969Y-108282280D01*
X167968120Y-108573431D01*
X168348526Y-108731000D01*
X168760274Y-108731000D01*
X169140680Y-108573431D01*
X169395571Y-108318540D01*
X172690640Y-108318540D01*
X172690640Y-109618540D01*
X172758954Y-109961975D01*
X172953494Y-110253126D01*
X173244645Y-110447666D01*
X173588080Y-110515980D01*
X176688080Y-110515980D01*
X177031515Y-110447666D01*
X177322666Y-110253126D01*
X177517206Y-109961975D01*
X177585520Y-109618540D01*
X177585520Y-108318540D01*
X177517206Y-107975105D01*
X177322666Y-107683954D01*
X177031515Y-107489414D01*
X176688080Y-107421100D01*
X173588080Y-107421100D01*
X173244645Y-107489414D01*
X172953494Y-107683954D01*
X172758954Y-107975105D01*
X172690640Y-108318540D01*
X169395571Y-108318540D01*
X169431831Y-108282280D01*
X169589400Y-107901874D01*
X169589400Y-107490126D01*
X169431831Y-107109720D01*
X169314400Y-106992289D01*
X169314400Y-99984401D01*
X169613422Y-99685380D01*
X171811816Y-99685380D01*
X171713908Y-100177600D01*
X171829161Y-100757018D01*
X172157375Y-101248225D01*
X172455761Y-101447600D01*
X172157375Y-101646975D01*
X171829161Y-102138182D01*
X171713908Y-102717600D01*
X171829161Y-103297018D01*
X172157375Y-103788225D01*
X172648582Y-104116439D01*
X173081744Y-104202600D01*
X173374256Y-104202600D01*
X173807418Y-104116439D01*
X174298625Y-103788225D01*
X174313096Y-103766568D01*
X174379673Y-103927299D01*
X174558302Y-104105927D01*
X174791691Y-104202600D01*
X175482250Y-104202600D01*
X175641000Y-104043850D01*
X175641000Y-102844600D01*
X175895000Y-102844600D01*
X175895000Y-104043850D01*
X176053750Y-104202600D01*
X176744309Y-104202600D01*
X176977698Y-104105927D01*
X177156327Y-103927299D01*
X177253000Y-103693910D01*
X177253000Y-103003350D01*
X177094250Y-102844600D01*
X175895000Y-102844600D01*
X175641000Y-102844600D01*
X175621000Y-102844600D01*
X175621000Y-102590600D01*
X175641000Y-102590600D01*
X175641000Y-102570600D01*
X175895000Y-102570600D01*
X175895000Y-102590600D01*
X177094250Y-102590600D01*
X177253000Y-102431850D01*
X177253000Y-101741290D01*
X177156327Y-101507901D01*
X176977698Y-101329273D01*
X176816967Y-101262696D01*
X176838625Y-101248225D01*
X177166839Y-100757018D01*
X177282092Y-100177600D01*
X177166839Y-99598182D01*
X176838625Y-99106975D01*
X176540239Y-98907600D01*
X176838625Y-98708225D01*
X177166839Y-98217018D01*
X177282092Y-97637600D01*
X177166839Y-97058182D01*
X176838625Y-96566975D01*
X176540239Y-96367600D01*
X176838625Y-96168225D01*
X177166839Y-95677018D01*
X177282092Y-95097600D01*
X177166839Y-94518182D01*
X176838625Y-94026975D01*
X176540239Y-93827600D01*
X176838625Y-93628225D01*
X177046369Y-93317314D01*
X177266618Y-93273504D01*
X177518010Y-93105529D01*
X177560411Y-93042071D01*
X178030476Y-92572008D01*
X178093929Y-92529610D01*
X178136327Y-92466157D01*
X178136329Y-92466155D01*
X178251751Y-92293413D01*
X178261904Y-92278218D01*
X178306000Y-92056533D01*
X178306000Y-92056529D01*
X178320888Y-91981682D01*
X178306000Y-91906835D01*
X178306000Y-79322848D01*
X178320888Y-79248000D01*
X178306000Y-79173152D01*
X178306000Y-79173148D01*
X178261904Y-78951463D01*
X178261904Y-78951462D01*
X178136329Y-78763527D01*
X178093929Y-78700071D01*
X178030473Y-78657671D01*
X177375531Y-78002730D01*
X177333129Y-77939271D01*
X177081737Y-77771296D01*
X176860052Y-77727200D01*
X176860047Y-77727200D01*
X176785200Y-77712312D01*
X176710353Y-77727200D01*
X163167183Y-77727200D01*
X163149979Y-77685667D01*
X162751933Y-77287621D01*
X162597678Y-77223727D01*
X162692372Y-77184503D01*
X162764050Y-76940455D01*
X161950400Y-76126805D01*
X161136750Y-76940455D01*
X161208428Y-77184503D01*
X161310009Y-77220874D01*
X161148867Y-77287621D01*
X160750821Y-77685667D01*
X160535400Y-78205739D01*
X160535400Y-78768661D01*
X160750821Y-79288733D01*
X161148867Y-79686779D01*
X161318878Y-79757200D01*
X161148867Y-79827621D01*
X160750821Y-80225667D01*
X160733617Y-80267200D01*
X160347648Y-80267200D01*
X160272800Y-80252312D01*
X160197952Y-80267200D01*
X160197948Y-80267200D01*
X160024405Y-80301720D01*
X159976262Y-80311296D01*
X159789218Y-80436276D01*
X159724871Y-80479271D01*
X159682471Y-80542727D01*
X159052928Y-81172271D01*
X158989472Y-81214671D01*
X158947072Y-81278127D01*
X158947071Y-81278128D01*
X158821497Y-81466063D01*
X158762512Y-81762600D01*
X158777401Y-81837452D01*
X158777400Y-92914548D01*
X158777400Y-92914549D01*
X158777401Y-93931200D01*
X158596246Y-93931200D01*
X158521399Y-93916312D01*
X158446552Y-93931200D01*
X158446548Y-93931200D01*
X158421009Y-93936280D01*
X158257371Y-93936280D01*
X158139940Y-93818849D01*
X157759534Y-93661280D01*
X157347786Y-93661280D01*
X156967380Y-93818849D01*
X156676229Y-94110000D01*
X156518660Y-94490406D01*
X156518660Y-94902154D01*
X156676229Y-95282560D01*
X156967380Y-95573711D01*
X157347786Y-95731280D01*
X157759534Y-95731280D01*
X158139940Y-95573711D01*
X158257371Y-95456280D01*
X158441473Y-95456280D01*
X158516320Y-95471168D01*
X158591167Y-95456280D01*
X158591172Y-95456280D01*
X158616711Y-95451200D01*
X159056153Y-95451200D01*
X159131000Y-95466088D01*
X159205847Y-95451200D01*
X159205852Y-95451200D01*
X159427537Y-95407104D01*
X159678929Y-95239129D01*
X159721331Y-95175671D01*
X160021872Y-94875129D01*
X160085329Y-94832729D01*
X160253304Y-94581337D01*
X160297400Y-94359652D01*
X160297400Y-94359648D01*
X160312288Y-94284801D01*
X160297400Y-94209954D01*
X160297400Y-90975203D01*
X160523340Y-90975203D01*
X160550841Y-91537452D01*
X160713097Y-91929172D01*
X160957145Y-92000850D01*
X161770795Y-91187200D01*
X162130005Y-91187200D01*
X162943655Y-92000850D01*
X163187703Y-91929172D01*
X163377460Y-91399197D01*
X163349959Y-90836948D01*
X163187703Y-90445228D01*
X162943655Y-90373550D01*
X162130005Y-91187200D01*
X161770795Y-91187200D01*
X160957145Y-90373550D01*
X160713097Y-90445228D01*
X160523340Y-90975203D01*
X160297400Y-90975203D01*
X160297400Y-82077401D01*
X160587602Y-81787200D01*
X160733617Y-81787200D01*
X160750821Y-81828733D01*
X161148867Y-82226779D01*
X161318878Y-82297200D01*
X161148867Y-82367621D01*
X160750821Y-82765667D01*
X160535400Y-83285739D01*
X160535400Y-83848661D01*
X160750821Y-84368733D01*
X161148867Y-84766779D01*
X161318878Y-84837200D01*
X161148867Y-84907621D01*
X160750821Y-85305667D01*
X160535400Y-85825739D01*
X160535400Y-86388661D01*
X160750821Y-86908733D01*
X161148867Y-87306779D01*
X161318878Y-87377200D01*
X161148867Y-87447621D01*
X160750821Y-87845667D01*
X160535400Y-88365739D01*
X160535400Y-88928661D01*
X160750821Y-89448733D01*
X161148867Y-89846779D01*
X161303122Y-89910673D01*
X161208428Y-89949897D01*
X161136750Y-90193945D01*
X161950400Y-91007595D01*
X162764050Y-90193945D01*
X162692372Y-89949897D01*
X162590791Y-89913526D01*
X162751933Y-89846779D01*
X163149979Y-89448733D01*
X163365400Y-88928661D01*
X163365400Y-88365739D01*
X163149979Y-87845667D01*
X162751933Y-87447621D01*
X162581922Y-87377200D01*
X162751933Y-87306779D01*
X163149979Y-86908733D01*
X163167183Y-86867200D01*
X163719599Y-86867200D01*
X163730401Y-86878002D01*
X163730400Y-94241489D01*
X163612969Y-94358920D01*
X163455400Y-94739326D01*
X163455400Y-95151074D01*
X163612969Y-95531480D01*
X163904120Y-95822631D01*
X164284526Y-95980200D01*
X164696274Y-95980200D01*
X165076680Y-95822631D01*
X165367831Y-95531480D01*
X165525400Y-95151074D01*
X165525400Y-94739326D01*
X165367831Y-94358920D01*
X165250400Y-94241489D01*
X165250400Y-86638046D01*
X165265288Y-86563199D01*
X165250400Y-86488352D01*
X165250400Y-86488348D01*
X165206304Y-86266663D01*
X165038329Y-86015271D01*
X164974872Y-85972871D01*
X164624731Y-85622729D01*
X164582329Y-85559271D01*
X164330937Y-85391296D01*
X164109252Y-85347200D01*
X164109247Y-85347200D01*
X164034400Y-85332312D01*
X163959553Y-85347200D01*
X163167183Y-85347200D01*
X163149979Y-85305667D01*
X162751933Y-84907621D01*
X162581922Y-84837200D01*
X162751933Y-84766779D01*
X163149979Y-84368733D01*
X163365400Y-83848661D01*
X163365400Y-83285739D01*
X163149979Y-82765667D01*
X162751933Y-82367621D01*
X162581922Y-82297200D01*
X162751933Y-82226779D01*
X163149979Y-81828733D01*
X163365400Y-81308661D01*
X163365400Y-80745739D01*
X163149979Y-80225667D01*
X162751933Y-79827621D01*
X162581922Y-79757200D01*
X162751933Y-79686779D01*
X163149979Y-79288733D01*
X163167183Y-79247200D01*
X176470399Y-79247200D01*
X176786001Y-79562803D01*
X176786000Y-86371812D01*
X176347418Y-86078761D01*
X175914256Y-85992600D01*
X175621744Y-85992600D01*
X175188582Y-86078761D01*
X174697375Y-86406975D01*
X174498000Y-86705361D01*
X174298625Y-86406975D01*
X173807418Y-86078761D01*
X173374256Y-85992600D01*
X173081744Y-85992600D01*
X172648582Y-86078761D01*
X172157375Y-86406975D01*
X171829161Y-86898182D01*
X171713908Y-87477600D01*
X171829161Y-88057018D01*
X172157375Y-88548225D01*
X172455761Y-88747600D01*
X172157375Y-88946975D01*
X171949822Y-89257600D01*
X171460002Y-89257600D01*
X171397200Y-89194798D01*
X171397200Y-88028911D01*
X171514631Y-87911480D01*
X171672200Y-87531074D01*
X171672200Y-87119326D01*
X171514631Y-86738920D01*
X171440511Y-86664800D01*
X171565431Y-86539880D01*
X171723000Y-86159474D01*
X171723000Y-85747726D01*
X171573000Y-85385593D01*
X171573000Y-82965607D01*
X171723000Y-82603474D01*
X171723000Y-82191726D01*
X171565431Y-81811320D01*
X171274280Y-81520169D01*
X170893874Y-81362600D01*
X170482126Y-81362600D01*
X170101720Y-81520169D01*
X169810569Y-81811320D01*
X169653000Y-82191726D01*
X169653000Y-82603474D01*
X169803000Y-82965607D01*
X169803001Y-85385591D01*
X169653000Y-85747726D01*
X169653000Y-86159474D01*
X169810569Y-86539880D01*
X169884689Y-86614000D01*
X169759769Y-86738920D01*
X169602200Y-87119326D01*
X169602200Y-87531074D01*
X169759769Y-87911480D01*
X169877201Y-88028912D01*
X169877200Y-89434753D01*
X169862312Y-89509600D01*
X169877200Y-89584447D01*
X169877200Y-89584451D01*
X169921296Y-89806136D01*
X170089271Y-90057529D01*
X170152729Y-90099930D01*
X170554872Y-90502075D01*
X170597271Y-90565529D01*
X170660724Y-90607927D01*
X170660726Y-90607929D01*
X170762602Y-90676000D01*
X170848663Y-90733504D01*
X171070348Y-90777600D01*
X171070352Y-90777600D01*
X171145199Y-90792488D01*
X171220046Y-90777600D01*
X171949822Y-90777600D01*
X172157375Y-91088225D01*
X172455761Y-91287600D01*
X172157375Y-91486975D01*
X171829161Y-91978182D01*
X171713908Y-92557600D01*
X171829161Y-93137018D01*
X172157375Y-93628225D01*
X172455761Y-93827600D01*
X172157375Y-94026975D01*
X171949822Y-94337600D01*
X167867246Y-94337600D01*
X167792399Y-94322712D01*
X167717552Y-94337600D01*
X167717548Y-94337600D01*
X167495863Y-94381696D01*
X167244471Y-94549671D01*
X167202071Y-94613127D01*
X164971129Y-96844070D01*
X164907671Y-96886471D01*
X164739697Y-97137863D01*
X164680712Y-97434400D01*
X164705760Y-97560325D01*
X164705761Y-101912288D01*
X164588329Y-102029720D01*
X164430760Y-102410126D01*
X164430760Y-102821874D01*
X164588329Y-103202280D01*
X164879480Y-103493431D01*
X165259886Y-103651000D01*
X165671634Y-103651000D01*
X165864000Y-103571320D01*
X165864000Y-103825198D01*
X165293199Y-104396000D01*
X163271233Y-104396000D01*
X163365400Y-104168661D01*
X163365400Y-103605739D01*
X163149979Y-103085667D01*
X162751933Y-102687621D01*
X162581922Y-102617200D01*
X162751933Y-102546779D01*
X163149979Y-102148733D01*
X163365400Y-101628661D01*
X163365400Y-101065739D01*
X163149979Y-100545667D01*
X162751933Y-100147621D01*
X162581922Y-100077200D01*
X162751933Y-100006779D01*
X163149979Y-99608733D01*
X163365400Y-99088661D01*
X163365400Y-98525739D01*
X163149979Y-98005667D01*
X162751933Y-97607621D01*
X162581922Y-97537200D01*
X162751933Y-97466779D01*
X163149979Y-97068733D01*
X163365400Y-96548661D01*
X163365400Y-95985739D01*
X163149979Y-95465667D01*
X162751933Y-95067621D01*
X162581922Y-94997200D01*
X162751933Y-94926779D01*
X163149979Y-94528733D01*
X163365400Y-94008661D01*
X163365400Y-93445739D01*
X163149979Y-92925667D01*
X162751933Y-92527621D01*
X162597678Y-92463727D01*
X162692372Y-92424503D01*
X162764050Y-92180455D01*
X161950400Y-91366805D01*
X161136750Y-92180455D01*
X161208428Y-92424503D01*
X161310009Y-92460874D01*
X161148867Y-92527621D01*
X160750821Y-92925667D01*
X160535400Y-93445739D01*
X160535400Y-94008661D01*
X160750821Y-94528733D01*
X161148867Y-94926779D01*
X161318878Y-94997200D01*
X161148867Y-95067621D01*
X160750821Y-95465667D01*
X160535400Y-95985739D01*
X160535400Y-96548661D01*
X160750821Y-97068733D01*
X161148867Y-97466779D01*
X161318878Y-97537200D01*
X161148867Y-97607621D01*
X160750821Y-98005667D01*
X160535400Y-98525739D01*
X160535400Y-99088661D01*
X160750821Y-99608733D01*
X161148867Y-100006779D01*
X161318878Y-100077200D01*
X161148867Y-100147621D01*
X160750821Y-100545667D01*
X160734115Y-100586000D01*
X155726046Y-100586000D01*
X155651199Y-100571112D01*
X155576352Y-100586000D01*
X155576348Y-100586000D01*
X155354663Y-100630096D01*
X155103271Y-100798071D01*
X155060871Y-100861527D01*
X154066399Y-101856000D01*
X140018711Y-101856000D01*
X140130391Y-101744320D01*
X140287960Y-101363914D01*
X140287960Y-100952166D01*
X140130391Y-100571760D01*
X140018040Y-100459409D01*
X140018040Y-100427060D01*
X142944933Y-100427060D01*
X143019780Y-100441948D01*
X143094627Y-100427060D01*
X143094632Y-100427060D01*
X143316317Y-100382964D01*
X143567709Y-100214989D01*
X143610111Y-100151530D01*
X143770950Y-99990691D01*
X143834409Y-99948289D01*
X143932489Y-99801502D01*
X144168991Y-99565000D01*
X144326560Y-99184594D01*
X144326560Y-98933540D01*
X154759529Y-98933540D01*
X154876960Y-99050971D01*
X155257366Y-99208540D01*
X155669114Y-99208540D01*
X156049520Y-99050971D01*
X156340671Y-98759820D01*
X156498240Y-98379414D01*
X156498240Y-97967666D01*
X156340671Y-97587260D01*
X156049520Y-97296109D01*
X155907312Y-97237204D01*
X156072380Y-97168831D01*
X156363531Y-96877680D01*
X156521100Y-96497274D01*
X156521100Y-96085526D01*
X156363531Y-95705120D01*
X156246100Y-95587689D01*
X156246100Y-92462267D01*
X156260988Y-92387420D01*
X156246100Y-92312573D01*
X156246100Y-92312568D01*
X156202004Y-92090883D01*
X156034029Y-91839491D01*
X155970573Y-91797091D01*
X155755866Y-91582385D01*
X155916491Y-91421760D01*
X156074060Y-91041354D01*
X156074060Y-90676000D01*
X156260669Y-90676000D01*
X156378100Y-90793431D01*
X156758506Y-90951000D01*
X157170254Y-90951000D01*
X157191120Y-90942357D01*
X157191120Y-91497466D01*
X156995320Y-91578569D01*
X156704169Y-91869720D01*
X156546600Y-92250126D01*
X156546600Y-92661874D01*
X156704169Y-93042280D01*
X156995320Y-93333431D01*
X157375726Y-93491000D01*
X157787474Y-93491000D01*
X158167880Y-93333431D01*
X158459031Y-93042280D01*
X158616600Y-92661874D01*
X158616600Y-92590561D01*
X158667023Y-92515098D01*
X158711119Y-92293413D01*
X158711119Y-92293409D01*
X158726007Y-92218562D01*
X158711119Y-92143715D01*
X158711119Y-89213485D01*
X158726007Y-89138638D01*
X158711119Y-89063791D01*
X158711119Y-89063787D01*
X158667023Y-88842102D01*
X158499048Y-88590710D01*
X158435592Y-88548310D01*
X158206289Y-88319007D01*
X158050010Y-88162729D01*
X158007609Y-88099271D01*
X157756217Y-87931296D01*
X157534532Y-87887200D01*
X157534527Y-87887200D01*
X157459680Y-87872312D01*
X157384833Y-87887200D01*
X137767183Y-87887200D01*
X137749979Y-87845667D01*
X137351933Y-87447621D01*
X137181922Y-87377200D01*
X137351933Y-87306779D01*
X137749979Y-86908733D01*
X137767183Y-86867200D01*
X138308233Y-86867200D01*
X138383080Y-86882088D01*
X138457927Y-86867200D01*
X138457932Y-86867200D01*
X138679617Y-86823104D01*
X138931009Y-86655129D01*
X138973411Y-86591670D01*
X139958922Y-85606160D01*
X154363289Y-85606160D01*
X154480720Y-85723591D01*
X154861126Y-85881160D01*
X155272874Y-85881160D01*
X155653280Y-85723591D01*
X155944431Y-85432440D01*
X156102000Y-85052034D01*
X156102000Y-84640286D01*
X155944431Y-84259880D01*
X155653280Y-83968729D01*
X155272874Y-83811160D01*
X154861126Y-83811160D01*
X154480720Y-83968729D01*
X154363289Y-84086160D01*
X139718967Y-84086160D01*
X139644120Y-84071272D01*
X139569273Y-84086160D01*
X139569268Y-84086160D01*
X139347583Y-84130256D01*
X139096191Y-84298231D01*
X139053791Y-84361687D01*
X138068279Y-85347200D01*
X137767183Y-85347200D01*
X137749979Y-85305667D01*
X137351933Y-84907621D01*
X137181922Y-84837200D01*
X137351933Y-84766779D01*
X137749979Y-84368733D01*
X137965400Y-83848661D01*
X137965400Y-83285739D01*
X137749979Y-82765667D01*
X137351933Y-82367621D01*
X137181922Y-82297200D01*
X137351933Y-82226779D01*
X137749979Y-81828733D01*
X137965400Y-81308661D01*
X137965400Y-80745739D01*
X137749979Y-80225667D01*
X137351933Y-79827621D01*
X137181922Y-79757200D01*
X137351933Y-79686779D01*
X137749979Y-79288733D01*
X137965400Y-78768661D01*
X137965400Y-78205739D01*
X137749979Y-77685667D01*
X137420942Y-77356630D01*
X137578165Y-77325357D01*
X137788209Y-77185009D01*
X137928557Y-76974965D01*
X137977840Y-76727200D01*
X137977840Y-75735203D01*
X160523340Y-75735203D01*
X160550841Y-76297452D01*
X160713097Y-76689172D01*
X160957145Y-76760850D01*
X161770795Y-75947200D01*
X162130005Y-75947200D01*
X162943655Y-76760850D01*
X163187703Y-76689172D01*
X163377460Y-76159197D01*
X163349959Y-75596948D01*
X163187703Y-75205228D01*
X162943655Y-75133550D01*
X162130005Y-75947200D01*
X161770795Y-75947200D01*
X160957145Y-75133550D01*
X160713097Y-75205228D01*
X160523340Y-75735203D01*
X137977840Y-75735203D01*
X137977840Y-75167200D01*
X137928557Y-74919435D01*
X137788209Y-74709391D01*
X137578165Y-74569043D01*
X137330400Y-74519760D01*
X135770400Y-74519760D01*
X135522635Y-74569043D01*
X135312591Y-74709391D01*
X135172243Y-74919435D01*
X135122960Y-75167200D01*
X135122960Y-76727200D01*
X135172243Y-76974965D01*
X135312591Y-77185009D01*
X135522635Y-77325357D01*
X135679858Y-77356630D01*
X135350821Y-77685667D01*
X135135400Y-78205739D01*
X135135400Y-78768661D01*
X135350821Y-79288733D01*
X135748867Y-79686779D01*
X135918878Y-79757200D01*
X135748867Y-79827621D01*
X135350821Y-80225667D01*
X135135400Y-80745739D01*
X135135400Y-81308661D01*
X135350821Y-81828733D01*
X135748867Y-82226779D01*
X135918878Y-82297200D01*
X135748867Y-82367621D01*
X135350821Y-82765667D01*
X135135400Y-83285739D01*
X135135400Y-83848661D01*
X135350821Y-84368733D01*
X135748867Y-84766779D01*
X135918878Y-84837200D01*
X135748867Y-84907621D01*
X135350821Y-85305667D01*
X135135400Y-85825739D01*
X135135400Y-86388661D01*
X135350821Y-86908733D01*
X135748867Y-87306779D01*
X135918878Y-87377200D01*
X135748867Y-87447621D01*
X135350821Y-87845667D01*
X135135400Y-88365739D01*
X135135400Y-88928661D01*
X135350821Y-89448733D01*
X135748867Y-89846779D01*
X135918878Y-89917200D01*
X135748867Y-89987621D01*
X135350821Y-90385667D01*
X135135400Y-90905739D01*
X135135400Y-91468661D01*
X135350821Y-91988733D01*
X135748867Y-92386779D01*
X135918878Y-92457200D01*
X135748867Y-92527621D01*
X135350821Y-92925667D01*
X135135400Y-93445739D01*
X135135400Y-94008661D01*
X135200108Y-94164880D01*
X134571582Y-94164880D01*
X134504380Y-94097678D01*
X134504380Y-93931606D01*
X134346811Y-93551200D01*
X134055660Y-93260049D01*
X133675254Y-93102480D01*
X133263506Y-93102480D01*
X132883100Y-93260049D01*
X132591949Y-93551200D01*
X132434380Y-93931606D01*
X132434380Y-93970779D01*
X132263931Y-93800330D01*
X132221529Y-93736871D01*
X131970137Y-93568896D01*
X131748452Y-93524800D01*
X131748447Y-93524800D01*
X131673600Y-93509912D01*
X131598753Y-93524800D01*
X128826800Y-93524800D01*
X128826800Y-91616446D01*
X128841688Y-91541599D01*
X128826800Y-91466752D01*
X128826800Y-91466748D01*
X128782704Y-91245063D01*
X128614729Y-90993671D01*
X128551272Y-90951271D01*
X128301531Y-90701529D01*
X128259129Y-90638071D01*
X128007737Y-90470096D01*
X127786052Y-90426000D01*
X127786047Y-90426000D01*
X127711200Y-90411112D01*
X127636353Y-90426000D01*
X127262178Y-90426000D01*
X127054625Y-90115375D01*
X126735522Y-89902157D01*
X126865358Y-89841183D01*
X127255645Y-89412924D01*
X127425476Y-89002890D01*
X127304155Y-88773000D01*
X126111000Y-88773000D01*
X126111000Y-88793000D01*
X125857000Y-88793000D01*
X125857000Y-88773000D01*
X125837000Y-88773000D01*
X125837000Y-88519000D01*
X125857000Y-88519000D01*
X125857000Y-88499000D01*
X126111000Y-88499000D01*
X126111000Y-88519000D01*
X127304155Y-88519000D01*
X127425476Y-88289110D01*
X127255645Y-87879076D01*
X126865358Y-87450817D01*
X126735522Y-87389843D01*
X127054625Y-87176625D01*
X127382839Y-86685418D01*
X127498092Y-86106000D01*
X127382839Y-85526582D01*
X127054625Y-85035375D01*
X126563418Y-84707161D01*
X126130256Y-84621000D01*
X125837744Y-84621000D01*
X125404582Y-84707161D01*
X124913375Y-85035375D01*
X124901184Y-85053619D01*
X124892157Y-85008235D01*
X124751809Y-84798191D01*
X124541765Y-84657843D01*
X124294000Y-84608560D01*
X122594000Y-84608560D01*
X122346235Y-84657843D01*
X122136191Y-84798191D01*
X121995843Y-85008235D01*
X121946560Y-85256000D01*
X121946560Y-86956000D01*
X121995843Y-87203765D01*
X122136191Y-87413809D01*
X122346235Y-87554157D01*
X122391619Y-87563184D01*
X122373375Y-87575375D01*
X122165822Y-87886000D01*
X121639246Y-87886000D01*
X121564399Y-87871112D01*
X121489552Y-87886000D01*
X121489548Y-87886000D01*
X121267863Y-87930096D01*
X121266066Y-87931297D01*
X121079926Y-88055671D01*
X121079924Y-88055673D01*
X121016471Y-88098071D01*
X120974072Y-88161525D01*
X120571927Y-88563672D01*
X120508472Y-88606071D01*
X120466072Y-88669527D01*
X120466071Y-88669528D01*
X120340497Y-88857463D01*
X120281512Y-89154000D01*
X114248000Y-89154000D01*
X114248000Y-66496000D01*
X138811000Y-66496000D01*
X138811000Y-74930000D01*
G36*
X160535400Y-111225739D02*
X160535400Y-111788661D01*
X160750821Y-112308733D01*
X161148867Y-112706779D01*
X161318878Y-112777200D01*
X161148867Y-112847621D01*
X160750821Y-113245667D01*
X160734115Y-113286000D01*
X160080802Y-113286000D01*
X159510000Y-112715199D01*
X159510000Y-111279995D01*
X159610926Y-111321800D01*
X160022674Y-111321800D01*
X160403080Y-111164231D01*
X160672457Y-110894854D01*
X160535400Y-111225739D01*
X160535400Y-111225739D01*
G37*
X160535400Y-111225739D02*
X160535400Y-111788661D01*
X160750821Y-112308733D01*
X161148867Y-112706779D01*
X161318878Y-112777200D01*
X161148867Y-112847621D01*
X160750821Y-113245667D01*
X160734115Y-113286000D01*
X160080802Y-113286000D01*
X159510000Y-112715199D01*
X159510000Y-111279995D01*
X159610926Y-111321800D01*
X160022674Y-111321800D01*
X160403080Y-111164231D01*
X160672457Y-110894854D01*
X160535400Y-111225739D01*
G36*
X160750821Y-109768733D02*
X161148867Y-110166779D01*
X161318878Y-110237200D01*
X161148867Y-110307621D01*
X160772594Y-110683894D01*
X160851800Y-110492674D01*
X160851800Y-110080926D01*
X160694231Y-109700520D01*
X160576800Y-109583089D01*
X160576800Y-109348609D01*
X160750821Y-109768733D01*
X160750821Y-109768733D01*
G37*
X160750821Y-109768733D02*
X161148867Y-110166779D01*
X161318878Y-110237200D01*
X161148867Y-110307621D01*
X160772594Y-110683894D01*
X160851800Y-110492674D01*
X160851800Y-110080926D01*
X160694231Y-109700520D01*
X160576800Y-109583089D01*
X160576800Y-109348609D01*
X160750821Y-109768733D01*
G36*
X160750821Y-102148733D02*
X161148867Y-102546779D01*
X161318878Y-102617200D01*
X161148867Y-102687621D01*
X160750821Y-103085667D01*
X160734115Y-103126000D01*
X157453248Y-103126000D01*
X157378400Y-103111112D01*
X157303552Y-103126000D01*
X157303548Y-103126000D01*
X157081863Y-103170096D01*
X156830471Y-103338071D01*
X156788071Y-103401527D01*
X156233528Y-103956071D01*
X156170072Y-103998471D01*
X156127672Y-104061927D01*
X156127671Y-104061928D01*
X156002097Y-104249863D01*
X155943112Y-104546400D01*
X155958001Y-104621252D01*
X155958000Y-105569889D01*
X155840569Y-105687320D01*
X155683000Y-106067726D01*
X155683000Y-106479474D01*
X155840569Y-106859880D01*
X156131720Y-107151031D01*
X156343614Y-107238800D01*
X156131720Y-107326569D01*
X156037503Y-107420786D01*
X154558246Y-105941530D01*
X154515844Y-105878071D01*
X154264452Y-105710096D01*
X154042767Y-105666000D01*
X154042762Y-105666000D01*
X153967915Y-105651112D01*
X153893068Y-105666000D01*
X144431727Y-105666000D01*
X144557700Y-105361874D01*
X144557700Y-104950126D01*
X144400131Y-104569720D01*
X144108980Y-104278569D01*
X143728574Y-104121000D01*
X143316826Y-104121000D01*
X143090545Y-104214729D01*
X143079986Y-104204170D01*
X143037584Y-104140711D01*
X142786192Y-103972736D01*
X142564507Y-103928640D01*
X142564502Y-103928640D01*
X142489655Y-103913752D01*
X142414808Y-103928640D01*
X137965400Y-103928640D01*
X137965400Y-103605739D01*
X137870239Y-103376000D01*
X154306353Y-103376000D01*
X154381200Y-103390888D01*
X154456047Y-103376000D01*
X154456052Y-103376000D01*
X154677737Y-103331904D01*
X154929129Y-103163929D01*
X154971531Y-103100470D01*
X155966002Y-102106000D01*
X160733120Y-102106000D01*
X160750821Y-102148733D01*
X160750821Y-102148733D01*
G37*
X160750821Y-102148733D02*
X161148867Y-102546779D01*
X161318878Y-102617200D01*
X161148867Y-102687621D01*
X160750821Y-103085667D01*
X160734115Y-103126000D01*
X157453248Y-103126000D01*
X157378400Y-103111112D01*
X157303552Y-103126000D01*
X157303548Y-103126000D01*
X157081863Y-103170096D01*
X156830471Y-103338071D01*
X156788071Y-103401527D01*
X156233528Y-103956071D01*
X156170072Y-103998471D01*
X156127672Y-104061927D01*
X156127671Y-104061928D01*
X156002097Y-104249863D01*
X155943112Y-104546400D01*
X155958001Y-104621252D01*
X155958000Y-105569889D01*
X155840569Y-105687320D01*
X155683000Y-106067726D01*
X155683000Y-106479474D01*
X155840569Y-106859880D01*
X156131720Y-107151031D01*
X156343614Y-107238800D01*
X156131720Y-107326569D01*
X156037503Y-107420786D01*
X154558246Y-105941530D01*
X154515844Y-105878071D01*
X154264452Y-105710096D01*
X154042767Y-105666000D01*
X154042762Y-105666000D01*
X153967915Y-105651112D01*
X153893068Y-105666000D01*
X144431727Y-105666000D01*
X144557700Y-105361874D01*
X144557700Y-104950126D01*
X144400131Y-104569720D01*
X144108980Y-104278569D01*
X143728574Y-104121000D01*
X143316826Y-104121000D01*
X143090545Y-104214729D01*
X143079986Y-104204170D01*
X143037584Y-104140711D01*
X142786192Y-103972736D01*
X142564507Y-103928640D01*
X142564502Y-103928640D01*
X142489655Y-103913752D01*
X142414808Y-103928640D01*
X137965400Y-103928640D01*
X137965400Y-103605739D01*
X137870239Y-103376000D01*
X154306353Y-103376000D01*
X154381200Y-103390888D01*
X154456047Y-103376000D01*
X154456052Y-103376000D01*
X154677737Y-103331904D01*
X154929129Y-103163929D01*
X154971531Y-103100470D01*
X155966002Y-102106000D01*
X160733120Y-102106000D01*
X160750821Y-102148733D01*
G36*
X159937671Y-104671527D02*
X159332328Y-105276871D01*
X159268872Y-105319271D01*
X159226472Y-105382727D01*
X159226471Y-105382728D01*
X159190070Y-105437207D01*
X158955874Y-105340200D01*
X158544126Y-105340200D01*
X158163720Y-105497769D01*
X157872569Y-105788920D01*
X157753000Y-106077586D01*
X157753000Y-106067726D01*
X157595431Y-105687320D01*
X157478000Y-105569889D01*
X157478000Y-104861201D01*
X157693202Y-104646000D01*
X159954728Y-104646000D01*
X159937671Y-104671527D01*
X159937671Y-104671527D01*
G37*
X159937671Y-104671527D02*
X159332328Y-105276871D01*
X159268872Y-105319271D01*
X159226472Y-105382727D01*
X159226471Y-105382728D01*
X159190070Y-105437207D01*
X158955874Y-105340200D01*
X158544126Y-105340200D01*
X158163720Y-105497769D01*
X157872569Y-105788920D01*
X157753000Y-106077586D01*
X157753000Y-106067726D01*
X157595431Y-105687320D01*
X157478000Y-105569889D01*
X157478000Y-104861201D01*
X157693202Y-104646000D01*
X159954728Y-104646000D01*
X159937671Y-104671527D01*
G36*
X130862800Y-96011842D02*
X130862801Y-102038228D01*
X130847912Y-102113080D01*
X130906897Y-102409617D01*
X131026490Y-102588600D01*
X131074872Y-102661009D01*
X131138327Y-102703409D01*
X131535391Y-103100472D01*
X131577791Y-103163929D01*
X131829183Y-103331904D01*
X132050868Y-103376000D01*
X132050872Y-103376000D01*
X132125719Y-103390888D01*
X132200566Y-103376000D01*
X135230561Y-103376000D01*
X135135400Y-103605739D01*
X135135400Y-104168661D01*
X135217994Y-104368060D01*
X134884291Y-104368060D01*
X134766860Y-104250629D01*
X134386454Y-104093060D01*
X133974706Y-104093060D01*
X133594300Y-104250629D01*
X133303149Y-104541780D01*
X133145580Y-104922186D01*
X133145580Y-105333934D01*
X133303149Y-105714340D01*
X133432609Y-105843800D01*
X131724242Y-105843800D01*
X130897411Y-105016970D01*
X130855009Y-104953511D01*
X130603617Y-104785536D01*
X130381932Y-104741440D01*
X130381927Y-104741440D01*
X130307080Y-104726552D01*
X130232233Y-104741440D01*
X127198407Y-104741440D01*
X127382839Y-104465418D01*
X127498092Y-103886000D01*
X127392100Y-103353140D01*
X129035158Y-103353140D01*
X129110005Y-103368028D01*
X129184852Y-103353140D01*
X129184857Y-103353140D01*
X129406542Y-103309044D01*
X129657934Y-103141069D01*
X129700336Y-103077610D01*
X130281013Y-102496934D01*
X130344469Y-102454534D01*
X130512444Y-102203142D01*
X130540854Y-102060317D01*
X130673971Y-101927200D01*
X130831540Y-101546794D01*
X130831540Y-101135046D01*
X130673971Y-100754640D01*
X130382820Y-100463489D01*
X130002414Y-100305920D01*
X129590666Y-100305920D01*
X129210260Y-100463489D01*
X128919109Y-100754640D01*
X128761540Y-101135046D01*
X128761540Y-101546794D01*
X128855268Y-101773075D01*
X128795204Y-101833140D01*
X127401194Y-101833140D01*
X127498092Y-101346000D01*
X127382839Y-100766582D01*
X127054625Y-100275375D01*
X126756239Y-100076000D01*
X127054625Y-99876625D01*
X127382839Y-99385418D01*
X127498092Y-98806000D01*
X127382839Y-98226582D01*
X127054625Y-97735375D01*
X126756239Y-97536000D01*
X127054625Y-97336625D01*
X127382839Y-96845418D01*
X127498092Y-96266000D01*
X127396647Y-95756000D01*
X130606959Y-95756000D01*
X130862800Y-96011842D01*
X130862800Y-96011842D01*
G37*
X130862800Y-96011842D02*
X130862801Y-102038228D01*
X130847912Y-102113080D01*
X130906897Y-102409617D01*
X131026490Y-102588600D01*
X131074872Y-102661009D01*
X131138327Y-102703409D01*
X131535391Y-103100472D01*
X131577791Y-103163929D01*
X131829183Y-103331904D01*
X132050868Y-103376000D01*
X132050872Y-103376000D01*
X132125719Y-103390888D01*
X132200566Y-103376000D01*
X135230561Y-103376000D01*
X135135400Y-103605739D01*
X135135400Y-104168661D01*
X135217994Y-104368060D01*
X134884291Y-104368060D01*
X134766860Y-104250629D01*
X134386454Y-104093060D01*
X133974706Y-104093060D01*
X133594300Y-104250629D01*
X133303149Y-104541780D01*
X133145580Y-104922186D01*
X133145580Y-105333934D01*
X133303149Y-105714340D01*
X133432609Y-105843800D01*
X131724242Y-105843800D01*
X130897411Y-105016970D01*
X130855009Y-104953511D01*
X130603617Y-104785536D01*
X130381932Y-104741440D01*
X130381927Y-104741440D01*
X130307080Y-104726552D01*
X130232233Y-104741440D01*
X127198407Y-104741440D01*
X127382839Y-104465418D01*
X127498092Y-103886000D01*
X127392100Y-103353140D01*
X129035158Y-103353140D01*
X129110005Y-103368028D01*
X129184852Y-103353140D01*
X129184857Y-103353140D01*
X129406542Y-103309044D01*
X129657934Y-103141069D01*
X129700336Y-103077610D01*
X130281013Y-102496934D01*
X130344469Y-102454534D01*
X130512444Y-102203142D01*
X130540854Y-102060317D01*
X130673971Y-101927200D01*
X130831540Y-101546794D01*
X130831540Y-101135046D01*
X130673971Y-100754640D01*
X130382820Y-100463489D01*
X130002414Y-100305920D01*
X129590666Y-100305920D01*
X129210260Y-100463489D01*
X128919109Y-100754640D01*
X128761540Y-101135046D01*
X128761540Y-101546794D01*
X128855268Y-101773075D01*
X128795204Y-101833140D01*
X127401194Y-101833140D01*
X127498092Y-101346000D01*
X127382839Y-100766582D01*
X127054625Y-100275375D01*
X126756239Y-100076000D01*
X127054625Y-99876625D01*
X127382839Y-99385418D01*
X127498092Y-98806000D01*
X127382839Y-98226582D01*
X127054625Y-97735375D01*
X126756239Y-97536000D01*
X127054625Y-97336625D01*
X127382839Y-96845418D01*
X127498092Y-96266000D01*
X127396647Y-95756000D01*
X130606959Y-95756000D01*
X130862800Y-96011842D01*
G36*
X142366684Y-105640470D02*
X142383743Y-105666000D01*
X137900023Y-105666000D01*
X137935751Y-105612530D01*
X138099641Y-105448640D01*
X142174854Y-105448640D01*
X142366684Y-105640470D01*
X142366684Y-105640470D01*
G37*
X142366684Y-105640470D02*
X142383743Y-105666000D01*
X137900023Y-105666000D01*
X137935751Y-105612530D01*
X138099641Y-105448640D01*
X142174854Y-105448640D01*
X142366684Y-105640470D01*
G36*
X133263506Y-95172480D02*
X133429578Y-95172480D01*
X133666450Y-95409352D01*
X133708851Y-95472809D01*
X133772307Y-95515209D01*
X133960242Y-95640784D01*
X134008385Y-95650360D01*
X134136009Y-95675746D01*
X134134326Y-95676871D01*
X134134324Y-95676873D01*
X134070871Y-95719271D01*
X134028472Y-95782725D01*
X133576727Y-96234472D01*
X133513272Y-96276871D01*
X133470872Y-96340327D01*
X133470871Y-96340328D01*
X133345297Y-96528263D01*
X133286312Y-96824800D01*
X133301201Y-96899652D01*
X133301200Y-100134289D01*
X133183769Y-100251720D01*
X133078760Y-100505235D01*
X133078760Y-95095956D01*
X133263506Y-95172480D01*
X133263506Y-95172480D01*
G37*
X133263506Y-95172480D02*
X133429578Y-95172480D01*
X133666450Y-95409352D01*
X133708851Y-95472809D01*
X133772307Y-95515209D01*
X133960242Y-95640784D01*
X134008385Y-95650360D01*
X134136009Y-95675746D01*
X134134326Y-95676871D01*
X134134324Y-95676873D01*
X134070871Y-95719271D01*
X134028472Y-95782725D01*
X133576727Y-96234472D01*
X133513272Y-96276871D01*
X133470872Y-96340327D01*
X133470871Y-96340328D01*
X133345297Y-96528263D01*
X133286312Y-96824800D01*
X133301201Y-96899652D01*
X133301200Y-100134289D01*
X133183769Y-100251720D01*
X133078760Y-100505235D01*
X133078760Y-95095956D01*
X133263506Y-95172480D01*
G36*
X154726100Y-92702222D02*
X154726101Y-95587688D01*
X154608669Y-95705120D01*
X154451100Y-96085526D01*
X154451100Y-96497274D01*
X154608669Y-96877680D01*
X154899820Y-97168831D01*
X155042028Y-97227736D01*
X154876960Y-97296109D01*
X154759529Y-97413540D01*
X140097451Y-97413540D01*
X140287871Y-97223120D01*
X140445440Y-96842714D01*
X140445440Y-96430966D01*
X140287871Y-96050560D01*
X140191431Y-95954120D01*
X142881433Y-95954120D01*
X142956280Y-95969008D01*
X143031127Y-95954120D01*
X143031132Y-95954120D01*
X143252817Y-95910024D01*
X143504209Y-95742049D01*
X143546611Y-95678590D01*
X143663449Y-95561752D01*
X144652162Y-94573040D01*
X144818234Y-94573040D01*
X145198640Y-94415471D01*
X145489791Y-94124320D01*
X145647360Y-93743914D01*
X145647360Y-93332166D01*
X145489791Y-92951760D01*
X145198640Y-92660609D01*
X144818234Y-92503040D01*
X144406486Y-92503040D01*
X144026080Y-92660609D01*
X143734929Y-92951760D01*
X143577360Y-93332166D01*
X143577360Y-93498238D01*
X142641479Y-94434120D01*
X139932326Y-94434120D01*
X139857479Y-94419232D01*
X139782632Y-94434120D01*
X139782628Y-94434120D01*
X139560943Y-94478216D01*
X139309551Y-94646191D01*
X139267149Y-94709650D01*
X138952508Y-95024291D01*
X138946825Y-95015786D01*
X139119471Y-94843140D01*
X139277040Y-94462734D01*
X139277040Y-94296662D01*
X139620526Y-93953177D01*
X139699289Y-93900549D01*
X139741691Y-93837090D01*
X141145115Y-92433666D01*
X141186360Y-92474911D01*
X141566766Y-92632480D01*
X141978514Y-92632480D01*
X142358920Y-92474911D01*
X142476351Y-92357480D01*
X154381359Y-92357480D01*
X154726100Y-92702222D01*
X154726100Y-92702222D01*
G37*
X154726100Y-92702222D02*
X154726101Y-95587688D01*
X154608669Y-95705120D01*
X154451100Y-96085526D01*
X154451100Y-96497274D01*
X154608669Y-96877680D01*
X154899820Y-97168831D01*
X155042028Y-97227736D01*
X154876960Y-97296109D01*
X154759529Y-97413540D01*
X140097451Y-97413540D01*
X140287871Y-97223120D01*
X140445440Y-96842714D01*
X140445440Y-96430966D01*
X140287871Y-96050560D01*
X140191431Y-95954120D01*
X142881433Y-95954120D01*
X142956280Y-95969008D01*
X143031127Y-95954120D01*
X143031132Y-95954120D01*
X143252817Y-95910024D01*
X143504209Y-95742049D01*
X143546611Y-95678590D01*
X143663449Y-95561752D01*
X144652162Y-94573040D01*
X144818234Y-94573040D01*
X145198640Y-94415471D01*
X145489791Y-94124320D01*
X145647360Y-93743914D01*
X145647360Y-93332166D01*
X145489791Y-92951760D01*
X145198640Y-92660609D01*
X144818234Y-92503040D01*
X144406486Y-92503040D01*
X144026080Y-92660609D01*
X143734929Y-92951760D01*
X143577360Y-93332166D01*
X143577360Y-93498238D01*
X142641479Y-94434120D01*
X139932326Y-94434120D01*
X139857479Y-94419232D01*
X139782632Y-94434120D01*
X139782628Y-94434120D01*
X139560943Y-94478216D01*
X139309551Y-94646191D01*
X139267149Y-94709650D01*
X138952508Y-95024291D01*
X138946825Y-95015786D01*
X139119471Y-94843140D01*
X139277040Y-94462734D01*
X139277040Y-94296662D01*
X139620526Y-93953177D01*
X139699289Y-93900549D01*
X139741691Y-93837090D01*
X141145115Y-92433666D01*
X141186360Y-92474911D01*
X141566766Y-92632480D01*
X141978514Y-92632480D01*
X142358920Y-92474911D01*
X142476351Y-92357480D01*
X154381359Y-92357480D01*
X154726100Y-92702222D01*
G36*
X139585797Y-90699031D02*
X139543397Y-90762487D01*
X137565098Y-92740786D01*
X137351933Y-92527621D01*
X137181922Y-92457200D01*
X137351933Y-92386779D01*
X137749979Y-91988733D01*
X137770670Y-91938780D01*
X137950023Y-91903104D01*
X138201415Y-91735129D01*
X138243817Y-91671670D01*
X138512329Y-91403158D01*
X139210215Y-90705273D01*
X139239488Y-90676000D01*
X139620265Y-90676000D01*
X139585797Y-90699031D01*
X139585797Y-90699031D01*
G37*
X139585797Y-90699031D02*
X139543397Y-90762487D01*
X137565098Y-92740786D01*
X137351933Y-92527621D01*
X137181922Y-92457200D01*
X137351933Y-92386779D01*
X137749979Y-91988733D01*
X137770670Y-91938780D01*
X137950023Y-91903104D01*
X138201415Y-91735129D01*
X138243817Y-91671670D01*
X138512329Y-91403158D01*
X139210215Y-90705273D01*
X139239488Y-90676000D01*
X139620265Y-90676000D01*
X139585797Y-90699031D01*
G04 #@! TD*
M02*
