M48
;DRILL file {KiCad 5.0.2-bee76a0~70~ubuntu18.04.1} date jue 06 ago 2020 15:01:43 CEST
;FORMAT={-:-/ absolute / inch / decimal}
FMAT,2
INCH,TZ
T1C0.0157
T2C0.0394
T3C0.0409
T4C0.0472
%
G90
G05
T1
X5.1101Y-3.9898
X5.1366Y-3.8914
X5.244Y-3.8928
X5.2547Y-3.7062
X5.278Y-3.97
X5.2822Y-4.197
X5.2827Y-4.1389
X5.4408Y-4.1543
X5.4426Y-3.7109
X5.4824Y-3.9826
X5.4872Y-3.4206
X5.4886Y-3.8046
X5.538Y-4.34
X5.5793Y-3.9814
X5.5816Y-3.6062
X5.6414Y-3.8968
X5.6505Y-4.14
X5.6934Y-3.6826
X5.7245Y-4.2396
X6.1039Y-3.5762
X6.105Y-3.3404
X6.1206Y-3.8651
X6.1215Y-3.791
X6.164Y-4.79
X6.17Y-4.184
X6.17Y-4.26
X6.17Y-4.39
X6.1797Y-3.54
X6.2029Y-3.7282
X6.204Y-3.64
X6.25Y-4.188
X6.292Y-4.342
X6.476Y-3.738
X6.482Y-4.24
X6.5144Y-4.04
X6.636Y-4.24
X6.718Y-3.438
X6.72Y-3.244
X6.72Y-3.384
T2
X4.86Y-3.39
X4.86Y-3.49
X4.86Y-3.59
X4.86Y-3.69
X4.86Y-3.79
X4.86Y-3.89
X4.86Y-3.99
X4.86Y-4.09
X4.96Y-3.39
X4.96Y-3.49
X4.96Y-3.59
X4.96Y-3.69
X4.96Y-3.79
X4.96Y-3.89
X4.96Y-3.99
X4.96Y-4.09
X6.82Y-3.444
X6.82Y-3.544
X6.82Y-3.644
X6.82Y-3.744
X6.82Y-3.844
X6.82Y-3.944
X6.82Y-4.044
X6.92Y-3.444
X6.92Y-3.544
X6.92Y-3.644
X6.92Y-3.744
X6.92Y-3.844
X6.92Y-3.944
X6.92Y-4.044
T3
X5.376Y-2.99
X5.376Y-3.09
X5.376Y-3.19
X5.376Y-3.29
X5.376Y-3.39
X5.376Y-3.49
X5.376Y-3.59
X5.376Y-3.69
X5.376Y-3.79
X5.376Y-3.89
X5.376Y-3.99
X5.376Y-4.09
X5.376Y-4.19
X5.376Y-4.29
X5.376Y-4.39
X5.376Y-4.49
X5.376Y-4.59
X5.376Y-4.69
X5.376Y-4.79
X6.376Y-2.99
X6.376Y-3.09
X6.376Y-3.19
X6.376Y-3.29
X6.376Y-3.39
X6.376Y-3.49
X6.376Y-3.59
X6.376Y-3.69
X6.376Y-3.79
X6.376Y-3.89
X6.376Y-3.99
X6.376Y-4.09
X6.376Y-4.19
X6.376Y-4.29
X6.376Y-4.39
X6.376Y-4.49
X6.376Y-4.59
X6.376Y-4.69
X6.376Y-4.79
T4
X6.8952Y-4.2901
X6.8952Y-4.4279
T0
M30
